<svg width="80" height="80" viewBox="0 0 80 80" fill="none" xmlns="http://www.w3.org/2000/svg">
<rect width="80" height="80" rx="16" fill="#4BD641"/>
<g clip-path="url(#clip0_3941_2003)">
<path fill-rule="evenodd" clip-rule="evenodd" d="M46.6709 32.5722H64.388C65.2794 32.5722 66 31.848 66 30.9565V18.848C66 18.4201 65.8303 18.0097 65.5281 17.7068C65.2259 17.4039 64.8159 17.2332 64.388 17.2322H54.6937L54.248 15.2265C54.159 14.8678 53.9497 14.5505 53.655 14.3274C53.3602 14.1044 52.998 13.9891 52.6286 14.0008H46.6709C46.2423 14.0008 45.8314 14.171 45.5284 14.474C45.2254 14.7771 45.0551 15.188 45.0551 15.6165V30.9565C45.0551 31.385 45.2254 31.796 45.5284 32.099C45.8314 32.402 46.2423 32.5722 46.6709 32.5722ZM21.4286 25.1437H37.2143C38.1994 25.1437 39.1441 24.7523 39.8407 24.0558C40.5372 23.3592 40.9286 22.4145 40.9286 21.4294C40.9286 20.4443 40.5372 19.4996 39.8407 18.803C39.1441 18.1064 38.1994 17.7151 37.2143 17.7151H19.4117C16.4217 17.7151 14 20.1368 14 23.1268V49.4462C14 52.4362 16.4217 54.858 19.4117 54.858H34.3729L32.3783 60.4294H28.8571C28.1183 60.4294 27.4098 60.7229 26.8873 61.2453C26.3649 61.7677 26.0714 62.4763 26.0714 63.2151C26.0714 63.9539 26.3649 64.6625 26.8873 65.1849C27.4098 65.7073 28.1183 66.0008 28.8571 66.0008H51.1429C51.8817 66.0008 52.5902 65.7073 53.1127 65.1849C53.6351 64.6625 53.9286 63.9539 53.9286 63.2151C53.9286 62.4763 53.6351 61.7677 53.1127 61.2453C52.5902 60.7229 51.8817 60.4294 51.1429 60.4294H47.6217L45.6271 54.858H60.5883C63.5783 54.858 66 52.4362 66 49.4462V40.9294C66 39.9443 65.6087 38.9996 64.9121 38.303C64.2155 37.6064 63.2708 37.2151 62.2857 37.2151C61.3006 37.2151 60.3559 37.6064 59.6593 38.303C58.9628 38.9996 58.5714 39.9443 58.5714 40.9294V47.4294H21.4286V25.1437Z" fill="white"/>
</g>
<defs>
<clipPath id="clip0_3941_2003">
<rect width="52" height="52" fill="white" transform="translate(14 14)"/>
</clipPath>
</defs>
</svg>
