<svg width="80" height="80" viewBox="0 0 80 80" fill="none" xmlns="http://www.w3.org/2000/svg">
<path d="M42.24 43.4334C41.96 43.1524 41.96 42.8713 41.68 42.8713C40.28 42.0283 38.6 42.3093 37.48 43.4334L26.28 60.2936C26.28 60.8556 26 61.4176 26 61.9796C26 63.6656 27.12 64.7896 28.8 64.7896H51.2C51.76 64.7896 52.32 64.5086 52.88 64.2276C54.28 63.3846 54.56 61.6986 53.72 60.2936L42.24 43.4334ZM59.6 14.209H20.4C15.64 14.209 12 17.862 12 22.6391V47.9294C12 52.7065 15.64 56.3595 20.4 56.3595H22.64C24.32 56.3595 25.44 55.2355 25.44 53.5495C25.44 51.8635 24.32 50.7394 22.64 50.7394H20.4C18.72 50.7394 17.6 49.6154 17.6 47.9294V22.6391C17.6 20.9531 18.72 19.8291 20.4 19.8291H59.6C61.28 19.8291 62.4 20.9531 62.4 22.6391V47.9294C62.4 49.6154 61.28 50.7394 59.6 50.7394H57.36C55.68 50.7394 54.56 51.8635 54.56 53.5495C54.56 55.2355 55.68 56.3595 57.36 56.3595H59.6C64.36 56.3595 68 52.7065 68 47.9294V22.6391C68 17.862 64.36 14.209 59.6 14.209Z" fill="white"/>
</svg>
