<svg width="40" height="40" viewBox="0 0 40 40" fill="none" xmlns="http://www.w3.org/2000/svg">
<path d="M7.22222 18.9084C7.22222 11.9734 12.9433 6.3509 20 6.3509C27.0567 6.3509 32.7778 11.9734 32.7778 18.9084V21.6383H28.3333C28.0386 21.6383 27.756 21.7533 27.5477 21.9581C27.3393 22.1629 27.2222 22.4406 27.2222 22.7302V33.6497C27.2222 33.9394 27.3393 34.2171 27.5477 34.4219C27.756 34.6267 28.0386 34.7417 28.3333 34.7417H30C31.3261 34.7417 32.5979 34.224 33.5355 33.3025C34.4732 32.381 35 31.1311 35 29.8279V18.9084C35 10.7668 28.2844 4.16699 20 4.16699C11.7156 4.16699 5 10.7668 5 18.9084V29.8279C5 31.1311 5.52678 32.381 6.46447 33.3025C7.40215 34.224 8.67392 34.7417 10 34.7417H11.6667C11.9614 34.7417 12.244 34.6267 12.4523 34.4219C12.6607 34.2171 12.7778 33.9394 12.7778 33.6497V22.7302C12.7778 22.4406 12.6607 22.1629 12.4523 21.9581C12.244 21.7533 11.9614 21.6383 11.6667 21.6383H7.22222V18.9084ZM29.4444 23.8222H32.7778V29.8279C32.7778 30.5519 32.4851 31.2463 31.9642 31.7582C31.4433 32.2702 30.7367 32.5578 30 32.5578H29.4444V23.8222ZM7.22222 23.8222H10.5556V32.5578H10C9.26329 32.5578 8.55675 32.2702 8.03581 31.7582C7.51488 31.2463 7.22222 30.5519 7.22222 29.8279V23.8222ZM21.1111 20.5463C21.1111 20.2567 20.9941 19.979 20.7857 19.7742C20.5773 19.5694 20.2947 19.4543 20 19.4543C19.7053 19.4543 19.4227 19.5694 19.2143 19.7742C19.006 19.979 18.8889 20.2567 18.8889 20.5463V34.7417C18.8889 35.0313 19.006 35.3091 19.2143 35.5138C19.4227 35.7186 19.7053 35.8337 20 35.8337C20.2947 35.8337 20.5773 35.7186 20.7857 35.5138C20.9941 35.3091 21.1111 35.0313 21.1111 34.7417V20.5463ZM16.1111 23.8222C16.4058 23.8222 16.6884 23.9372 16.8968 24.142C17.1052 24.3468 17.2222 24.6245 17.2222 24.9141V30.3739C17.2222 30.6635 17.1052 30.9412 16.8968 31.146C16.6884 31.3508 16.4058 31.4658 16.1111 31.4658C15.8164 31.4658 15.5338 31.3508 15.3254 31.146C15.1171 30.9412 15 30.6635 15 30.3739V24.9141C15 24.6245 15.1171 24.3468 15.3254 24.142C15.5338 23.9372 15.8164 23.8222 16.1111 23.8222ZM25 24.9141C25 24.6245 24.8829 24.3468 24.6746 24.142C24.4662 23.9372 24.1836 23.8222 23.8889 23.8222C23.5942 23.8222 23.3116 23.9372 23.1032 24.142C22.8948 24.3468 22.7778 24.6245 22.7778 24.9141V30.3739C22.7778 30.6635 22.8948 30.9412 23.1032 31.146C23.3116 31.3508 23.5942 31.4658 23.8889 31.4658C24.1836 31.4658 24.4662 31.3508 24.6746 31.146C24.8829 30.9412 25 30.6635 25 30.3739V24.9141Z" fill="#999999"/>
</svg>
