<svg width="28" height="28" viewBox="0 0 28 28" fill="none" xmlns="http://www.w3.org/2000/svg">
<path d="M3.77778 13.1724C3.77778 7.91641 8.35467 3.65517 14 3.65517C19.6453 3.65517 24.2222 7.91641 24.2222 13.1724V15.2414H20.6667C20.4309 15.2414 20.2048 15.3286 20.0381 15.4838C19.8714 15.639 19.7778 15.8495 19.7778 16.069V24.3448C19.7778 24.5643 19.8714 24.7748 20.0381 24.93C20.2048 25.0852 20.4309 25.1724 20.6667 25.1724H22C23.0609 25.1724 24.0783 24.7801 24.8284 24.0816C25.5786 23.3832 26 22.436 26 21.4483V13.1724C26 7.00193 20.6276 2 14 2C7.37244 2 2 7.00193 2 13.1724V21.4483C2 22.436 2.42143 23.3832 3.17157 24.0816C3.92172 24.7801 4.93913 25.1724 6 25.1724H7.33333C7.56908 25.1724 7.79517 25.0852 7.96187 24.93C8.12857 24.7748 8.22222 24.5643 8.22222 24.3448V16.069C8.22222 15.8495 8.12857 15.639 7.96187 15.4838C7.79517 15.3286 7.56908 15.2414 7.33333 15.2414H3.77778V13.1724ZM21.5556 16.8966H24.2222V21.4483C24.2222 21.997 23.9881 22.5233 23.5713 22.9113C23.1546 23.2993 22.5894 23.5172 22 23.5172H21.5556V16.8966ZM3.77778 16.8966H6.44444V23.5172H6C5.41063 23.5172 4.8454 23.2993 4.42865 22.9113C4.0119 22.5233 3.77778 21.997 3.77778 21.4483V16.8966ZM14.8889 14.4138C14.8889 14.1943 14.7952 13.9838 14.6285 13.8286C14.4618 13.6734 14.2357 13.5862 14 13.5862C13.7643 13.5862 13.5382 13.6734 13.3715 13.8286C13.2048 13.9838 13.1111 14.1943 13.1111 14.4138V25.1724C13.1111 25.3919 13.2048 25.6024 13.3715 25.7576C13.5382 25.9128 13.7643 26 14 26C14.2357 26 14.4618 25.9128 14.6285 25.7576C14.7952 25.6024 14.8889 25.3919 14.8889 25.1724V14.4138ZM10.8889 16.8966C11.1246 16.8966 11.3507 16.9837 11.5174 17.1389C11.6841 17.2941 11.7778 17.5046 11.7778 17.7241V21.8621C11.7778 22.0816 11.6841 22.2921 11.5174 22.4473C11.3507 22.6025 11.1246 22.6897 10.8889 22.6897C10.6531 22.6897 10.427 22.6025 10.2604 22.4473C10.0937 22.2921 10 22.0816 10 21.8621V17.7241C10 17.5046 10.0937 17.2941 10.2604 17.1389C10.427 16.9837 10.6531 16.8966 10.8889 16.8966ZM18 17.7241C18 17.5046 17.9064 17.2941 17.7397 17.1389C17.573 16.9837 17.3469 16.8966 17.1111 16.8966C16.8754 16.8966 16.6493 16.9837 16.4826 17.1389C16.3159 17.2941 16.2222 17.5046 16.2222 17.7241V21.8621C16.2222 22.0816 16.3159 22.2921 16.4826 22.4473C16.6493 22.6025 16.8754 22.6897 17.1111 22.6897C17.3469 22.6897 17.573 22.6025 17.7397 22.4473C17.9064 22.2921 18 22.0816 18 21.8621V17.7241Z" fill="#FEA800"/>
</svg>
