<svg width="68" height="68" viewBox="0 0 68 68" fill="none" xmlns="http://www.w3.org/2000/svg">
<path d="M39.1944 27.49C38.8838 26.6162 38.3106 25.8599 37.5536 25.3244C36.7965 24.789 35.8924 24.5005 34.9651 24.4987H31.4932C30.5027 24.4935 29.5454 24.8558 28.8066 25.5154C28.0677 26.1751 27.5997 27.0854 27.493 28.0701C27.3864 29.0549 27.6486 30.0442 28.2292 30.8468C28.8097 31.6494 29.6671 32.2082 30.6358 32.4152L35.9225 33.5687C37.0035 33.8053 37.9589 34.4331 38.6051 35.3314C39.2514 36.2297 39.5429 37.3351 39.4237 38.4352C39.3045 39.5354 38.7829 40.5527 37.9592 41.2916C37.1356 42.0306 36.0678 42.4392 34.9613 42.4388H31.9738C30.0206 42.4388 28.3596 41.193 27.7445 39.4513M33.4695 24.4987V20.0117M33.4695 46.9257V42.4426M14.7681 58.9832V49.371H24.3802" stroke="white" stroke-width="4" stroke-linecap="round" stroke-linejoin="round"/>
<path d="M58.5609 29.4004C59.5817 34.8417 58.7667 40.4679 56.2441 45.396C53.7214 50.324 49.6338 54.2749 44.6229 56.6286C39.612 58.9823 33.9613 59.6055 28.5579 58.4005C23.1544 57.1954 18.3041 54.2303 14.7681 49.9704M9.4391 38.5973C8.41838 33.1561 9.23331 27.5299 11.756 22.6018C14.2786 17.6738 18.3662 13.7228 23.3771 11.3692C28.3881 9.01546 34.0387 8.39224 39.4422 9.59732C44.8456 10.8024 49.696 13.7675 53.232 18.0274" stroke="white" stroke-width="4" stroke-linecap="round" stroke-linejoin="round"/>
<path d="M53.232 9.01562V18.6278H43.6199" stroke="white" stroke-width="4" stroke-linecap="round" stroke-linejoin="round"/>
</svg>
