<svg width="60" height="60" viewBox="0 0 60 60" fill="none" xmlns="http://www.w3.org/2000/svg">
<path d="M30 13.7498C27.1093 13.7497 24.3295 14.8623 22.2372 16.8569C20.1448 18.8515 18.9006 21.5749 18.7625 24.4623C18.74 24.9442 18.5325 25.399 18.1833 25.7319C17.8341 26.0648 17.37 26.2503 16.8875 26.2498H16.25C14.2608 26.2498 12.3532 27.04 10.9467 28.4465C9.54015 29.853 8.74997 31.7607 8.74997 33.7498C8.74997 35.7389 9.54015 37.6466 10.9467 39.0531C12.3532 40.4596 14.2608 41.2498 16.25 41.2498H22.92C22.6437 41.8362 22.5005 42.4765 22.5005 43.1248C22.5005 43.7731 22.6437 44.4133 22.92 44.9998H16.25C13.3589 44.9974 10.5798 43.882 8.48909 41.8852C6.39843 39.8883 5.15676 37.1633 5.02169 34.2754C4.88663 31.3875 5.86853 28.5584 7.76368 26.3752C9.65883 24.1919 12.3218 22.822 15.2 22.5498C15.7818 19.0447 17.5887 15.8599 20.299 13.5624C23.0092 11.2649 26.4469 10.0039 30 10.0039C33.553 10.0039 36.9907 11.2649 39.701 13.5624C42.4113 15.8599 44.2182 19.0447 44.8 22.5498C46.5475 22.7131 48.2326 23.2831 49.7205 24.2141C51.2084 25.1451 52.4578 26.4113 53.3688 27.9114C54.2799 29.4116 54.8272 31.1042 54.9672 32.8537C55.1072 34.6033 54.8359 36.3613 54.175 37.9873L51.15 34.9648C51.2166 34.5698 51.25 34.1648 51.25 33.7498C51.25 31.7607 50.4598 29.853 49.0533 28.4465C47.6468 27.04 45.7391 26.2498 43.75 26.2498H43.11C42.6279 26.2497 42.1644 26.0639 41.8157 25.731C41.4671 25.3982 41.26 24.9438 41.2375 24.4623C41.0994 21.5749 39.8551 18.8515 37.7628 16.8569C35.6705 14.8623 32.8907 13.7497 30 13.7498ZM34.45 38.1998C34.6342 38.0281 34.7819 37.8211 34.8844 37.5911C34.9869 37.3611 35.042 37.1128 35.0465 36.8611C35.0509 36.6093 35.0046 36.3593 34.9103 36.1258C34.816 35.8923 34.6756 35.6802 34.4976 35.5022C34.3195 35.3241 34.1074 35.1838 33.874 35.0895C33.6405 34.9952 33.3904 34.9489 33.1387 34.9533C32.8869 34.9577 32.6386 35.0128 32.4086 35.1153C32.1786 35.2178 31.9716 35.3656 31.8 35.5498L25.55 41.7998C25.1988 42.1513 25.0016 42.6279 25.0016 43.1248C25.0016 43.6217 25.1988 44.0982 25.55 44.4498L31.8 50.6998C31.9716 50.884 32.1786 51.0318 32.4086 51.1342C32.6386 51.2367 32.8869 51.2918 33.1387 51.2963C33.3904 51.3007 33.6405 51.2544 33.874 51.1601C34.1074 51.0658 34.3195 50.9254 34.4976 50.7474C34.6756 50.5693 34.816 50.3572 34.9103 50.1238C35.0046 49.8903 35.0509 49.6402 35.0465 49.3885C35.042 49.1367 34.9869 48.8884 34.8844 48.6584C34.7819 48.4284 34.6342 48.2214 34.45 48.0498L31.4 44.9998H48.6L45.55 48.0498C45.3658 48.2214 45.218 48.4284 45.1155 48.6584C45.013 48.8884 44.9579 49.1367 44.9535 49.3885C44.9491 49.6402 44.9954 49.8903 45.0897 50.1238C45.184 50.3572 45.3243 50.5693 45.5024 50.7474C45.6804 50.9254 45.8925 51.0658 46.126 51.1601C46.3595 51.2544 46.6095 51.3007 46.8613 51.2963C47.113 51.2918 47.3613 51.2367 47.5913 51.1342C47.8213 51.0318 48.0283 50.884 48.2 50.6998L54.45 44.4498C54.8011 44.0982 54.9983 43.6217 54.9983 43.1248C54.9983 42.6279 54.8011 42.1513 54.45 41.7998L48.2 35.5498C48.0283 35.3656 47.8213 35.2178 47.5913 35.1153C47.3613 35.0128 47.113 34.9577 46.8613 34.9533C46.6095 34.9489 46.3595 34.9952 46.126 35.0895C45.8925 35.1838 45.6804 35.3241 45.5024 35.5022C45.3243 35.6802 45.184 35.8923 45.0897 36.1258C44.9954 36.3593 44.9491 36.6093 44.9535 36.8611C44.9579 37.1128 45.013 37.3611 45.1155 37.5911C45.218 37.8211 45.3658 38.0281 45.55 38.1998L48.6 41.2498H31.4L34.45 38.1998Z" fill="#727272"/>
</svg>
