<svg width="60" height="60" viewBox="0 0 60 60" fill="none" xmlns="http://www.w3.org/2000/svg">
<g clip-path="url(#clip0_7162_4172)">
<path d="M30 33.75C34.4755 33.75 38.7677 31.9721 41.9324 28.8074C45.0971 25.6428 46.875 21.3505 46.875 16.875C46.875 12.3995 45.0971 8.10725 41.9324 4.94257C38.7677 1.7779 34.4755 0 30 0C25.5245 0 21.2322 1.7779 18.0676 4.94257C14.9029 8.10725 13.125 12.3995 13.125 16.875C13.125 21.3505 14.9029 25.6428 18.0676 28.8074C21.2322 31.9721 25.5245 33.75 30 33.75ZM18.9023 37.5C8.46094 37.5 0 45.9609 0 56.4023C0 58.3945 1.61719 60 3.59766 60H56.4023C58.3945 60 60 58.3828 60 56.4023C60 45.9609 51.5391 37.5 41.0977 37.5H18.9023Z" fill="#B5B5B5"/>
</g>
<defs>
<clipPath id="clip0_7162_4172">
<rect width="60" height="60" fill="white"/>
</clipPath>
</defs>
</svg>
