<svg width="80" height="80" viewBox="0 0 80 80" fill="none" xmlns="http://www.w3.org/2000/svg">
<path d="M54.31 7.64334C54.9351 7.01844 55.7828 6.66739 56.6667 6.66739C57.5505 6.66739 58.3982 7.01844 59.0233 7.64334L72.3567 20.9767C72.9816 21.6018 73.3326 22.4495 73.3326 23.3333C73.3326 24.2172 72.9816 25.0649 72.3567 25.69L29.0233 69.0233C28.3984 69.6485 27.5506 69.9998 26.6667 70H13.3333C12.4493 70 11.6014 69.6488 10.9763 69.0237C10.3512 68.3986 10 67.5507 10 66.6667V53.3333C10.0002 52.4494 10.3515 51.6017 10.9767 50.9767L44.31 17.6433L54.31 7.64334ZM46.6667 24.7133L16.6667 54.7133V63.3333H25.2867L55.2867 33.3333L46.6667 24.7133ZM60 28.62L65.2867 23.3333L56.6667 14.7133L51.38 20L60 28.62Z" fill="white"/>
</svg>
