<svg width="120" height="120" viewBox="0 0 120 120" fill="none" xmlns="http://www.w3.org/2000/svg">
<g id="fluent:tv-24-filled">
<path id="Vector" d="M23.75 20C20.1033 20 16.6059 21.4487 14.0273 24.0273C11.4487 26.6059 10 30.1033 10 33.75V76.25C10 79.8967 11.4487 83.3941 14.0273 85.9727C16.6059 88.5513 20.1033 90 23.75 90H96.25C99.8967 90 103.394 88.5513 105.973 85.9727C108.551 83.3941 110 79.8967 110 76.25V33.75C110 30.1033 108.551 26.6059 105.973 24.0273C103.394 21.4487 99.8967 20 96.25 20H23.75ZM25 101.25C25 100.255 25.3951 99.3016 26.0983 98.5983C26.8016 97.8951 27.7554 97.5 28.75 97.5H91.25C92.2446 97.5 93.1984 97.8951 93.9017 98.5983C94.6049 99.3016 95 100.255 95 101.25C95 102.245 94.6049 103.198 93.9017 103.902C93.1984 104.605 92.2446 105 91.25 105H28.75C27.7554 105 26.8016 104.605 26.0983 103.902C25.3951 103.198 25 102.245 25 101.25Z" fill="#1ED55F"/>
</g>
</svg>
