<svg width="68" height="68" viewBox="0 0 68 68" fill="none" xmlns="http://www.w3.org/2000/svg">
<path d="M29.8333 31.6667C32.8391 31.6667 35.7218 30.4726 37.8472 28.3472C39.9726 26.2218 41.1667 23.3391 41.1667 20.3333C41.1667 17.3275 39.9726 14.4449 37.8472 12.3195C35.7218 10.194 32.8391 9 29.8333 9C26.8275 9 23.9449 10.194 21.8195 12.3195C19.694 14.4449 18.5 17.3275 18.5 20.3333C18.5 23.3391 19.694 26.2218 21.8195 28.3472C23.9449 30.4726 26.8275 31.6667 29.8333 31.6667Z" stroke="white" stroke-width="4" stroke-linecap="round" stroke-linejoin="round"/>
<path d="M10 54.3329V51.4995C9.99931 48.1533 10.8453 44.8613 12.4592 41.9299C14.073 38.9986 16.4023 36.5232 19.2302 34.7343C22.0581 32.9454 25.2927 31.901 28.6328 31.6985C31.9729 31.4959 35.31 32.1418 38.3333 33.5759M42.9658 44.1754L45.9097 37.9335C45.9893 37.7551 46.1189 37.6036 46.2828 37.4972C46.4467 37.3909 46.6379 37.3343 46.8333 37.3343C47.0287 37.3343 47.2199 37.3909 47.3838 37.4972C47.5478 37.6036 47.6774 37.7551 47.757 37.9335L50.7037 44.1754L57.2855 45.184C58.1298 45.3115 58.4642 46.3995 57.8522 47.0229L53.0922 51.8764L54.2142 58.7359C54.3587 59.617 53.4775 60.2885 52.721 59.872L46.8333 56.6335L40.9457 59.872C40.1892 60.2885 39.308 59.617 39.4525 58.7387L40.5745 51.8764L35.8145 47.0229C35.2025 46.3995 35.5368 45.3115 36.3812 45.1812L42.9658 44.1754Z" stroke="white" stroke-width="4" stroke-linecap="round" stroke-linejoin="round"/>
</svg>
