<svg width="60" height="60" viewBox="0 0 60 60" fill="none" xmlns="http://www.w3.org/2000/svg">
<circle cx="30" cy="30" r="30" fill="#00B3E5"/>
<path d="M32.875 22.3333H30V31.9167L38.2033 36.785L39.5833 34.4658L32.875 30.4792V22.3333ZM31.9166 12.75C27.3416 12.75 22.954 14.5674 19.719 17.8024C16.484 21.0374 14.6666 25.425 14.6666 30H8.91663L16.5066 37.7242L24.25 30H18.5C18.5 26.4417 19.9135 23.0291 22.4296 20.513C24.9457 17.9969 28.3583 16.5833 31.9166 16.5833C35.4749 16.5833 38.8875 17.9969 41.4036 20.513C43.9198 23.0291 45.3333 26.4417 45.3333 30C45.3333 33.5583 43.9198 36.9709 41.4036 39.487C38.8875 42.0031 35.4749 43.4167 31.9166 43.4167C28.2175 43.4167 24.8633 41.9025 22.4483 39.4683L19.7266 42.19C21.3205 43.8008 23.2194 45.0779 25.3124 45.9467C27.4054 46.8155 29.6505 47.2586 31.9166 47.25C36.4916 47.25 40.8792 45.4326 44.1142 42.1976C47.3492 38.9626 49.1666 34.575 49.1666 30C49.1666 25.425 47.3492 21.0374 44.1142 17.8024C40.8792 14.5674 36.4916 12.75 31.9166 12.75Z" fill="white"/>
</svg>
