<svg width="48" height="48" viewBox="0 0 48 48" fill="none" xmlns="http://www.w3.org/2000/svg">
<rect width="48" height="48" fill="#FEA800"/>
<path d="M32.4959 23.1532L28.4757 26.7491L29.7005 32.1269C29.7681 32.4188 29.7507 32.7249 29.6505 33.0066C29.5503 33.2883 29.3718 33.5329 29.1376 33.7095C28.9034 33.8861 28.624 33.9867 28.3346 33.9988C28.0452 34.0108 27.7588 33.9337 27.5117 33.7771L23.0002 30.8989L18.4859 33.7771C18.2389 33.9328 17.9529 34.0092 17.664 33.9967C17.3751 33.9842 17.0962 33.8834 16.8625 33.707C16.6288 33.5305 16.4506 33.2863 16.3505 33.0052C16.2504 32.724 16.2328 32.4184 16.2999 32.1269L17.5291 26.7491L13.5089 23.1532C13.2903 22.9573 13.1322 22.6991 13.0544 22.4106C12.9765 22.1222 12.9824 21.8163 13.0712 21.5313C13.16 21.2463 13.3279 20.9947 13.5538 20.808C13.7798 20.6213 14.0537 20.5077 14.3416 20.4815L19.6125 20.0407L21.6458 14.9398C21.7559 14.6618 21.9432 14.4241 22.184 14.2567C22.4247 14.0894 22.7081 14 22.9979 14C23.2878 14 23.5712 14.0894 23.8119 14.2567C24.0527 14.4241 24.24 14.6618 24.3501 14.9398L26.3825 20.0407L31.6534 20.4815C31.9418 20.5068 32.2166 20.6197 32.4434 20.8062C32.6701 20.9926 32.8388 21.2443 32.9281 21.5296C33.0175 21.815 33.0237 22.1214 32.9458 22.4103C32.868 22.6993 32.7096 22.958 32.4905 23.1541L32.4959 23.1532Z" fill="white"/>
</svg>
