<svg width="60" height="60" viewBox="0 0 60 60" fill="none" xmlns="http://www.w3.org/2000/svg">
<path d="M30.001 9.25C30.7583 9.25 31.4736 9.53108 32.001 10.0146V10.0156L48.2979 24.959V24.958C49.0786 25.674 49.6954 26.5316 50.1152 27.4756C50.535 28.4194 50.75 29.4334 50.75 30.4551V47.0654C50.75 47.7512 50.4687 48.4265 49.9404 48.9365C49.4095 49.449 48.6725 49.75 47.8887 49.75H12.1113C11.3275 49.75 10.5905 49.449 10.0596 48.9365C9.53129 48.4265 9.25 47.7512 9.25 47.0654V30.4551C9.25 29.4334 9.46503 28.4194 9.88477 27.4756C10.3045 26.5318 10.9207 25.6739 11.7012 24.958L11.7021 24.959L28.002 10.0156V10.0146C28.5292 9.53126 29.2438 9.25007 30.001 9.25Z" stroke="#999999" stroke-width="4.5" stroke-linecap="round" stroke-linejoin="round"/>
<path d="M42 34.6879C41.8389 34.8625 41.6776 35.037 41.5161 35.2098C41.3101 35.4293 41.1024 35.6417 40.8937 35.8492C37.5136 39.2161 33.7199 41.0053 29.9222 41C26.1246 41.0082 22.3299 39.2228 18.9496 35.8586C18.5737 35.4854 18.2036 35.0928 18 33.844L18.1624 33.0047C18.5537 33.2206 18.9444 33.4253 19.3358 33.6183C22.8574 35.352 26.3902 36.1846 29.9211 36.1854C33.4523 36.182 36.9855 35.3479 40.5075 33.6112C40.725 33.5039 40.9428 33.3921 41.1606 33.2774C41.3365 33.1842 41.5125 33.0914 41.6888 33C41.7923 33.5624 41.8965 34.1255 42 34.6879Z" fill="#999999"/>
</svg>
