<svg width="60" height="60" viewBox="0 0 60 60" fill="none" xmlns="http://www.w3.org/2000/svg">
<path d="M30.001 7C31.3111 7 32.5716 7.48543 33.5215 8.35645L49.8184 23.2998C50.8235 24.2217 51.6239 25.3316 52.1709 26.5615C52.7179 27.7915 53 29.1166 53 30.4551V47.0654C53 48.3741 52.4614 49.6293 51.5029 50.5547C50.5444 51.48 49.2442 52 47.8887 52H12.1113C10.7558 52 9.45559 51.48 8.49707 50.5547C7.53857 49.6293 7 48.3741 7 47.0654V30.4551C7 29.1166 7.28213 27.7915 7.8291 26.5615C8.37607 25.3316 9.17648 24.2217 10.1816 23.2998L26.4814 8.35645C27.4312 7.48561 28.6911 7.00007 30.001 7ZM41.1602 33.2773C40.9425 33.3919 40.7252 33.5041 40.5078 33.6113C36.9858 35.348 33.4521 36.1822 29.9209 36.1855C26.3901 36.1847 22.8575 35.3518 19.3359 33.6182C18.9446 33.4252 18.5533 33.2208 18.1621 33.0049L18 33.8438C18.2036 35.0923 18.5734 35.4853 18.9492 35.8584C22.3295 39.2225 26.1244 41.0081 29.9219 41C33.7195 41.0054 37.5136 39.2163 40.8936 35.8496C41.1023 35.6421 41.3106 35.4294 41.5166 35.21C41.678 35.0372 41.8389 34.8621 42 34.6875C41.8965 34.1252 41.792 33.5623 41.6885 33C41.5123 33.0914 41.336 33.1841 41.1602 33.2773Z" fill="white"/>
</svg>
