<svg width="60" height="60" viewBox="0 0 60 60" fill="none" xmlns="http://www.w3.org/2000/svg">
<g clip-path="url(#clip0_9656_1056)">
<path fill-rule="evenodd" clip-rule="evenodd" d="M30 0C46.568 0 60 13.432 60 30C60 46.568 46.568 60 30 60C13.432 60 0 46.568 0 30C0 13.432 13.432 0 30 0Z" fill="#F89F22"/>
<path fill-rule="evenodd" clip-rule="evenodd" d="M30 4.6875C43.9805 4.6875 55.3125 16.0195 55.3125 30C55.3125 43.9805 43.9805 55.3125 30 55.3125C16.0195 55.3125 4.6875 43.9805 4.6875 30C4.6875 16.0195 16.0195 4.6875 30 4.6875ZM8.4375 30C8.4375 39.8766 15.0797 48.2039 24.1406 50.7562V46.8117C25.4625 47.0039 26.768 47.1117 27.8906 47.1703V51.4617C28.5844 51.5289 29.2875 51.5625 30 51.5625C30.5516 51.5625 31.0984 51.5422 31.6406 51.5016V47.1984C32.7891 47.1563 34.0828 47.0648 35.3906 46.882V50.8828C44.6906 48.4898 51.5625 40.0477 51.5625 30C51.5625 19.9523 44.6906 11.5102 35.3906 9.11719V13.3008C34.425 13.1672 33.2273 13.0664 31.6406 13.0266V8.49844C31.0984 8.45781 30.5516 8.4375 30 8.4375C29.2875 8.4375 28.5844 8.47109 27.8906 8.53828V13.0477C26.7539 13.0922 25.425 13.1813 24.1406 13.3594V9.24375C15.0797 11.7961 8.4375 20.1234 8.4375 30ZM22.7742 17.4258C24.9727 16.7156 28.4719 16.6406 30 16.6406C34.1555 16.6406 35.5875 17.0391 37.0312 17.4258C42.1383 18.6539 46.1484 23.5594 46.3922 29.4305C45.5227 29.8289 43.6992 30.5859 42.4031 30.5859C41.0133 30.5859 40.6102 28.9898 39.7687 27.3328C38.8594 25.5398 37.6805 23.6719 36.232 23.6719C33.3305 23.6719 31.2516 31.1719 30 31.1719C28.9242 31.1719 27.0914 23.6719 24.2789 23.6719C21.143 23.6719 19.9711 30.5555 17.0133 30.5555C15.8648 30.5555 14.407 29.8664 13.6078 29.393C13.8516 23.0953 17.9016 19.0008 22.7742 17.4258ZM37.0312 42.5719C34.643 43.2305 31.8563 43.357 30 43.357C28.4367 43.357 25.3336 43.2234 22.7742 42.5719C18.6023 41.5102 15.1359 38.2734 13.9945 33.4922C14.8781 33.9164 16.2539 34.4531 17.5313 34.4531C19.8773 34.4531 20.8125 33.2648 21.6328 31.9266C22.3125 30.8203 23.5195 28.7977 24.1219 28.7977C24.7125 28.7977 25.5047 30.3727 26.4562 32.2898C27.6516 34.6945 28.8586 35.5945 30 35.5945C31.4016 35.5945 32.3086 34.3008 33.4641 32.5852C34.2539 31.4133 35.2875 28.8281 36.1922 28.8281C36.9633 28.8281 37.5656 30.4758 38.3766 32.3297C39.143 34.0781 40.2 34.4531 41.993 34.4531C43.5094 34.4531 45.1055 33.9563 46.0359 33.5789C44.918 38.6273 41.3695 41.3742 37.0312 42.5719Z" fill="#FFEAAA"/>
</g>
<defs>
<clipPath id="clip0_9656_1056">
<rect width="60" height="60" fill="white"/>
</clipPath>
</defs>
</svg>
