<svg width="68" height="68" viewBox="0 0 68 68" fill="none" xmlns="http://www.w3.org/2000/svg">
<path d="M38.5078 34L51.125 21.3828C51.7238 20.785 52.0606 19.9739 52.0614 19.1278C52.0621 18.2817 51.7267 17.47 51.129 16.8711C50.5312 16.2723 49.7201 15.9355 48.874 15.9348C48.0279 15.934 47.2162 16.2694 46.6173 16.8672L34.0002 29.4844L21.383 16.8672C20.7842 16.2684 19.972 15.9319 19.1252 15.9319C18.2783 15.9319 17.4662 16.2684 16.8673 16.8672C16.2685 17.466 15.9321 18.2781 15.9321 19.125C15.9321 19.9718 16.2685 20.784 16.8673 21.3828L29.4845 34L16.8673 46.6172C16.2685 47.216 15.9321 48.0281 15.9321 48.875C15.9321 49.7218 16.2685 50.534 16.8673 51.1328C17.4662 51.7316 18.2783 52.068 19.1252 52.068C19.972 52.068 20.7842 51.7316 21.383 51.1328L34.0002 38.5156L46.6173 51.1328C47.2162 51.7316 48.0283 52.068 48.8752 52.068C49.722 52.068 50.5342 51.7316 51.133 51.1328C51.7318 50.534 52.0682 49.7218 52.0682 48.875C52.0682 48.0281 51.7318 47.216 51.133 46.6172L38.5078 34Z" fill="white"/>
</svg>
