<svg width="120" height="120" viewBox="0 0 120 120" fill="none" xmlns="http://www.w3.org/2000/svg">
<path d="M96.3501 26.65C89.7001 23.55 82.5001 21.3 75.0001 20C74.8682 20.0019 74.7424 20.0558 74.6501 20.15C73.7501 21.8 72.7001 23.95 72.0001 25.6C64.045 24.4008 55.9552 24.4008 48.0001 25.6C47.3001 23.9 46.2501 21.8 45.3001 20.15C45.2501 20.05 45.1001 20 44.9501 20C37.4501 21.3 30.3001 23.55 23.6001 26.65C23.5501 26.65 23.5001 26.7 23.4501 26.75C9.8501 47.1 6.1001 66.9 7.9501 86.5C7.9501 86.6 8.0001 86.7 8.1001 86.75C17.1001 93.35 25.7501 97.35 34.3001 100C34.4501 100.05 34.6001 100 34.6501 99.9C36.6501 97.15 38.4501 94.25 40.0001 91.2C40.1001 91 40.0001 90.8 39.8001 90.75C36.9501 89.65 34.2501 88.35 31.6001 86.85C31.4001 86.75 31.4001 86.45 31.5501 86.3C32.1001 85.9 32.6501 85.45 33.2001 85.05C33.3001 84.95 33.4501 84.95 33.5501 85C50.7501 92.85 69.3001 92.85 86.3001 85C86.4001 84.95 86.5501 84.95 86.6501 85.05C87.2001 85.5 87.7501 85.9 88.3001 86.35C88.5001 86.5 88.5001 86.8 88.2501 86.9C85.6501 88.45 82.9001 89.7 80.0501 90.8C79.8501 90.85 79.8001 91.1 79.8501 91.25C81.4501 94.3 83.2501 97.2 85.2001 99.95C85.3501 100 85.5001 100.05 85.6501 100C94.2501 97.35 102.9 93.35 111.9 86.75C112 86.7 112.05 86.6 112.05 86.5C114.25 63.85 108.4 44.2 96.5501 26.75C96.5001 26.7 96.4501 26.65 96.3501 26.65ZM42.6001 74.55C37.4501 74.55 33.1501 69.8 33.1501 63.95C33.1501 58.1 37.3501 53.35 42.6001 53.35C47.9001 53.35 52.1001 58.15 52.0501 63.95C52.0501 69.8 47.8501 74.55 42.6001 74.55ZM77.4501 74.55C72.3001 74.55 68.0001 69.8 68.0001 63.95C68.0001 58.1 72.2001 53.35 77.4501 53.35C82.7501 53.35 86.9501 58.15 86.9001 63.95C86.9001 69.8 82.7501 74.55 77.4501 74.55Z" fill="white"/>
</svg>
