<svg width="44" height="44" viewBox="0 0 44 44" fill="none" xmlns="http://www.w3.org/2000/svg">
<path d="M23.8333 5.5C24.3006 5.50052 24.7501 5.67945 25.0898 6.00022C25.4296 6.321 25.6341 6.75941 25.6615 7.22589C25.6889 7.69237 25.5371 8.1517 25.2372 8.51003C24.9373 8.86836 24.5118 9.09864 24.0478 9.15383L23.8333 9.16667H9.16667V34.8333H34.8333V20.1667C34.8339 19.6994 35.0128 19.2499 35.3336 18.9102C35.6543 18.5704 36.0927 18.3659 36.5592 18.3385C37.0257 18.3111 37.485 18.4629 37.8434 18.7628C38.2017 19.0627 38.432 19.4882 38.4872 19.9522L38.5 20.1667V34.8333C38.5003 35.7584 38.1509 36.6494 37.5219 37.3277C36.8929 38.006 36.0308 38.4215 35.1083 38.4908L34.8333 38.5H9.16667C8.24161 38.5003 7.35063 38.1509 6.67233 37.5219C5.99403 36.8929 5.57855 36.0308 5.50917 35.1083L5.5 34.8333V9.16667C5.49971 8.24161 5.84908 7.35063 6.47808 6.67233C7.10708 5.99403 7.96922 5.57855 8.89167 5.50917L9.16667 5.5H23.8333ZM35.2788 6.12883C35.6088 5.80003 36.0515 5.60913 36.517 5.59492C36.9826 5.5807 37.4361 5.74423 37.7855 6.05229C38.1349 6.36035 38.3539 6.78984 38.3981 7.25354C38.4422 7.71723 38.3083 8.18035 38.0233 8.54883L37.8712 8.723L19.7212 26.8712C19.3912 27.2 18.9485 27.3909 18.483 27.4051C18.0174 27.4193 17.5639 27.2558 17.2145 26.9477C16.8651 26.6397 16.6461 26.2102 16.6019 25.7465C16.5578 25.2828 16.6917 24.8197 16.9767 24.4512L17.1288 24.2788L35.2788 6.12883Z" fill="#333333"/>
</svg>
