<svg width="150" height="150" viewBox="0 0 150 150" fill="none" xmlns="http://www.w3.org/2000/svg">
<path d="M75 137.5C60.5208 133.854 48.5667 125.546 39.1375 112.575C29.7083 99.6042 24.9958 85.2042 25 69.375V31.25L75 12.5L125 31.25V69.375C125 70.4167 124.975 71.4583 124.925 72.5C124.875 73.5417 124.796 74.5833 124.688 75.625C123.75 75.4167 122.788 75.2604 121.8 75.1562C120.813 75.0521 119.796 75 118.75 75C117.604 75 116.51 75.0521 115.469 75.1562C114.427 75.2604 113.333 75.4167 112.188 75.625C112.292 74.5833 112.371 73.5687 112.425 72.5812C112.479 71.5937 112.504 70.525 112.5 69.375V39.8438L75 25.7812L37.5 39.8438V69.375C37.5 81.9792 41.0417 93.4375 48.125 103.75C55.2083 114.063 64.1667 120.937 75 124.375C77.1875 123.646 79.3229 122.76 81.4062 121.719C83.4896 120.677 85.5208 119.479 87.5 118.125V132.812C85.5208 133.854 83.4896 134.767 81.4062 135.55C79.3229 136.333 77.1875 136.983 75 137.5ZM105.313 137.5C103.854 137.5 102.604 136.979 101.562 135.938C100.521 134.896 100 133.646 100 132.187V111.563C100 110.104 100.521 108.854 101.562 107.812C102.604 106.771 103.854 106.25 105.313 106.25H106.25V100C106.25 96.5625 107.475 93.6208 109.925 91.175C112.375 88.7292 115.317 87.5042 118.75 87.5C122.183 87.4958 125.127 88.7208 127.581 91.175C130.035 93.6292 131.258 96.5708 131.25 100V106.25H132.187C133.646 106.25 134.896 106.771 135.938 107.812C136.979 108.854 137.5 110.104 137.5 111.563V132.187C137.5 133.646 136.979 134.896 135.938 135.938C134.896 136.979 133.646 137.5 132.187 137.5H105.313ZM112.5 106.25H125V100C125 98.2292 124.4 96.7458 123.2 95.55C122 94.3542 120.517 93.7542 118.75 93.75C116.983 93.7458 115.5 94.3458 114.3 95.55C113.1 96.7542 112.5 98.2375 112.5 100V106.25Z" fill="#EA2625"/>
</svg>
