<svg width="80" height="80" viewBox="0 0 80 80" fill="none" xmlns="http://www.w3.org/2000/svg">
<g clip-path="url(#clip0_4282_1525)">
<path d="M65.0003 75L60.0003 70L70.0003 60L60.0003 50L65.0003 45L80.0003 60L65.0003 75ZM26.667 70V63.3333H13.3337C11.5003 63.3333 9.93144 62.6811 8.62699 61.3767C7.32255 60.0722 6.66921 58.5022 6.66699 56.6667V16.6667C6.66699 14.8333 7.32033 13.2644 8.62699 11.96C9.93366 10.6556 11.5025 10.0022 13.3337 10H66.667C68.5003 10 70.0703 10.6533 71.377 11.96C72.6837 13.2667 73.3359 14.8356 73.3337 16.6667V40H56.667V63.3333H50.0003V70H26.667Z" fill="#4587F4"/>
</g>
<defs>
<clipPath id="clip0_4282_1525">
<rect width="80" height="80" fill="white"/>
</clipPath>
</defs>
</svg>
