<svg width="80" height="80" viewBox="0 0 80 80" fill="none" xmlns="http://www.w3.org/2000/svg">
<path d="M13 33.2H29.2M29.2 33.2V17M29.2 33.2L13 17M64.3 33.2V25.1C64.3 23.6678 63.7311 22.2943 62.7184 21.2816C61.7057 20.2689 60.3321 19.7 58.9 19.7H40M15.7 44V49.4C15.7 50.8322 16.2689 52.2057 17.2816 53.2184C18.2943 54.2311 19.6678 54.8 21.1 54.8H29.2" stroke="white" stroke-width="6" stroke-linecap="round" stroke-linejoin="round"/>
<path d="M64.3 44.001H42.7C41.2088 44.001 40 45.2098 40 46.701V60.201C40 61.6921 41.2088 62.901 42.7 62.901H64.3C65.7912 62.901 67 61.6921 67 60.201V46.701C67 45.2098 65.7912 44.001 64.3 44.001Z" stroke="white" stroke-width="6" stroke-linecap="round" stroke-linejoin="round"/>
</svg>
