<svg width="48" height="48" viewBox="0 0 48 48" fill="none" xmlns="http://www.w3.org/2000/svg">
<path fill-rule="evenodd" clip-rule="evenodd" d="M48 27.75C48 32.1 37.2544 35.625 24 35.625C10.7456 35.625 0 32.1 0 27.75V19.5C0 23.85 10.7456 27.375 24 27.375C37.2544 27.375 48 23.85 48 19.5V27.75Z" fill="#F89F22"/>
<path fill-rule="evenodd" clip-rule="evenodd" d="M48 39C48 43.35 37.2544 46.875 24 46.875C10.7456 46.875 0 43.35 0 39V30.75C0 35.1 10.7456 38.625 24 38.625C37.2544 38.625 48 35.1 48 30.75V39Z" fill="#F89F22"/>
<path d="M0 9H48V16.5H0V9ZM24 8.625C37.2544 8.625 48 12.15 48 16.5C48 20.85 37.2544 24.375 24 24.375C10.7456 24.375 0 20.85 0 16.5C0 12.15 10.7456 8.625 24 8.625Z" fill="#F89F22"/>
<path fill-rule="evenodd" clip-rule="evenodd" d="M24 1.125C37.2544 1.125 48 4.65 48 9C48 13.35 37.2544 16.875 24 16.875C10.7456 16.875 0 13.35 0 9C0 4.65 10.7456 1.125 24 1.125Z" fill="#F89F22"/>
<path fill-rule="evenodd" clip-rule="evenodd" d="M24 2.43945C36.1162 2.43945 45.9375 5.4207 45.9375 9.0957C45.9375 12.7726 36.1162 15.752 24 15.752C11.8837 15.752 2.0625 12.7726 2.0625 9.0957C2.0625 5.4207 11.8837 2.43945 24 2.43945ZM3.75 9.00008C3.75 11.657 10.3894 13.8826 19.3125 14.4713V13.1776C20.285 13.2351 21.285 13.2745 22.3125 13.2957V14.6026C22.8687 14.6151 23.4312 14.6213 24 14.6213C24.4412 14.6213 24.8787 14.6176 25.3125 14.6101V13.3013C26.3388 13.2851 27.3388 13.2507 28.3125 13.1982V14.4938C37.425 13.9445 44.25 11.6945 44.25 9.00008C44.25 6.3057 37.425 4.0557 28.3125 3.50633V4.80195C27.3388 4.74945 26.3388 4.71508 25.3125 4.69883V3.39008C24.8787 3.38258 24.4412 3.37883 24 3.37883C23.4312 3.37883 22.8687 3.38508 22.3125 3.39758V4.70445C21.285 4.7257 20.285 4.76508 19.3125 4.82258V3.52883C10.3894 4.11758 3.75 6.3432 3.75 9.00008ZM34.1025 8.07758C34.1025 9.10133 31.6125 9.9282 28.3125 10.0463C28.2225 10.0557 24.42 10.0463 19.5 10.0463L19.4925 11.882C19.4925 12.1576 18.8025 12.3732 17.9925 12.3732C17.1525 12.3732 16.4925 12.1576 16.4925 11.882V6.60945C16.4925 6.33383 17.16 6.10883 18 6.10883C18 6.10883 26.0625 6.10883 28.3125 6.10883C31.5525 6.1482 34.1025 7.02383 34.1025 8.07758ZM27.96 9.06195C29.6962 9.06195 31.0969 8.62133 31.1269 8.06258C31.0969 7.51508 29.6962 7.0932 27.96 7.0932H19.4981V9.06195H27.96Z" fill="#FFEAAA"/>
</svg>
