<svg width="80" height="80" viewBox="0 0 80 80" fill="none" xmlns="http://www.w3.org/2000/svg">
<path d="M36.6666 60.0001H43.3333V53.3334H36.6666V60.0001ZM40 6.66675C35.6226 6.66675 31.288 7.52894 27.2438 9.2041C23.1997 10.8793 19.525 13.3346 16.4297 16.4299C10.1785 22.6811 6.66663 31.1595 6.66663 40.0001C6.66663 48.8406 10.1785 57.3191 16.4297 63.5703C19.525 66.6656 23.1997 69.1209 27.2438 70.7961C31.288 72.4712 35.6226 73.3334 40 73.3334C48.8405 73.3334 57.319 69.8215 63.5702 63.5703C69.8214 57.3191 73.3333 48.8406 73.3333 40.0001C73.3333 35.6227 72.4711 31.2882 70.7959 27.244C69.1208 23.1998 66.6655 19.5251 63.5702 16.4299C60.4749 13.3346 56.8003 10.8793 52.7561 9.2041C48.7119 7.52894 44.3774 6.66675 40 6.66675ZM40 66.6667C25.3 66.6667 13.3333 54.7001 13.3333 40.0001C13.3333 25.3001 25.3 13.3334 40 13.3334C54.7 13.3334 66.6666 25.3001 66.6666 40.0001C66.6666 54.7001 54.7 66.6667 40 66.6667ZM40 20.0001C36.4637 20.0001 33.0724 21.4048 30.5719 23.9053C28.0714 26.4058 26.6666 29.7972 26.6666 33.3334H33.3333C33.3333 31.5653 34.0357 29.8696 35.2859 28.6194C36.5362 27.3691 38.2318 26.6667 40 26.6667C41.7681 26.6667 43.4638 27.3691 44.714 28.6194C45.9642 29.8696 46.6666 31.5653 46.6666 33.3334C46.6666 40.0001 36.6666 39.1667 36.6666 50.0001H43.3333C43.3333 42.5001 53.3333 41.6667 53.3333 33.3334C53.3333 29.7972 51.9285 26.4058 49.4281 23.9053C46.9276 21.4048 43.5362 20.0001 40 20.0001Z" fill="white"/>
</svg>
