<svg width="80" height="80" viewBox="0 0 80 80" fill="none" xmlns="http://www.w3.org/2000/svg">
<path d="M63.73 50.53H50.14C49.3444 50.53 48.5813 50.8461 48.0187 51.4087C47.4561 51.9713 47.14 52.7344 47.14 53.53C47.14 54.3256 47.4561 55.0887 48.0187 55.6513C48.5813 56.2139 49.3444 56.53 50.14 56.53H57.34C54.0308 59.9882 49.7632 62.3779 45.0855 63.3922C40.4078 64.4064 35.5336 63.9988 31.0893 62.2217C26.645 60.4447 22.8336 57.3793 20.1448 53.4195C17.4559 49.4597 16.0125 44.7864 16 40C16 39.2044 15.6839 38.4413 15.1213 37.8787C14.5587 37.3161 13.7956 37 13 37C12.2044 37 11.4413 37.3161 10.8787 37.8787C10.3161 38.4413 10 39.2044 10 40C10.0159 45.8584 11.7467 51.584 14.9788 56.4701C18.211 61.3562 22.803 65.1891 28.1882 67.4957C33.5735 69.8023 39.5162 70.4816 45.2831 69.4499C51.0499 68.4182 56.3885 65.7206 60.64 61.69V67C60.64 67.7957 60.9561 68.5587 61.5187 69.1213C62.0813 69.6839 62.8443 70 63.64 70C64.4356 70 65.1987 69.6839 65.7613 69.1213C66.3239 68.5587 66.64 67.7957 66.64 67V53.5C66.6326 52.7249 66.3255 51.9828 65.783 51.4291C65.2405 50.8754 64.5048 50.5532 63.73 50.53ZM40 10C32.3092 10.0219 24.9205 12.9967 19.36 18.31V13C19.36 12.2044 19.0439 11.4413 18.4813 10.8787C17.9187 10.3161 17.1556 10 16.36 10C15.5644 10 14.8013 10.3161 14.2387 10.8787C13.6761 11.4413 13.36 12.2044 13.36 13V26.5C13.36 27.2956 13.6761 28.0587 14.2387 28.6213C14.8013 29.1839 15.5644 29.5 16.36 29.5H29.86C30.6556 29.5 31.4187 29.1839 31.9813 28.6213C32.5439 28.0587 32.86 27.2956 32.86 26.5C32.86 25.7044 32.5439 24.9413 31.9813 24.3787C31.4187 23.8161 30.6556 23.5 29.86 23.5H22.66C25.9674 20.0436 30.2323 17.6545 34.9072 16.6393C39.5821 15.6241 44.4538 16.0292 48.8968 17.8026C53.3399 19.5759 57.1516 22.6366 59.8427 26.5918C62.5338 30.547 63.9815 35.2162 64 40C64 40.7956 64.3161 41.5587 64.8787 42.1213C65.4413 42.6839 66.2043 43 67 43C67.7957 43 68.5587 42.6839 69.1213 42.1213C69.6839 41.5587 70 40.7956 70 40C70 36.0603 69.224 32.1593 67.7164 28.5195C66.2087 24.8797 63.999 21.5726 61.2132 18.7868C58.4274 16.001 55.1203 13.7913 51.4805 12.2836C47.8407 10.776 43.9397 10 40 10Z" fill="black"/>
</svg>
