<svg width="44" height="44" viewBox="0 0 44 44" fill="none" xmlns="http://www.w3.org/2000/svg">
<path d="M36.6668 15.9492H7.3335C6.96882 15.9492 6.61909 15.8044 6.36122 15.5465C6.10336 15.2886 5.9585 14.9389 5.9585 14.5742C5.9585 14.2095 6.10336 13.8598 6.36122 13.6019C6.61909 13.3441 6.96882 13.1992 7.3335 13.1992H36.6668C37.0315 13.1992 37.3812 13.3441 37.6391 13.6019C37.897 13.8598 38.0418 14.2095 38.0418 14.5742C38.0418 14.9389 37.897 15.2886 37.6391 15.5465C37.3812 15.8044 37.0315 15.9492 36.6668 15.9492Z" fill="#FF0000"/>
<path d="M30.1398 38.0424H13.8598C13.2788 38.0821 12.6957 38.0061 12.1443 37.8188C11.5929 37.6315 11.0842 37.3366 10.6476 36.9511C10.211 36.5657 9.85532 36.0975 9.60107 35.5736C9.34683 35.0496 9.19912 34.4805 9.1665 33.899V14.6674C9.1665 14.3027 9.31137 13.953 9.56923 13.6951C9.82709 13.4372 10.1768 13.2924 10.5415 13.2924C10.9062 13.2924 11.2559 13.4372 11.5138 13.6951C11.7716 13.953 11.9165 14.3027 11.9165 14.6674V33.899C11.9165 34.6507 12.7782 35.2924 13.7498 35.2924H30.0298C31.0565 35.2924 31.8632 34.6507 31.8632 33.899V14.6674C31.8632 14.2735 32.0196 13.8958 32.2981 13.6173C32.5766 13.3388 32.9543 13.1824 33.3482 13.1824C33.742 13.1824 34.1197 13.3388 34.3982 13.6173C34.6767 13.8958 34.8332 14.2735 34.8332 14.6674V33.899C34.8006 34.4805 34.6528 35.0496 34.3986 35.5736C34.1444 36.0975 33.7886 36.5657 33.3521 36.9511C32.9155 37.3366 32.4068 37.6315 31.8553 37.8188C31.3039 38.0061 30.7208 38.0821 30.1398 38.0424ZM30.3598 14.209C30.1786 14.2115 29.9987 14.1776 29.8307 14.1094C29.6628 14.0412 29.5102 13.94 29.3821 13.8118C29.2539 13.6836 29.1527 13.5311 29.0845 13.3631C29.0163 13.1952 28.9824 13.0153 28.9848 12.834V10.1024C28.9848 9.35069 28.1048 8.70903 27.1515 8.70903H16.9032C15.8948 8.70903 15.0698 9.35069 15.0698 10.1024V12.834C15.0698 13.1987 14.925 13.5484 14.6671 13.8063C14.4092 14.0642 14.0595 14.209 13.6948 14.209C13.3302 14.209 12.9804 14.0642 12.7226 13.8063C12.4647 13.5484 12.3198 13.1987 12.3198 12.834V10.1024C12.3908 8.94976 12.9102 7.87076 13.7669 7.09636C14.6235 6.32197 15.7493 5.91372 16.9032 5.95903H27.0965C28.2597 5.89887 29.3995 6.30043 30.2682 7.07636C31.1368 7.85228 31.6639 8.9398 31.7348 10.1024V12.834C31.7373 13.0161 31.7035 13.1969 31.6355 13.3658C31.5675 13.5348 31.4666 13.6885 31.3386 13.8182C31.2107 13.9478 31.0583 14.0507 30.8903 14.121C30.7223 14.1912 30.542 14.2274 30.3598 14.2274V14.209Z" fill="#FF0000"/>
<path d="M18.7368 31.1663C18.3736 31.1616 18.0266 31.0152 17.7698 30.7583C17.513 30.5015 17.3666 30.1545 17.3618 29.7913V21.4863C17.3618 21.1217 17.5067 20.7719 17.7645 20.5141C18.0224 20.2562 18.3721 20.1113 18.7368 20.1113C19.1015 20.1113 19.4512 20.2562 19.7091 20.5141C19.967 20.7719 20.1118 21.1217 20.1118 21.4863V29.773C20.1142 29.9551 20.0805 30.1359 20.0125 30.3048C19.9444 30.4738 19.8435 30.6275 19.7156 30.7571C19.5877 30.8868 19.4353 30.9897 19.2673 31.0599C19.0992 31.1302 18.9189 31.1663 18.7368 31.1663ZM25.2635 31.1663C24.8988 31.1663 24.5491 31.0215 24.2912 30.7636C24.0333 30.5057 23.8885 30.156 23.8885 29.7913V21.4863C23.8885 21.1217 24.0333 20.7719 24.2912 20.5141C24.5491 20.2562 24.8988 20.1113 25.2635 20.1113C25.6282 20.1113 25.9779 20.2562 26.2358 20.5141C26.4936 20.7719 26.6385 21.1217 26.6385 21.4863V29.773C26.6385 30.1394 26.4942 30.491 26.2369 30.7518C25.9795 31.0126 25.6298 31.1615 25.2635 31.1663Z" fill="#FF0000"/>
</svg>
