<svg width="117" height="118" viewBox="0 0 117 118" fill="none" xmlns="http://www.w3.org/2000/svg">
<path d="M58.2 0.875C26.0492 0.875 0 26.8906 0 59C0 91.1094 26.0492 117.125 58.2 117.125C90.3508 117.125 116.4 91.1094 116.4 59C116.4 26.8906 90.3508 0.875 58.2 0.875ZM86.7837 40.6953L77.2323 85.6484C76.5283 88.8359 74.6274 89.6094 71.9756 88.1094L57.4256 77.3984L50.4087 84.1484C49.6343 84.9219 48.9772 85.5781 47.4752 85.5781L48.5078 70.7891L75.4723 46.4609C76.6456 45.4297 75.2141 44.8438 73.6652 45.875L40.341 66.8281L25.9788 62.3516C22.8576 61.3672 22.7872 59.2344 26.6359 57.7344L82.7473 36.125C85.3522 35.1875 87.6285 36.7578 86.7837 40.6953Z" fill="white"/>
</svg>
