<svg width="160" height="160" viewBox="0 0 160 160" fill="none" xmlns="http://www.w3.org/2000/svg">
<path d="M141.14 102.653L101.726 36.9601C96.553 28.3401 88.6397 23.4067 79.9997 23.4067C71.3597 23.4067 63.4464 28.3401 58.273 36.9467L18.8597 102.653C13.6197 111.38 13.0464 120.687 17.293 128.187C21.533 135.693 29.813 140 39.9997 140H120C130.186 140 138.466 135.693 142.706 128.193C146.946 120.693 146.38 111.387 141.14 102.653ZM79.9997 116.993C74.3064 116.993 69.6664 112.36 69.6664 106.667C69.6664 100.967 74.2997 96.3267 79.9997 96.3267C85.6997 96.3267 90.333 100.967 90.333 106.667C90.333 112.36 85.693 116.993 79.9997 116.993ZM90.8864 67.5001C90.813 67.7067 81.5464 90.6201 81.5464 90.6201C81.293 91.2467 80.6797 91.6601 80.0064 91.6601C79.333 91.6601 78.7197 91.2467 78.4664 90.6201L69.193 67.7001C68.6366 66.3109 68.3449 64.8299 68.333 63.3334C68.333 56.9001 73.5664 51.6667 79.9997 51.6667C81.8892 51.6716 83.7492 52.1347 85.4203 53.0165C87.0915 53.8982 88.5237 55.1722 89.5942 56.7291C90.6648 58.2861 91.3416 60.0795 91.5666 61.9555C91.7917 63.8315 91.5583 65.7341 90.8864 67.5001Z" fill="#EB2B00"/>
</svg>
