<svg width="60" height="60" viewBox="0 0 60 60" fill="none" xmlns="http://www.w3.org/2000/svg">
<path d="M36.35 57.5H17.5C16.1739 57.5 14.9021 56.9732 13.9645 56.0355C13.0268 55.0979 12.5 53.8261 12.5 52.5V7.5C12.5 4.725 14.725 2.5 17.5 2.5H42.5C43.8261 2.5 45.0979 3.02678 46.0355 3.96447C46.9732 4.90215 47.5 6.17392 47.5 7.5V32.5C45.75 32.5 44.075 32.825 42.5 33.375V12.5H17.5V47.5H32.5C32.5 51.35 33.95 54.85 36.35 57.5ZM44.375 55.4L37.5 47.9L40.4 45L44.375 48.975L53.35 40L56.25 43.525L44.375 55.4Z" fill="white"/>
</svg>
