<svg width="68" height="68" viewBox="0 0 68 68" fill="none" xmlns="http://www.w3.org/2000/svg">
<path d="M60.0469 27.7893C45.662 13.4044 22.3409 13.4044 7.95603 27.7893L5.95287 29.7924L1.94653 25.7833L3.9497 23.7801C20.5474 7.18528 47.4555 7.18528 64.0532 23.7801L66.0564 25.7833L62.05 29.7924L60.0469 27.7893ZM47.022 40.8113C43.5683 37.3578 38.8842 35.4177 34 35.4177C29.1159 35.4177 24.4318 37.3578 20.978 40.8113L18.9749 42.8144L14.9685 38.8081L16.9717 36.8049C21.4881 32.2891 27.6133 29.7523 34 29.7523C40.3868 29.7523 46.512 32.2891 51.0284 36.8049L53.0344 38.8081L49.0252 42.8144L47.022 40.8113ZM29.9937 49.8269C30.5199 49.3005 31.1447 48.8829 31.8324 48.598C32.52 48.3131 33.2571 48.1664 34.0014 48.1664C34.7458 48.1664 35.4829 48.3131 36.1705 48.598C36.8582 48.8829 37.483 49.3005 38.0092 49.8269L40.0124 51.8301L34 57.8396L27.9934 51.8301L29.9937 49.8269Z" fill="white"/>
</svg>
