<svg width="120" height="120" viewBox="0 0 120 120" fill="none" xmlns="http://www.w3.org/2000/svg">
<path d="M60 105C54.4533 105 49.2567 103.957 44.41 101.87C39.5633 99.7835 35.3267 96.9269 31.7 93.3002C28.0733 89.6735 25.2167 85.4369 23.13 80.5902C21.0433 75.7435 20 70.5469 20 65.0002C20 59.4535 21.0433 54.2569 23.13 49.4102C25.2167 44.5635 28.0733 40.3269 31.7 36.7002C35.3267 33.0735 39.5633 30.2169 44.41 28.1302C49.2567 26.0435 54.4533 25.0002 60 25.0002H61.9L53.58 16.6702L57.115 13.0752L71.54 27.4052L57.31 41.7302L53.77 38.1352L61.9 30.0002H60C50.25 30.0002 41.98 33.3969 35.19 40.1902C28.4 46.9835 25.0033 55.2535 25 65.0002C24.9967 74.7469 28.3933 83.0185 35.19 89.8152C41.9867 96.6119 50.2567 100.007 60 100C69.7433 99.9935 78.015 96.5985 84.815 89.8152C91.615 83.0319 95.01 74.7602 95 65.0002H100C100 70.5469 98.9567 75.7435 96.87 80.5902C94.7833 85.4369 91.9267 89.6752 88.3 93.3052C84.6733 96.9352 80.4367 99.7902 75.59 101.87C70.7433 103.95 65.5467 104.994 60 105Z" fill="white"/>
<path d="M68.2592 64.6057C67.7081 64.6057 67.2311 64.6746 66.8284 64.8124C66.1183 65.0668 65.583 65.5384 65.2227 66.2273L61.1528 66.0366L62.7744 53.3022H75.4769V57.1496H66.0494L65.2227 62.1892C65.9222 61.7335 66.468 61.4314 66.8602 61.2831C67.5173 61.0393 68.3175 60.9174 69.2608 60.9174C71.1685 60.9174 72.8325 61.5586 74.2528 62.8411C75.673 64.1235 76.3831 65.9889 76.3831 68.4372C76.3831 70.5675 75.6995 72.47 74.3322 74.1445C72.965 75.8191 70.9195 76.6564 68.1956 76.6564C66.0017 76.6564 64.1999 76.0682 62.7903 74.8918C61.3807 73.7153 60.5964 72.046 60.4374 69.8839H64.9524C65.1326 70.8696 65.477 71.6327 65.9858 72.1732C66.4945 72.7031 67.2364 72.9681 68.2115 72.9681C69.335 72.9681 70.1882 72.5759 70.7711 71.7916C71.3646 70.9967 71.6614 70.0005 71.6614 68.8028C71.6614 67.6264 71.3858 66.6354 70.8347 65.8299C70.2836 65.0138 69.4251 64.6057 68.2592 64.6057Z" fill="white"/>
<path d="M53.7761 76.0521H49.1339V60.1541H43.7126V57.0699C45.1435 57.0063 46.145 56.9109 46.7174 56.7837C47.6289 56.5824 48.3708 56.1796 48.9431 55.5755C49.3352 55.1621 49.632 54.611 49.8334 53.9221C49.95 53.5087 50.0083 53.2014 50.0083 53H53.7761V76.0521Z" fill="white"/>
</svg>
