<svg width="52" height="52" viewBox="0 0 52 52" fill="none" xmlns="http://www.w3.org/2000/svg">
<path d="M36.5625 48.75C33.4262 48.75 30.875 46.1988 30.875 43.0625C30.875 41.5431 31.4665 40.1164 32.539 39.0423L34.8384 41.34C34.4218 41.8051 34.1993 42.412 34.2166 43.0361C34.2339 43.6602 34.4897 44.254 34.9313 44.6952C35.373 45.1365 35.967 45.3917 36.5911 45.4084C37.2152 45.4251 37.822 45.202 38.2866 44.785L46.4116 36.66C46.8315 36.1954 47.0566 35.5871 47.0405 34.9611C47.0245 34.335 46.7684 33.7391 46.3252 33.2966C45.8821 32.8541 45.2859 32.5989 44.6598 32.5837C44.0338 32.5685 43.4258 32.7945 42.9618 33.215L40.6624 30.9189C41.1896 30.3884 41.8168 29.9677 42.5077 29.6812C43.1987 29.3947 43.9395 29.2482 44.6875 29.25C47.8237 29.25 50.375 31.8013 50.375 34.9375C50.375 36.4569 49.7835 37.8853 48.7094 38.9594L40.5844 47.0844C40.0573 47.614 39.4305 48.0338 38.7401 48.3197C38.0498 48.6056 37.3097 48.7519 36.5625 48.75Z" fill="white"/>
<path d="M26.8125 50.375C23.6763 50.375 21.125 47.8238 21.125 44.6875C21.125 43.1681 21.7165 41.7398 22.7906 40.6656L30.9156 32.5406C31.4427 32.0111 32.0695 31.5912 32.7599 31.3053C33.4502 31.0194 34.1903 30.8732 34.9375 30.875C38.0737 30.875 40.625 33.4263 40.625 36.5625C40.625 38.0819 40.0335 39.5086 38.961 40.5828L36.66 38.285C37.0766 37.82 37.2991 37.213 37.2818 36.5889C37.2645 35.9648 37.0087 35.3711 36.567 34.9298C36.1254 34.4885 35.5314 34.2333 34.9073 34.2166C34.2832 34.1999 33.6764 34.423 33.2118 34.84L25.0868 42.965C24.6669 43.4297 24.4418 44.0379 24.4578 44.664C24.4739 45.29 24.73 45.8859 25.1731 46.3284C25.6163 46.7709 26.2125 47.0261 26.8386 47.0413C27.4646 47.0565 28.0726 46.8305 28.5366 46.41L30.836 48.7061C30.309 49.2365 29.682 49.657 28.9914 49.9435C28.3008 50.23 27.5602 50.3766 26.8125 50.375ZM26 3.25C17.3907 3.25 8.125 5.2845 8.125 9.75V39C8.125 41.73 11.5928 43.5468 16.25 44.5494V41.2246C13.0097 40.456 11.4644 39.3673 11.375 39V33.1955C13.8028 34.4126 17.3453 35.1699 21.125 35.5193V32.2725C14.8232 31.6599 11.5749 29.9618 11.375 29.25V23.4455C14.833 25.1794 20.5449 26 26 26C34.6092 26 43.875 23.9655 43.875 19.5V9.75C43.875 5.2845 34.6092 3.25 26 3.25ZM11.3734 9.77438C11.6188 8.8725 16.4921 6.5 26 6.5C35.4217 6.5 40.2919 8.83025 40.6201 9.75C40.2919 10.6698 35.4201 13 26 13C16.4938 13 11.6188 10.6275 11.3734 9.77438ZM40.625 19.4789C40.365 20.384 35.4916 22.75 26 22.75C16.4938 22.75 11.6188 20.3775 11.375 19.5V13.6955C14.833 15.4294 20.5449 16.25 26 16.25C31.4551 16.25 37.167 15.4294 40.625 13.6955V19.4789Z" fill="white"/>
</svg>
