<svg width="60" height="60" viewBox="0 0 60 60" fill="none" xmlns="http://www.w3.org/2000/svg">
<path d="M22.925 10.0003C23.4415 8.53643 24.3993 7.26885 25.6665 6.37224C26.9336 5.47563 28.4477 4.99414 30 4.99414C31.5523 4.99414 33.0663 5.47563 34.3335 6.37224C35.6007 7.26885 36.5585 8.53643 37.075 10.0003M51.25 15.0003H8.75M47.0825 22.6139L45.9325 38.5003C45.49 45.1353 45.27 48.4528 43.1075 50.4753C40.945 52.5003 37.6175 52.5003 30.9675 52.5003H29.0325C22.3825 52.5003 19.055 52.5003 16.8925 50.4753C14.73 48.4528 14.5075 45.1353 14.0675 38.5003L12.9175 22.6139M23.75 27.5003L25 40.0003M36.25 27.5003L35 40.0003" stroke="white" stroke-width="4" stroke-linecap="round"/>
</svg>
