<svg width="68" height="68" viewBox="0 0 68 68" fill="none" xmlns="http://www.w3.org/2000/svg">
<path d="M9.17464 31.9904C9.17464 19.2259 20.2899 8.87713 34 8.87713C47.7101 8.87713 58.8254 19.2259 58.8254 31.9904V37.0151H50.1905C49.618 37.0151 49.0689 37.2268 48.6641 37.6037C48.2592 37.9807 48.0318 38.4919 48.0318 39.0249V59.1234C48.0318 59.6565 48.2592 60.1677 48.6641 60.5446C49.0689 60.9215 49.618 61.1333 50.1905 61.1333H53.4286C56.005 61.1333 58.4759 60.1804 60.2976 58.4843C62.1194 56.7881 63.1429 54.4877 63.1429 52.089V31.9904C63.1429 17.005 50.0955 4.85742 34 4.85742C17.9045 4.85742 4.85718 17.005 4.85718 31.9904V52.089C4.85718 54.4877 5.88064 56.7881 7.70243 58.4843C9.52421 60.1804 11.9951 61.1333 14.5715 61.1333H17.8096C18.3821 61.1333 18.9312 60.9215 19.336 60.5446C19.7409 60.1677 19.9683 59.6565 19.9683 59.1234V39.0249C19.9683 38.4919 19.7409 37.9807 19.336 37.6037C18.9312 37.2268 18.3821 37.0151 17.8096 37.0151H9.17464V31.9904ZM52.3492 41.0348H58.8254V52.089C58.8254 53.4216 58.2568 54.6996 57.2447 55.6419C56.2326 56.5842 54.8599 57.1136 53.4286 57.1136H52.3492V41.0348ZM9.17464 41.0348H15.6508V57.1136H14.5715C13.1401 57.1136 11.7674 56.5842 10.7553 55.6419C9.74323 54.6996 9.17464 53.4216 9.17464 52.089V41.0348ZM36.1588 35.0052C36.1588 34.4722 35.9313 33.9609 35.5265 33.584C35.1217 33.2071 34.5726 32.9954 34 32.9954C33.4275 32.9954 32.8784 33.2071 32.4736 33.584C32.0687 33.9609 31.8413 34.4722 31.8413 35.0052V61.1333C31.8413 61.6663 32.0687 62.1776 32.4736 62.5545C32.8784 62.9314 33.4275 63.1431 34 63.1431C34.5726 63.1431 35.1217 62.9314 35.5265 62.5545C35.9313 62.1776 36.1588 61.6663 36.1588 61.1333V35.0052ZM26.4445 41.0348C27.017 41.0348 27.5661 41.2465 27.9709 41.6234C28.3758 42.0004 28.6032 42.5116 28.6032 43.0446V53.0939C28.6032 53.6269 28.3758 54.1381 27.9709 54.5151C27.5661 54.892 27.017 55.1037 26.4445 55.1037C25.872 55.1037 25.3229 54.892 24.918 54.5151C24.5132 54.1381 24.2857 53.6269 24.2857 53.0939V43.0446C24.2857 42.5116 24.5132 42.0004 24.918 41.6234C25.3229 41.2465 25.872 41.0348 26.4445 41.0348ZM43.7143 43.0446C43.7143 42.5116 43.4869 42.0004 43.082 41.6234C42.6772 41.2465 42.1281 41.0348 41.5556 41.0348C40.9831 41.0348 40.434 41.2465 40.0291 41.6234C39.6243 42.0004 39.3969 42.5116 39.3969 43.0446V53.0939C39.3969 53.6269 39.6243 54.1381 40.0291 54.5151C40.434 54.892 40.9831 55.1037 41.5556 55.1037C42.1281 55.1037 42.6772 54.892 43.082 54.5151C43.4869 54.1381 43.7143 53.6269 43.7143 53.0939V43.0446Z" fill="white"/>
</svg>
