<svg width="68" height="68" viewBox="0 0 68 68" fill="none" xmlns="http://www.w3.org/2000/svg">
<path d="M8.06836 27.4745H23.6273M23.6273 27.4745V11.9155M23.6273 27.4745L8.06836 11.9155M57.3385 27.4745V19.695C57.3385 18.3195 56.792 17.0004 55.8194 16.0277C54.8468 15.0551 53.5276 14.5087 52.1521 14.5087H34M10.6615 37.8472V43.0335C10.6615 44.409 11.2079 45.7281 12.1806 46.7008C13.1532 47.6734 14.4723 48.2198 15.8478 48.2198H23.6273" stroke="white" stroke-width="6" stroke-linecap="round" stroke-linejoin="round"/>
<path d="M57.3385 37.8477H36.5932C35.161 37.8477 34 39.0087 34 40.4408V53.4066C34 54.8388 35.161 55.9998 36.5932 55.9998H57.3385C58.7706 55.9998 59.9316 54.8388 59.9316 53.4066V40.4408C59.9316 39.0087 58.7706 37.8477 57.3385 37.8477Z" stroke="white" stroke-width="6" stroke-linecap="round" stroke-linejoin="round"/>
</svg>
