<svg width="68" height="68" viewBox="0 0 68 68" fill="none" xmlns="http://www.w3.org/2000/svg">
<path d="M39.1567 39.6665H27.37C27.0867 37.7965 26.9167 35.9265 26.9167 33.9998C26.9167 32.0732 27.0867 30.1748 27.37 28.3332H40.63C40.885 30.1748 41.0834 32.0732 41.0834 33.9998C41.0834 35.4165 40.97 36.8332 40.8 38.1365C42.5 36.7198 44.54 35.6148 46.75 34.9065V33.9998C46.75 32.0732 46.58 30.2032 46.3534 28.3332H55.93C56.3834 30.1465 56.6667 32.0448 56.6667 33.9998V34.5098C58.65 34.9915 60.4917 35.7848 62.1917 36.8332C62.3334 35.9265 62.3334 34.9632 62.3334 33.9998C62.3334 18.4165 49.5834 5.6665 34 5.6665C18.3317 5.6665 5.66669 18.4165 5.66669 33.9998C5.66669 49.5832 18.4167 62.3332 34 62.3332C34.9634 62.3332 35.9267 62.3332 36.8334 62.1915C35.6717 60.3215 34.8217 58.2248 34.3684 55.9582C34.255 56.1565 34.1417 56.3548 34 56.5532C31.6484 53.1532 29.75 49.3848 28.5884 45.3332H35.4167C36.295 43.2082 37.57 41.3098 39.1567 39.6665ZM53.6067 22.6665H45.2484C44.3602 19.1577 43.0472 15.7705 41.3384 12.5798C46.5517 14.3648 50.8867 17.9632 53.6067 22.6665ZM34 11.4182C36.3517 14.8182 38.25 18.6148 39.4117 22.6665H28.5884C29.75 18.6148 31.6484 14.8182 34 11.4182ZM12.07 39.6665C11.6167 37.8532 11.3334 35.9548 11.3334 33.9998C11.3334 32.0448 11.6167 30.1465 12.07 28.3332H21.6467C21.42 30.2032 21.25 32.0732 21.25 33.9998C21.25 35.9265 21.42 37.7965 21.6467 39.6665H12.07ZM14.3934 45.3332H22.6667C23.6584 48.8748 24.9334 52.2748 26.6334 55.4198C21.4718 53.6414 17.1255 50.0597 14.3934 45.3332ZM22.6667 22.6665H14.3934C17.1095 17.9264 21.4616 14.34 26.6334 12.5798C24.9334 15.7248 23.6584 19.1248 22.6667 22.6665ZM59.0184 44.3982L62.3334 41.0832V52.4165H51L56.015 47.4015C54.9945 46.3806 53.6865 45.6959 52.2661 45.439C50.8457 45.1821 49.3807 45.3653 48.0673 45.9641C46.7539 46.5628 45.6547 47.5485 44.917 48.7892C44.1793 50.0299 43.8383 51.4664 43.9396 52.9063C44.0409 54.3462 44.5796 55.7207 45.4837 56.846C46.3878 57.9712 47.6141 58.7933 48.9984 59.2023C50.3827 59.6113 51.8589 59.5876 53.2294 59.1344C54.5999 58.6812 55.7991 57.8202 56.6667 56.6665H61.5117C60.668 58.7624 59.2156 60.5574 57.342 61.82C55.4683 63.0825 53.2594 63.7547 51 63.7498C44.7384 63.7498 39.6667 58.6782 39.6667 52.4165C39.6667 46.1548 44.7384 41.0832 51 41.0832C54.145 41.0832 56.9784 42.3582 59.0184 44.3982Z" fill="white"/>
</svg>
