<svg width="68" height="68" viewBox="0 0 68 68" fill="none" xmlns="http://www.w3.org/2000/svg">
<path d="M34.0001 62.3337C30.1279 62.3337 26.4681 61.5894 23.0209 60.101C19.5737 58.6125 16.5637 56.582 13.9911 54.0093C11.4184 51.4367 9.38786 48.4267 7.89942 44.9795C6.41097 41.5323 5.66675 37.8726 5.66675 34.0003C5.66675 30.0809 6.41097 26.4098 7.89942 22.9872C9.38786 19.5645 11.4184 16.5659 13.9911 13.9913C16.5637 11.4168 19.5737 9.38621 23.0209 7.89966C26.4681 6.4131 30.1279 5.66888 34.0001 5.66699C37.9195 5.66699 41.5915 6.41121 45.0161 7.89966C48.4406 9.3881 51.4383 11.4187 54.0091 13.9913C56.5799 16.564 58.6104 19.5626 60.1007 22.9872C61.5911 26.4117 62.3353 30.0828 62.3334 34.0003C62.3334 37.8726 61.5892 41.5323 60.1007 44.9795C58.6123 48.4267 56.5817 51.4376 54.0091 54.0122C51.4364 56.5867 48.4378 58.6173 45.0132 60.1038C41.5887 61.5904 37.9176 62.3337 34.0001 62.3337ZM34.0001 56.5253C35.2279 54.8253 36.2904 53.0545 37.1876 51.2128C38.0848 49.3712 38.8167 47.4114 39.3834 45.3337H28.6167C29.1834 47.4114 29.9154 49.3712 30.8126 51.2128C31.7098 53.0545 32.7723 54.8253 34.0001 56.5253ZM26.6334 55.392C25.7834 53.8337 25.0401 52.2158 24.4036 50.5385C23.767 48.8612 23.2353 47.1262 22.8084 45.3337H14.4501C15.8195 47.6948 17.5318 49.7489 19.5869 51.4962C21.642 53.2434 23.9909 54.542 26.6334 55.392ZM41.3667 55.392C44.0112 54.542 46.361 53.2434 48.4161 51.4962C50.4712 49.7489 52.1825 47.6948 53.5501 45.3337H45.1917C44.7667 47.1281 44.236 48.864 43.5994 50.5413C42.9629 52.2187 42.2186 53.8355 41.3667 55.392ZM12.0417 39.667H21.6751C21.5334 38.7225 21.4276 37.7904 21.3577 36.8705C21.2879 35.9506 21.252 34.9939 21.2501 34.0003C21.2482 33.0068 21.2841 32.051 21.3577 31.133C21.4314 30.215 21.5372 29.2819 21.6751 28.3337H12.0417C11.8056 29.2781 11.629 30.2112 11.5119 31.133C11.3948 32.0548 11.3353 33.0105 11.3334 34.0003C11.3315 34.9901 11.391 35.9468 11.5119 36.8705C11.6328 37.7942 11.8094 38.7263 12.0417 39.667ZM27.3417 39.667H40.6584C40.8001 38.7225 40.9068 37.7904 40.9786 36.8705C41.0504 35.9506 41.0853 34.9939 41.0834 34.0003C41.0815 33.0068 41.0456 32.051 40.9757 31.133C40.9059 30.215 40.8001 29.2819 40.6584 28.3337H27.3417C27.2001 29.2781 27.0943 30.2112 27.0244 31.133C26.9545 32.0548 26.9186 33.0105 26.9167 34.0003C26.9149 34.9901 26.9507 35.9468 27.0244 36.8705C27.0981 37.7942 27.2039 38.7263 27.3417 39.667ZM46.3251 39.667H55.9584C56.1945 38.7225 56.3721 37.7904 56.4911 36.8705C56.6101 35.9506 56.6686 34.9939 56.6667 34.0003C56.6649 33.0068 56.6063 32.051 56.4911 31.133C56.3759 30.215 56.1983 29.2819 55.9584 28.3337H46.3251C46.4667 29.2781 46.5735 30.2112 46.6452 31.133C46.717 32.0548 46.752 33.0105 46.7501 34.0003C46.7482 34.9901 46.7123 35.9468 46.6424 36.8705C46.5725 37.7942 46.4667 38.7263 46.3251 39.667ZM45.1917 22.667H53.5501C52.1806 20.3059 50.4693 18.2517 48.4161 16.5045C46.3629 14.7573 44.0131 13.4587 41.3667 12.6087C42.2167 14.167 42.961 15.7848 43.5994 17.4622C44.2379 19.1395 44.7686 20.8744 45.1917 22.667ZM28.6167 22.667H39.3834C38.8167 20.5892 38.0848 18.6295 37.1876 16.7878C36.2904 14.9462 35.2279 13.1753 34.0001 11.4753C32.7723 13.1753 31.7098 14.9462 30.8126 16.7878C29.9154 18.6295 29.1834 20.5892 28.6167 22.667ZM14.4501 22.667H22.8084C23.2334 20.8725 23.7651 19.1367 24.4036 17.4593C25.042 15.782 25.7853 14.1651 26.6334 12.6087C23.989 13.4587 21.6392 14.7573 19.5841 16.5045C17.529 18.2517 15.8176 20.3059 14.4501 22.667Z" fill="white"/>
</svg>
