<svg width="48" height="48" viewBox="0 0 48 48" fill="none" xmlns="http://www.w3.org/2000/svg">
<path d="M28.3399 41.7799C36.7079 41.2259 43.3719 34.4659 43.9199 25.9799C44.0259 24.3199 44.0259 22.5999 43.9199 20.9399C43.3719 12.4559 36.7079 5.69987 28.3399 5.14187C25.4497 4.95141 22.5501 4.95141 19.6599 5.14187C11.2919 5.69787 4.62795 12.4559 4.07995 20.9419C3.974 22.6202 3.974 24.3035 4.07995 25.9819C4.27995 29.0719 5.64595 31.9339 7.25595 34.3499C8.18995 36.0399 7.57395 38.1499 6.59995 39.9959C5.89995 41.3259 5.54795 41.9899 5.82995 42.4699C6.10995 42.9499 6.73995 42.9659 7.99795 42.9959C10.4879 43.0559 12.1659 42.3519 13.4979 41.3699C14.2519 40.8119 14.6299 40.5339 14.8899 40.5019C15.1499 40.4699 15.6639 40.6819 16.6879 41.1019C17.6079 41.4819 18.6779 41.7159 19.6579 41.7819C22.5079 41.9699 25.4859 41.9699 28.3419 41.7819" stroke="#EA2625" stroke-width="3" stroke-linecap="round" stroke-linejoin="round"/>
<path d="M15 30L18.684 18.948C18.7765 18.6722 18.9533 18.4324 19.1894 18.2625C19.4256 18.0926 19.7091 18.0012 20 18.0012C20.2909 18.0012 20.5744 18.0926 20.8106 18.2625C21.0467 18.4324 21.2235 18.6722 21.316 18.948L25 30M31 18V30M17 26H23" stroke="#EA2625" stroke-width="3" stroke-linecap="round" stroke-linejoin="round"/>
</svg>
