<svg width="68" height="68" viewBox="0 0 68 68" fill="none" xmlns="http://www.w3.org/2000/svg">
<path d="M14.1667 28.3333H42.5C44.0583 28.3333 45.3333 29.6083 45.3333 31.1667C45.3333 32.725 44.0583 34 42.5 34H14.1667C12.6083 34 11.3333 32.725 11.3333 31.1667C11.3333 29.6083 12.6083 28.3333 14.1667 28.3333ZM14.1667 17H42.5C44.0583 17 45.3333 18.275 45.3333 19.8333C45.3333 21.3917 44.0583 22.6667 42.5 22.6667H14.1667C12.6083 22.6667 11.3333 21.3917 11.3333 19.8333C11.3333 18.275 12.6083 17 14.1667 17ZM14.1667 39.6667H31.1667C32.725 39.6667 34 40.9417 34 42.5C34 44.0583 32.725 45.3333 31.1667 45.3333H14.1667C12.6083 45.3333 11.3333 44.0583 11.3333 42.5C11.3333 40.9417 12.6083 39.6667 14.1667 39.6667ZM39.6667 42.16V54.145C39.6667 55.25 40.8567 55.93 41.82 55.3633L51.8217 49.3567C52.7283 48.8183 52.7283 47.4867 51.8217 46.92L41.82 40.9133C41.6013 40.7884 41.3537 40.723 41.1019 40.7238C40.85 40.7245 40.6028 40.7913 40.3848 40.9174C40.1669 41.0436 39.9859 41.2248 39.8598 41.4428C39.7338 41.6609 39.6672 41.9082 39.6667 42.16Z" fill="white"/>
</svg>
