<svg width="48" height="48" viewBox="0 0 48 48" fill="none" xmlns="http://www.w3.org/2000/svg">
<path d="M29.5 33H32.5V30H34C34.5667 30 35.042 29.808 35.426 29.424C35.81 29.04 36.0013 28.5653 36 28V20C36 19.4333 35.808 18.9587 35.424 18.576C35.04 18.1933 34.5653 18.0013 34 18H28C27.4333 18 26.9587 18.192 26.576 18.576C26.1933 18.96 26.0013 19.4347 26 20V28C26 28.5667 26.192 29.042 26.576 29.426C26.96 29.81 27.4347 30.0013 28 30H29.5V33ZM12 30H15V26H19V30H22V18H19V23H15V18H12V30ZM29 27V21H33V27H29ZM8 40C6.9 40 5.95867 39.6087 5.176 38.826C4.39333 38.0433 4.00133 37.1013 4 36V12C4 10.9 4.392 9.95867 5.176 9.176C5.96 8.39333 6.90133 8.00133 8 8H40C41.1 8 42.042 8.392 42.826 9.176C43.61 9.96 44.0013 10.9013 44 12V36C44 37.1 43.6087 38.042 42.826 38.826C42.0433 39.61 41.1013 40.0013 40 40H8ZM8 36H40V12H8V36Z" fill="white"/>
</svg>
