<svg width="88" height="88" viewBox="0 0 88 88" fill="none" xmlns="http://www.w3.org/2000/svg">
<path d="M33.091 41.2729C32.3677 41.2729 31.674 41.5603 31.1626 42.0718C30.6511 42.5832 30.3638 43.2769 30.3638 44.0002C30.3638 44.7235 30.6511 45.4172 31.1626 45.9287C31.674 46.4402 32.3677 46.7275 33.091 46.7275H54.9093C55.6326 46.7275 56.3263 46.4402 56.8378 45.9287C57.3492 45.4172 57.6366 44.7235 57.6366 44.0002C57.6366 43.2769 57.3492 42.5832 56.8378 42.0718C56.3263 41.5603 55.6326 41.2729 54.9093 41.2729H33.091Z" fill="white"/>
<path fill-rule="evenodd" clip-rule="evenodd" d="M74.0001 44.0001C74.0001 60.5683 60.5683 74.0001 44.0001 74.0001C27.4318 74.0001 14 60.5683 14 44.0001C14 27.4318 27.4318 14 44.0001 14C60.5683 14 74.0001 27.4318 74.0001 44.0001ZM68.5456 44.0001C68.5456 47.2234 67.9107 50.4152 66.6772 53.3932C65.4436 56.3712 63.6356 59.0771 61.3564 61.3564C59.0771 63.6356 56.3712 65.4436 53.3932 66.6772C50.4152 67.9107 47.2234 68.5456 44.0001 68.5456C40.7767 68.5456 37.5849 67.9107 34.6069 66.6772C31.6289 65.4436 28.923 63.6356 26.6438 61.3564C24.3645 59.0771 22.5565 56.3712 21.323 53.3932C20.0894 50.4152 19.4546 47.2234 19.4546 44.0001C19.4546 37.4902 22.0406 31.2469 26.6438 26.6438C31.2469 22.0406 37.4902 19.4546 44.0001 19.4546C50.5099 19.4546 56.7532 22.0406 61.3564 26.6438C65.9595 31.2469 68.5456 37.4902 68.5456 44.0001Z" fill="white"/>
</svg>
