<svg width="68" height="68" viewBox="0 0 68 68" fill="none" xmlns="http://www.w3.org/2000/svg">
<path d="M63 18C63 13.5817 59.4183 10 55 10H13C8.58172 10 5 13.5817 5 18V50C5 54.4183 8.58172 58 13 58H55C59.4183 58 63 54.4183 63 50V18ZM20.8182 23.3333H31.3636V28.6667H20.8182V39.3333H31.3636V44.6667H20.8182C19.4198 44.6667 18.0786 44.1048 17.0898 43.1046C16.101 42.1044 15.5455 40.7478 15.5455 39.3333V28.6667C15.5455 27.2522 16.101 25.8956 17.0898 24.8954C18.0786 23.8952 19.4198 23.3333 20.8182 23.3333ZM41.9091 23.3333H52.4545V28.6667H41.9091V39.3333H52.4545V44.6667H41.9091C40.5107 44.6667 39.1695 44.1048 38.1807 43.1046C37.1919 42.1044 36.6364 40.7478 36.6364 39.3333V28.6667C36.6364 27.2522 37.1919 25.8956 38.1807 24.8954C39.1695 23.8952 40.5107 23.3333 41.9091 23.3333Z" fill="white"/>
</svg>
