<svg width="80" height="80" viewBox="0 0 80 80" fill="none" xmlns="http://www.w3.org/2000/svg">
<path d="M42.24 43.4667C41.96 43.1833 41.96 42.9 41.68 42.9C40.28 42.05 38.6 42.3333 37.48 43.4667L26.28 60.4667C26.28 61.0333 26 61.6 26 62.1667C26 63.8667 27.12 65 28.8 65H51.2C51.76 65 52.32 64.7167 52.88 64.4333C54.28 63.5833 54.56 61.8833 53.72 60.4667L42.24 43.4667ZM59.6 14H20.4C15.64 14 12 17.6833 12 22.5V48C12 52.8167 15.64 56.5 20.4 56.5H22.64C24.32 56.5 25.44 55.3667 25.44 53.6667C25.44 51.9667 24.32 50.8333 22.64 50.8333H20.4C18.72 50.8333 17.6 49.7 17.6 48V22.5C17.6 20.8 18.72 19.6667 20.4 19.6667H59.6C61.28 19.6667 62.4 20.8 62.4 22.5V48C62.4 49.7 61.28 50.8333 59.6 50.8333H57.36C55.68 50.8333 54.56 51.9667 54.56 53.6667C54.56 55.3667 55.68 56.5 57.36 56.5H59.6C64.36 56.5 68 52.8167 68 48V22.5C68 17.6833 64.36 14 59.6 14Z" fill="white"/>
</svg>
