<svg width="68" height="68" viewBox="0 0 68 68" fill="none" xmlns="http://www.w3.org/2000/svg">
<g clip-path="url(#clip0_3023_4431)">
<path fill-rule="evenodd" clip-rule="evenodd" d="M53.8334 13.0156H14.1667C11.8195 13.0156 9.91675 15.0373 9.91675 17.5312V47.6354C9.91675 50.1293 11.8195 52.151 14.1667 52.151H53.8334C56.1806 52.151 58.0834 50.1293 58.0834 47.6354V17.5312C58.0834 15.0373 56.1806 13.0156 53.8334 13.0156ZM14.1667 8.5C9.47233 8.5 5.66675 12.5434 5.66675 17.5312V47.6354C5.66675 52.6232 9.47233 56.6667 14.1667 56.6667H53.8334C58.5278 56.6667 62.3334 52.6232 62.3334 47.6354V17.5312C62.3334 12.5434 58.5278 8.5 53.8334 8.5H14.1667Z" fill="white"/>
<rect x="16.9998" y="32.585" width="2.83333" height="4.01389" fill="white"/>
<rect x="22.6665" y="32.585" width="28.3333" height="4.01389" fill="white"/>
<rect x="16.9998" y="40.6123" width="22.6667" height="4.01389" fill="white"/>
<rect x="42.4998" y="40.6123" width="8.5" height="4.01389" fill="white"/>
</g>
<defs>
<clipPath id="clip0_3023_4431">
<rect width="68" height="68" fill="white"/>
</clipPath>
</defs>
</svg>
