<svg width="68" height="68" viewBox="0 0 68 68" fill="none" xmlns="http://www.w3.org/2000/svg">
<path d="M53.6932 29.2491L54.3411 27.7597C55.4803 25.1249 57.5666 23.0124 60.1883 21.839L62.1874 20.9469C62.43 20.8354 62.6354 20.6568 62.7794 20.4323C62.9235 20.2077 63 19.9466 63 19.6799C63 19.4132 62.9235 19.152 62.7794 18.9275C62.6354 18.7029 62.43 18.5243 62.1874 18.4128L60.2989 17.5734C57.6113 16.3666 55.4893 14.1759 54.3701 11.4527L53.7037 9.8449C53.6059 9.59585 53.4352 9.38203 53.2139 9.23132C52.9926 9.08061 52.731 9 52.4632 9C52.1954 9 51.9338 9.08061 51.7125 9.23132C51.4912 9.38203 51.3205 9.59585 51.2226 9.8449L50.5563 11.4501C49.4382 14.1738 47.3172 16.3654 44.6301 17.5734L42.7389 18.4155C42.4971 18.5272 42.2924 18.7058 42.1489 18.9301C42.0055 19.1544 41.9292 19.415 41.9292 19.6812C41.9292 19.9474 42.0055 20.208 42.1489 20.4323C42.2924 20.6565 42.4971 20.8351 42.7389 20.9469L44.7407 21.8363C47.3619 23.0109 49.4472 25.1244 50.5852 27.7597L51.2332 29.2491C51.7073 30.3385 53.2165 30.3385 53.6932 29.2491ZM14.9411 45.8429H32.0402L37.3079 59H42.9813L26.1245 16.8971H20.8568L4 59H9.67335L14.9411 45.8429ZM23.4906 24.4888L29.9331 40.58H17.0482L23.4906 24.4888ZM57.7309 37.9486V39.3564C56.1293 38.4335 54.3127 37.9479 52.4637 37.9486C50.6148 37.9492 48.7985 38.4359 47.1975 39.3599C45.5965 40.2839 44.267 41.6126 43.3427 43.2124C42.4184 44.8123 41.9318 46.627 41.9318 48.4743C41.9318 50.3215 42.4184 52.1362 43.3427 53.7361C44.267 55.336 45.5965 56.6647 47.1975 57.5886C48.7985 58.5126 50.6148 58.9994 52.4637 59C54.3127 59.0006 56.1293 58.5151 57.7309 57.5922V59H62.9987V37.9486H57.7309ZM57.7309 48.4743C57.7309 49.8701 57.1759 51.2087 56.188 52.1957C55.2001 53.1827 53.8603 53.7371 52.4632 53.7371C51.0661 53.7371 49.7262 53.1827 48.7383 52.1957C47.7504 51.2087 47.1954 49.8701 47.1954 48.4743C47.1954 47.0785 47.7504 45.7399 48.7383 44.7529C49.7262 43.7659 51.0661 43.2114 52.4632 43.2114C53.8603 43.2114 55.2001 43.7659 56.188 44.7529C57.1759 45.7399 57.7309 47.0785 57.7309 48.4743Z" fill="white"/>
</svg>
