<svg width="68" height="68" viewBox="0 0 68 68" fill="none" xmlns="http://www.w3.org/2000/svg">
<path d="M59.7059 57.7469L56.1863 37.4531H57.375C58.3312 37.4531 59.1016 36.6828 59.1016 35.7266V22.9766C59.1016 22.0203 58.3312 21.25 57.375 21.25H41.0391V9.16406C41.0391 8.20781 40.2687 7.4375 39.3125 7.4375H28.6875C27.7313 7.4375 26.9609 8.20781 26.9609 9.16406V21.25H10.625C9.66875 21.25 8.89844 22.0203 8.89844 22.9766V35.7266C8.89844 36.6828 9.66875 37.4531 10.625 37.4531H11.8137L8.29414 57.7469C8.27422 57.8465 8.26758 57.9461 8.26758 58.0391C8.26758 58.9953 9.03789 59.7656 9.99414 59.7656H58.0059C58.1055 59.7656 58.2051 59.759 58.298 59.7391C59.241 59.5797 59.8719 58.6832 59.7059 57.7469ZM13.5469 25.8984H31.6094V12.0859H36.3906V25.8984H54.4531V32.8047H13.5469V25.8984ZM44.625 55.1172V44.7578C44.625 44.4656 44.3859 44.2266 44.0938 44.2266H40.9062C40.6141 44.2266 40.375 44.4656 40.375 44.7578V55.1172H27.625V44.7578C27.625 44.4656 27.3859 44.2266 27.0938 44.2266H23.9062C23.6141 44.2266 23.375 44.4656 23.375 44.7578V55.1172H13.4672L16.4621 37.8516H51.5312L54.5262 55.1172H44.625Z" fill="white"/>
</svg>
