<svg width="120" height="120" viewBox="0 0 120 120" fill="none" xmlns="http://www.w3.org/2000/svg">
<path d="M60 105C65.5467 105 70.7433 103.957 75.59 101.87C80.4367 99.7835 84.6733 96.9269 88.3 93.3002C91.9267 89.6735 94.7833 85.4369 96.87 80.5902C98.9567 75.7435 100 70.5469 100 65.0002C100 59.4535 98.9567 54.2569 96.87 49.4102C94.7833 44.5635 91.9267 40.3269 88.3 36.7002C84.6733 33.0735 80.4367 30.2169 75.59 28.1302C70.7433 26.0435 65.5467 25.0002 60 25.0002H58.1L66.42 16.6702L62.885 13.0752L48.46 27.4052L62.69 41.7302L66.23 38.1352L58.1 30.0002H60C69.75 30.0002 78.02 33.3969 84.81 40.1902C91.6 46.9835 94.9967 55.2535 95 65.0002C95.0033 74.7469 91.6067 83.0185 84.81 89.8152C78.0133 96.6119 69.7433 100.007 60 100C50.2567 99.9935 41.985 96.5985 35.185 89.8152C28.385 83.0319 24.99 74.7602 25 65.0002H20C20 70.5469 21.0433 75.7435 23.13 80.5902C25.2167 85.4369 28.0733 89.6752 31.7 93.3052C35.3267 96.9352 39.5633 99.7902 44.41 101.87C49.2567 103.95 54.4533 104.994 60 105Z" fill="white"/>
<path d="M68.2592 64.6057C67.708 64.6057 67.2311 64.6746 66.8284 64.8124C66.1182 65.0668 65.583 65.5384 65.2227 66.2273L61.1528 66.0366L62.7744 53.3022H75.4769V57.1496H66.0493L65.2227 62.1892C65.9222 61.7335 66.468 61.4314 66.8601 61.2831C67.5173 61.0393 68.3175 60.9174 69.2607 60.9174C71.1685 60.9174 72.8325 61.5586 74.2527 62.8411C75.6729 64.1235 76.3831 65.9889 76.3831 68.4372C76.3831 70.5675 75.6994 72.47 74.3322 74.1445C72.965 75.8191 70.9194 76.6564 68.1956 76.6564C66.0017 76.6564 64.1999 76.0682 62.7903 74.8918C61.3806 73.7153 60.5963 72.046 60.4373 69.8839H64.9524C65.1326 70.8696 65.477 71.6327 65.9858 72.1732C66.4945 72.7031 67.2364 72.9681 68.2115 72.9681C69.3349 72.9681 70.1881 72.5759 70.7711 71.7916C71.3646 70.9967 71.6613 70.0005 71.6613 68.8028C71.6613 67.6264 71.3858 66.6354 70.8347 65.8299C70.2835 65.0138 69.425 64.6057 68.2592 64.6057Z" fill="white"/>
<path d="M53.7761 76.0521H49.1339V60.1541H43.7126V57.0699C45.1435 57.0063 46.145 56.9109 46.7174 56.7837C47.6289 56.5824 48.3708 56.1796 48.9431 55.5755C49.3352 55.1621 49.632 54.611 49.8334 53.9221C49.95 53.5087 50.0083 53.2014 50.0083 53H53.7761V76.0521Z" fill="white"/>
</svg>
