<svg width="68" height="68" viewBox="0 0 68 68" fill="none" xmlns="http://www.w3.org/2000/svg">
<path d="M18.25 23.5H28.75" stroke="white" stroke-width="4" stroke-linecap="round" stroke-linejoin="round"/>
<path d="M57.1867 26.125H50.3564C45.6708 26.125 41.875 29.6504 41.875 34C41.875 38.3496 45.6734 41.875 50.3538 41.875H57.1867C57.4072 41.875 57.5148 41.875 57.6067 41.8698C59.0242 41.7832 60.1529 40.7358 60.2448 39.4206C60.25 39.3366 60.2501 39.2343 60.2501 39.0321V28.9679C60.2501 28.7658 60.25 28.6634 60.2448 28.5794C60.1503 27.2643 59.0242 26.2169 57.6067 26.1302C57.5174 26.125 57.4072 26.125 57.1867 26.125Z" stroke="white" stroke-width="4"/>
<path d="M57.5332 26.125C57.3284 21.211 56.6722 18.1975 54.5485 16.0765C51.4747 13 46.5239 13 36.625 13H28.75C18.8511 13 13.9003 13 10.8265 16.0765C7.75257 19.153 7.74995 24.1011 7.74995 34C7.74995 43.8989 7.74995 48.8497 10.8265 51.9236C13.903 54.9975 18.8511 55.0001 28.75 55.0001H36.625C46.5239 55.0001 51.4747 55.0001 54.5485 51.9236C56.6722 49.8026 57.331 46.7891 57.5332 41.8751" stroke="white" stroke-width="4"/>
<path d="M49.7264 34H49.7526" stroke="white" stroke-width="4" stroke-linecap="round" stroke-linejoin="round"/>
</svg>
