<svg width="68" height="68" viewBox="0 0 68 68" fill="none" xmlns="http://www.w3.org/2000/svg">
<path d="M36.2665 37.9667C35.9832 37.6833 35.9832 37.4 35.6998 37.4C34.2832 36.55 32.5832 36.8333 31.4498 37.9667L20.1165 54.9667C20.1165 55.5333 19.8332 56.1 19.8332 56.6667C19.8332 58.3667 20.9665 59.5 22.6665 59.5H45.3332C45.8998 59.5 46.4665 59.2167 47.0332 58.9333C48.4498 58.0833 48.7332 56.3833 47.8832 54.9667L36.2665 37.9667ZM53.8332 8.5H14.1665C9.34984 8.5 5.6665 12.1833 5.6665 17V42.5C5.6665 47.3167 9.34984 51 14.1665 51H16.4332C18.1332 51 19.2665 49.8667 19.2665 48.1667C19.2665 46.4667 18.1332 45.3333 16.4332 45.3333H14.1665C12.4665 45.3333 11.3332 44.2 11.3332 42.5V17C11.3332 15.3 12.4665 14.1667 14.1665 14.1667H53.8332C55.5332 14.1667 56.6665 15.3 56.6665 17V42.5C56.6665 44.2 55.5332 45.3333 53.8332 45.3333H51.5665C49.8665 45.3333 48.7332 46.4667 48.7332 48.1667C48.7332 49.8667 49.8665 51 51.5665 51H53.8332C58.6498 51 62.3332 47.3167 62.3332 42.5V17C62.3332 12.1833 58.6498 8.5 53.8332 8.5Z" fill="white"/>
</svg>
