<svg width="80" height="80" viewBox="0 0 80 80" fill="none" xmlns="http://www.w3.org/2000/svg">
<path d="M13.3333 23.3333H66.6666M33.3333 36.6667V56.6667M46.6666 36.6667V56.6667M16.6666 23.3333L19.9999 63.3333C19.9999 65.1014 20.7023 66.7971 21.9525 68.0474C23.2028 69.2976 24.8985 70 26.6666 70H53.3333C55.1014 70 56.7971 69.2976 58.0473 68.0474C59.2975 66.7971 59.9999 65.1014 59.9999 63.3333L63.3333 23.3333M29.9999 23.3333V13.3333C29.9999 12.4493 30.3511 11.6014 30.9762 10.9763C31.6014 10.3512 32.4492 10 33.3333 10H46.6666C47.5506 10 48.3985 10.3512 49.0236 10.9763C49.6487 11.6014 49.9999 12.4493 49.9999 13.3333V23.3333" stroke="white" stroke-width="5" stroke-linecap="round" stroke-linejoin="round"/>
</svg>
