<svg width="100" height="100" viewBox="0 0 100 100" fill="none" xmlns="http://www.w3.org/2000/svg">
<path d="M39.6348 64.9329V35.0662C39.6354 34.6925 39.736 34.3259 39.9261 34.0047C40.1161 33.6835 40.3887 33.4197 40.7151 33.2407C41.0415 33.0618 41.4098 32.9744 41.7814 32.9876C42.153 33.0009 42.5142 33.1144 42.8271 33.3162L65.9449 48.2454C66.2376 48.4338 66.4785 48.6933 66.6453 48.9998C66.8121 49.3064 66.8995 49.6501 66.8995 49.9995C66.8995 50.3489 66.8121 50.6927 66.6453 50.9992C66.4785 51.3058 66.2376 51.5652 65.9449 51.7537L42.8271 66.687C42.5142 66.8888 42.153 67.0023 41.7814 67.0156C41.4098 67.0289 41.0415 66.9414 40.7151 66.7625C40.3887 66.5836 40.1161 66.3197 39.9261 65.9985C39.736 65.6773 39.6354 65.3107 39.6348 64.937V64.9329Z" fill="white"/>
<path d="M4.39453 50.0003C4.39453 24.6878 24.8133 4.16699 49.9998 4.16699C75.1864 4.16699 95.6051 24.6878 95.6051 50.0003C95.6051 75.3128 75.1864 95.8336 49.9998 95.8336C24.8133 95.8336 4.39453 75.3128 4.39453 50.0003ZM49.9998 10.417C39.5539 10.417 29.5358 14.5874 22.1494 22.0107C14.7631 29.434 10.6134 39.5022 10.6134 50.0003C10.6134 60.4985 14.7631 70.5666 22.1494 77.99C29.5358 85.4133 39.5539 89.5836 49.9998 89.5836C60.4458 89.5836 70.4638 85.4133 77.8502 77.99C85.2366 70.5666 89.3862 60.4985 89.3862 50.0003C89.3862 39.5022 85.2366 29.434 77.8502 22.0107C70.4638 14.5874 60.4458 10.417 49.9998 10.417Z" fill="white"/>
</svg>
