<svg width="140" height="140" viewBox="0 0 140 140" fill="none" xmlns="http://www.w3.org/2000/svg">
<path d="M55.4165 90.9067V49.0933C55.4174 48.5702 55.5589 48.0569 55.8264 47.6072C56.0938 47.1576 56.4772 46.7882 56.9365 46.5377C57.3958 46.2871 57.914 46.1648 58.4368 46.1834C58.9596 46.202 59.4679 46.3608 59.9082 46.6433L92.4348 67.5442C92.8467 67.808 93.1856 68.1713 93.4203 68.6004C93.655 69.0296 93.778 69.5109 93.778 70C93.778 70.4891 93.655 70.9704 93.4203 71.3996C93.1856 71.8287 92.8467 72.1919 92.4348 72.4558L59.9082 93.3625C59.4679 93.645 58.9596 93.8039 58.4368 93.8225C57.914 93.8411 57.3958 93.7187 56.9365 93.4682C56.4772 93.2177 56.0938 92.8482 55.8264 92.3986C55.5589 91.9489 55.4174 91.4357 55.4165 90.9125V90.9067Z" fill="white"/>
<path d="M5.8335 70C5.8335 34.5625 34.5627 5.83337 70.0002 5.83337C105.438 5.83337 134.167 34.5625 134.167 70C134.167 105.438 105.438 134.167 70.0002 134.167C34.5627 134.167 5.8335 105.438 5.8335 70ZM70.0002 14.5834C55.3027 14.5834 41.2073 20.4219 30.8147 30.8145C20.422 41.2072 14.5835 55.3026 14.5835 70C14.5835 84.6974 20.422 98.7929 30.8147 109.186C41.2073 119.578 55.3027 125.417 70.0002 125.417C84.6976 125.417 98.793 119.578 109.186 109.186C119.578 98.7929 125.417 84.6974 125.417 70C125.417 55.3026 119.578 41.2072 109.186 30.8145C98.793 20.4219 84.6976 14.5834 70.0002 14.5834Z" fill="white"/>
</svg>
