<svg width="100" height="100" viewBox="0 0 100 100" fill="none" xmlns="http://www.w3.org/2000/svg">
<path d="M56.2499 41.6667L72.9166 58.3334M72.9166 41.6667L56.2499 58.3334M81.6458 77.0834H38.7416C36.5683 77.0832 34.481 76.2339 32.9249 74.7167L10.6333 52.9834C10.2351 52.5952 9.91874 52.1313 9.7027 51.6189C9.48666 51.1066 9.37537 50.5561 9.37537 50.0001C9.37537 49.444 9.48666 48.8936 9.7027 48.3812C9.91874 47.8689 10.2351 47.4049 10.6333 47.0167L32.9249 25.2834C34.481 23.7662 36.5683 22.917 38.7416 22.9167H81.6458C85.6041 22.9167 90.9083 25.1709 90.9083 29.6876V70.3126C90.9083 74.8292 85.6041 77.0834 81.6458 77.0834Z" stroke="white" stroke-width="4" stroke-linecap="round" stroke-linejoin="round"/>
</svg>
