<svg width="68" height="68" viewBox="0 0 68 68" fill="none" xmlns="http://www.w3.org/2000/svg">
<path d="M18.289 53.8333L5.6665 63.75V11.3333C5.6665 10.5819 5.96501 9.86122 6.49637 9.32986C7.02772 8.79851 7.74839 8.5 8.49984 8.5H59.4998C60.2513 8.5 60.972 8.79851 61.5033 9.32986C62.0347 9.86122 62.3332 10.5819 62.3332 11.3333V51C62.3332 51.7514 62.0347 52.4721 61.5033 53.0035C60.972 53.5348 60.2513 53.8333 59.4998 53.8333H18.289ZM11.3332 52.0908L16.3283 48.1667H56.6665V14.1667H11.3332V52.0908ZM31.1665 36.8333H36.8332V42.5H31.1665V36.8333ZM31.1665 19.8333H36.8332V34H31.1665V19.8333Z" fill="white"/>
</svg>
