<svg width="68" height="68" viewBox="0 0 68 68" fill="none" xmlns="http://www.w3.org/2000/svg">
<path d="M34 38.6844L17.6046 55.0798C16.9911 55.6933 16.2104 56 15.2624 56C14.3143 56 13.5336 55.6933 12.9202 55.0798C12.3067 54.4664 12 53.6857 12 52.7376C12 51.7896 12.3067 51.0089 12.9202 50.3954L29.3156 34L12.9202 17.6046C12.3067 16.9911 12 16.2104 12 15.2624C12 14.3143 12.3067 13.5336 12.9202 12.9202C13.5336 12.3067 14.3143 12 15.2624 12C16.2104 12 16.9911 12.3067 17.6046 12.9202L34 29.3156L50.3954 12.9202C51.0089 12.3067 51.7896 12 52.7376 12C53.6857 12 54.4664 12.3067 55.0798 12.9202C55.6933 13.5336 56 14.3143 56 15.2624C56 16.2104 55.6933 16.9911 55.0798 17.6046L38.6844 34L55.0798 50.3954C55.6933 51.0089 56 51.7896 56 52.7376C56 53.6857 55.6933 54.4664 55.0798 55.0798C54.4664 55.6933 53.6857 56 52.7376 56C51.7896 56 51.0089 55.6933 50.3954 55.0798L34 38.6844Z" fill="white"/>
</svg>
