<svg width="68" height="68" viewBox="0 0 68 68" fill="none" xmlns="http://www.w3.org/2000/svg">
<path d="M25.5 40.375C27.3848 40.3745 29.2163 41.0005 30.7065 42.1545C32.1967 43.3085 33.2611 44.9251 33.7323 46.75H57.375C57.906 46.749 58.4182 46.9469 58.8106 47.3047C59.203 47.6624 59.4473 48.1541 59.4952 48.683C59.5432 49.2118 59.3914 49.7395 59.0698 50.162C58.7482 50.5846 58.28 50.8714 57.7575 50.966L57.375 51L33.7323 51.0043C33.2626 52.8307 32.1989 54.4492 30.7086 55.6048C29.2183 56.7605 27.3859 57.3876 25.5 57.3876C23.6141 57.3876 21.7818 56.7605 20.2914 55.6048C18.8011 54.4492 17.7374 52.8307 17.2678 51.0043L10.625 51C10.094 51.001 9.58185 50.8031 9.18943 50.4453C8.79702 50.0876 8.55277 49.5959 8.50479 49.067C8.45681 48.5382 8.60857 48.0105 8.93019 47.588C9.25182 47.1654 9.71999 46.8786 10.2425 46.784L10.625 46.75H17.2678C17.739 44.9251 18.8033 43.3085 20.2935 42.1545C21.7837 41.0005 23.6152 40.3745 25.5 40.375ZM25.5 44.625C24.3728 44.625 23.2918 45.0728 22.4948 45.8698C21.6978 46.6668 21.25 47.7478 21.25 48.875C21.25 50.0022 21.6978 51.0832 22.4948 51.8802C23.2918 52.6772 24.3728 53.125 25.5 53.125C26.6272 53.125 27.7082 52.6772 28.5052 51.8802C29.3022 51.0832 29.75 50.0022 29.75 48.875C29.75 47.7478 29.3022 46.6668 28.5052 45.8698C27.7082 45.0728 26.6272 44.625 25.5 44.625ZM42.5 10.625C44.3848 10.6245 46.2163 11.2505 47.7065 12.4045C49.1967 13.5585 50.2611 15.1751 50.7323 17H57.375C57.906 16.999 58.4182 17.1969 58.8106 17.5547C59.203 17.9124 59.4473 18.4041 59.4952 18.933C59.5432 19.4618 59.3914 19.9895 59.0698 20.412C58.7482 20.8346 58.28 21.1214 57.7575 21.216L57.375 21.25L50.7323 21.2542C50.2626 23.0807 49.1989 24.6992 47.7086 25.8548C46.2183 27.0105 44.3859 27.6376 42.5 27.6376C40.6141 27.6376 38.7818 27.0105 37.2914 25.8548C35.8011 24.6992 34.7374 23.0807 34.2678 21.2542L10.625 21.25C10.094 21.251 9.58185 21.0531 9.18943 20.6953C8.79702 20.3376 8.55277 19.8459 8.50479 19.317C8.45681 18.7882 8.60857 18.2605 8.93019 17.838C9.25182 17.4154 9.71999 17.1286 10.2425 17.034L10.625 17H34.2678C34.739 15.1751 35.8033 13.5585 37.2935 12.4045C38.7837 11.2505 40.6152 10.6245 42.5 10.625ZM42.5 14.875C41.3728 14.875 40.2918 15.3228 39.4948 16.1198C38.6978 16.9168 38.25 17.9978 38.25 19.125C38.25 20.2522 38.6978 21.3332 39.4948 22.1302C40.2918 22.9272 41.3728 23.375 42.5 23.375C43.6272 23.375 44.7082 22.9272 45.5052 22.1302C46.3022 21.3332 46.75 20.2522 46.75 19.125C46.75 17.9978 46.3022 16.9168 45.5052 16.1198C44.7082 15.3228 43.6272 14.875 42.5 14.875Z" fill="white"/>
</svg>
