<svg width="40" height="40" viewBox="0 0 40 40" fill="none" xmlns="http://www.w3.org/2000/svg">
<path fill-rule="evenodd" clip-rule="evenodd" d="M29.0333 5C29.5745 4.99995 30.1075 5.13163 30.5863 5.38368C31.0651 5.63573 31.4754 6.00056 31.7817 6.44667L31.9267 6.68L37.4833 16.4C37.8226 16.9933 37.9713 17.6765 37.9093 18.3571C37.8473 19.0377 37.5775 19.6828 37.1367 20.205L36.9467 20.41L21.475 35.8817C21.1121 36.2445 20.6281 36.4606 20.1157 36.4886C19.6033 36.5166 19.0986 36.3545 18.6983 36.0333L18.5283 35.8833L3.05667 20.41C2.57338 19.9269 2.25023 19.307 2.13098 18.6341C2.01174 17.9613 2.10216 17.2681 2.39 16.6483L2.52 16.3983L8.075 6.67833C8.34348 6.20846 8.72233 5.81102 9.1788 5.52035C9.63528 5.22968 10.1557 5.05452 10.695 5.01L10.9667 5H29.0333ZM12.155 15.4883C11.8426 15.8009 11.667 16.2247 11.667 16.6667C11.667 17.1086 11.8426 17.5325 12.155 17.845L18.5267 24.2167C18.7201 24.4102 18.9498 24.5637 19.2026 24.6684C19.4554 24.7732 19.7264 24.8271 20 24.8271C20.2736 24.8271 20.5446 24.7732 20.7974 24.6684C21.0502 24.5637 21.2799 24.4102 21.4733 24.2167L27.845 17.845C28.0042 17.6913 28.1312 17.5073 28.2185 17.304C28.3059 17.1007 28.3518 16.882 28.3538 16.6607C28.3557 16.4394 28.3135 16.2199 28.2297 16.0151C28.1459 15.8102 28.0221 15.6242 27.8657 15.4677C27.7092 15.3112 27.5231 15.1874 27.3183 15.1036C27.1134 15.0198 26.894 14.9777 26.6727 14.9796C26.4514 14.9815 26.2327 15.0275 26.0293 15.1148C25.826 15.2022 25.6421 15.3292 25.4883 15.4883L20 20.9767L14.5117 15.4883C14.1991 15.1759 13.7753 15.0004 13.3333 15.0004C12.8914 15.0004 12.4675 15.1759 12.155 15.4883Z" fill="url(#paint0_linear_586_382)"/>
<defs>
<linearGradient id="paint0_linear_586_382" x1="20.0014" y1="5" x2="20.0014" y2="36.4917" gradientUnits="userSpaceOnUse">
<stop stop-color="#DFA558"/>
<stop offset="1" stop-color="#F5E4C0"/>
</linearGradient>
</defs>
</svg>
