<svg width="36" height="36" viewBox="0 0 36 36" fill="none" xmlns="http://www.w3.org/2000/svg">
<g clip-path="url(#clip0_1080_1672)">
<path d="M34.2 16.5582H32.436C31.4406 16.5582 30.636 17.2044 30.636 18C30.636 18.7938 31.4406 19.4382 32.436 19.4382H34.2C35.1936 19.4382 36 18.7956 36 18C36 17.2062 35.1918 16.5582 34.2 16.5582ZM18 8.1C16.6988 8.09596 15.4096 8.34927 14.2067 8.84536C13.0037 9.34145 11.9107 10.0705 10.9906 10.9906C10.0705 11.9107 9.34145 13.0037 8.84536 14.2067C8.34927 15.4096 8.09596 16.6988 8.1 18C8.1 23.4918 12.5082 27.9 18 27.9C23.49 27.9 27.9 23.4918 27.9 18C27.9 12.5082 23.4882 8.1 18 8.1ZM18 25.2C14.0202 25.2 10.8 21.9762 10.8 18C10.8 14.0202 14.0202 10.8 18 10.8C19.9096 10.8 21.7409 11.5586 23.0912 12.9088C24.4414 14.2591 25.2 16.0904 25.2 18C25.2 19.9096 24.4414 21.7409 23.0912 23.0912C21.7409 24.4414 19.9096 25.2 18 25.2ZM5.4 18C5.4 17.2062 4.5918 16.5582 3.6 16.5582H1.8C0.8046 16.5582 0 17.2044 0 18C0 18.7938 0.8046 19.4382 1.8 19.4382H3.6C4.5918 19.4382 5.4 18.7938 5.4 18ZM18 5.4C18.7938 5.4 19.4382 4.5954 19.4382 3.6V1.8C19.4382 0.8046 18.7938 0 18 0C17.2044 0 16.5582 0.8046 16.5582 1.8V3.6C16.5582 4.5954 17.2044 5.4 18 5.4ZM18 30.6C17.2044 30.6 16.5582 31.4046 16.5582 32.4V34.2C16.5582 35.1954 17.2044 36 18 36C18.7938 36 19.4382 35.1954 19.4382 34.2V32.4C19.4382 31.4046 18.7938 30.6 18 30.6ZM31.257 6.7788C31.9608 6.075 32.0742 5.049 31.5126 4.4874C30.951 3.9258 29.9232 4.041 29.223 4.7448L27.963 6.003C27.2592 6.7068 27.1458 7.7328 27.7074 8.2944C28.269 8.856 29.2968 8.7408 29.9988 8.037L31.257 6.7788ZM6.0012 27.9594L4.7412 29.2212C4.0374 29.925 3.924 30.9474 4.4856 31.509C5.0472 32.0706 6.075 31.959 6.7752 31.2552L8.0352 29.997C8.739 29.2932 8.8524 28.2672 8.2908 27.7038C7.7292 27.1404 6.7014 27.2592 6.0012 27.9594ZM6.777 4.743C6.075 4.0392 5.0472 3.924 4.4856 4.4856C3.924 5.0472 4.0392 6.075 4.7394 6.7788L5.9994 8.037C6.7032 8.7408 7.7274 8.856 8.289 8.2944C8.8506 7.7328 8.7372 6.705 8.0352 6.003L6.777 4.743ZM27.9612 29.9988L29.2212 31.257C29.925 31.9608 30.9492 32.0724 31.5108 31.5144C32.0724 30.9528 31.959 29.925 31.2552 29.223L29.997 27.9648C29.2932 27.261 28.2672 27.1458 27.7038 27.7074C27.1404 28.269 27.2574 29.295 27.9612 29.9988Z" fill="white"/>
</g>
<defs>
<clipPath id="clip0_1080_1672">
<rect width="36" height="36" fill="white"/>
</clipPath>
</defs>
</svg>
