<svg width="48" height="48" viewBox="0 0 48 48" fill="none" xmlns="http://www.w3.org/2000/svg">
<path d="M40 26C40 30.42 38.21 34.42 35.314 37.314L38.142 40.142C40.0019 38.2868 41.4768 36.0824 42.4821 33.6555C43.4874 31.2286 44.0033 28.6269 44 26C44 14.954 35.046 6 24 6C12.954 6 4.00002 14.954 4.00002 26C3.99667 28.6269 4.51247 31.2286 5.51778 33.6556C6.52309 36.0825 7.99809 38.2869 9.85802 40.142L12.686 37.314C10.8255 35.4534 9.45263 33.1628 8.68889 30.6449C7.92514 28.127 7.79414 25.4596 8.30748 22.879C8.82083 20.2984 9.96267 17.8842 11.6319 15.8503C13.3011 13.8163 15.4461 12.2255 17.877 11.2185C20.3079 10.2116 22.9496 9.81974 25.5681 10.0776C28.1866 10.3355 30.7011 11.2351 32.8889 12.6969C35.0766 14.1586 36.8701 16.1374 38.1105 18.4578C39.3509 20.7783 39.9999 23.3688 40 26ZM30.586 16.586L21.586 25.586L24.414 28.414L33.414 19.414L30.586 16.586Z" fill="white"/>
</svg>
