<svg width="68" height="68" viewBox="0 0 68 68" fill="none" xmlns="http://www.w3.org/2000/svg">
<path d="M49.4 22.9999H18.6001C14.955 22.9999 12.0001 25.9548 12.0001 29.5999V49.3999C12.0001 53.0449 14.955 55.9999 18.6001 55.9999H49.4C53.0451 55.9999 56 53.0449 56 49.3999V29.5999C56 25.9548 53.0451 22.9999 49.4 22.9999Z" stroke="white" stroke-width="4" stroke-linecap="round" stroke-linejoin="round"/>
<path d="M23.0001 12L34.0001 23L45 12" stroke="white" stroke-width="4" stroke-linecap="round" stroke-linejoin="round"/>
<path d="M39.9204 37.5155C41.3599 38.3622 41.3599 40.6378 39.9204 41.4845L30.9988 46.7323C29.6405 47.5313 28 46.4457 28 44.7478L28 34.2522C28 32.5543 29.6405 31.4687 30.9988 32.2677L39.9204 37.5155Z" fill="white"/>
</svg>
