<svg width="88" height="88" viewBox="0 0 88 88" fill="none" xmlns="http://www.w3.org/2000/svg">
<path d="M35.0167 55.55L66.0917 24.475C66.825 23.7417 67.6806 23.375 68.6583 23.375C69.6361 23.375 70.4917 23.7417 71.225 24.475C71.9583 25.2083 72.325 26.0798 72.325 27.0893C72.325 28.0989 71.9583 28.9691 71.225 29.7L37.5833 63.4333C36.85 64.1667 35.9944 64.5333 35.0167 64.5333C34.0389 64.5333 33.1833 64.1667 32.45 63.4333L16.6833 47.6667C15.95 46.9333 15.598 46.0631 15.6273 45.056C15.6567 44.0489 16.0392 43.1774 16.775 42.4417C17.5108 41.7059 18.3822 41.3392 19.3893 41.3417C20.3964 41.3441 21.2667 41.7108 22 42.4417L35.0167 55.55Z" fill="white"/>
</svg>
