<svg width="36" height="36" viewBox="0 0 36 36" fill="none" xmlns="http://www.w3.org/2000/svg">
<path d="M4.73723 20.895C4.21264 20.0204 3.93555 19.0198 3.93555 18C3.93555 16.9802 4.21264 15.9795 4.73723 15.105C4.89854 14.8357 5.11439 14.6033 5.37091 14.4224C5.62743 14.2416 5.91895 14.1164 6.22673 14.055L8.76623 13.5465C8.91768 13.5165 9.05427 13.4355 9.15323 13.317L12.2552 9.59247C14.0282 7.46247 14.9162 6.39897 15.7067 6.68547C16.5002 6.97197 16.5002 8.35797 16.5002 11.13V24.873C16.5002 27.6435 16.5002 29.028 15.7082 29.316C14.9177 29.601 14.0297 28.5375 12.2567 26.409L9.15023 22.683C9.05165 22.5648 8.91564 22.4838 8.76473 22.4535L6.22523 21.945C5.91745 21.8835 5.62594 21.7584 5.36941 21.5775C5.11289 21.3967 4.89854 21.1642 4.73723 20.895Z" stroke="white" stroke-width="2.5"/>
<path d="M23.3042 12.696C24.7037 14.0955 25.4934 15.9915 25.5009 17.9707C25.5085 19.9499 24.7335 21.8519 23.3447 23.262M29.4857 9.51453C31.7249 11.7535 32.9884 14.7869 33.0008 17.9534C33.0132 21.12 31.7734 24.1631 29.5517 26.4195" stroke="white" stroke-width="2.5" stroke-linecap="round"/>
</svg>
