<svg width="88" height="88" viewBox="0 0 88 88" fill="none" xmlns="http://www.w3.org/2000/svg">
<path d="M35.9 71C34.28 71 33.2 69.92 33.2 68.3V60.2H22.4C19.43 60.2 17 57.77 17 54.8V22.4C17 19.43 19.43 17 22.4 17H65.6C68.57 17 71 19.43 71 22.4V54.8C71 57.77 68.57 60.2 65.6 60.2H49.13L39.14 70.19C38.6 70.73 38.06 71 37.25 71H35.9ZM38.6 54.8V63.17L46.97 54.8H65.6V22.4H22.4V54.8H38.6ZM55.61 27.8L51.83 35.9H57.5V46.7H46.7V35.36L50.21 27.8H55.61ZM39.41 27.8L35.63 35.9H41.3V46.7H30.5V35.36L34.01 27.8H39.41Z" fill="white"/>
</svg>
