<?xml version="1.0" standalone="no"?><!DOCTYPE svg PUBLIC "-//W3C//DTD SVG 1.1//EN"
    "http://www.w3.org/Graphics/SVG/1.1/DTD/svg11.dtd">
<svg class="icon" width="68px" height="64.89px" viewBox="0 0 1073 1024" version="1.1"
    xmlns="http://www.w3.org/2000/svg">
    <path
        d="M228.013233 453.785094l61.169007 0.502484c21.003816 0.401987 42.024381 0.837473 63.664676 1.272958l64.451901 0.669978c52.49279 0.60298 104.98558 1.423704 157.478369 2.46217 18.876635 62.358218 11.95911 91.720012-16.749454 150.745089l-16.749454 16.749454a1439.431356 1439.431356 0 0 0-8.960959 78.571691l-4.421855 47.936938-4.421856 50.415858-4.6061 50.600101c-3.768627 41.404651-7.453507 82.809302-11.088139 124.213954-71.52017 1.457203-143.057089 2.344924-214.610758 3.148897l-61.654742 1.272958-59.058576 0.485735-54.485975 0.803973C72.293556 977.925769 72.293556 977.925769 41.977044 955.632245-3.598221 891.682828 1.661107 821.703608 1.108375 746.582305l-1.055215-35.508843C-0.533071 630.676081 11.794527 576.441348 55.544102 508.941047c55.691936-53.548006 96.543855-56.227918 172.469131-55.155953z"
        fill="#ffffff" />
    <path
        d="M893.016819 441.94323c52.760781 37.502028 64.920885 58.00336 79.559908 121.433544L976.76409 609.437773l32.460443 6.281046L1043.761908 626.187227c28.524321 57.065391 20.55158 120.31133 20.936818 183.205532l1.055215 41.840137 0.251242 40.265688 0.468985 36.83205C1058.534926 972.013211 1046.542317 986.032504 1010.262999 1011.424677c-39.997697 6.230797-39.997697 6.230797-86.829171 6.080052l-51.253331-0.033499-53.497757-0.803974-53.280014 0.167495C633.986507 1015.880032 633.986507 1015.880032 558.027732 977.925769V642.936682l83.747272-33.498909c6.532287-33.331414 12.042858-66.863822 16.749454-100.496726 69.895473-86.192692 128.669308-91.133781 234.492361-66.997817z m-117.246181 83.747271l-33.498908 33.498909v50.248363h133.995634l-33.498908-83.747272h-66.997818z m-117.24618 184.243998v200.993452h284.740724V709.934499H658.524458z"
        fill="#ffffff" />
    <path
        d="M440.781552 6.457417c53.363762 30.015022 75.80803 52.995274 105.739305 105.739305 19.278622 75.406043 23.164495 136.5918-9.429943 208.312964-50.198115 64.535648-79.894897 84.216256-161.213498 102.590408-69.627482 6.080052-111.517867-7.235764-169.588225-48.154682-48.070934-54.385478-71.20193-96.661101-74.334078-168.549758 9.413193-84.634993 28.675066-124.280951 92.121998-180.056635C296.652497-2.972526 363.600066-4.948961 440.781552 6.457417z"
        fill="#ffffff" />
    <path
        d="M792.520093 743.433408h50.248363c18.843136 96.309362 18.843136 96.309362 0 133.995635l-66.997818-16.749455c-0.720227-33.498909-0.669978-66.997817 0-100.496726l16.749455-16.749454z"
        fill="#ffffff" />
</svg>