<svg width="68" height="68" viewBox="0 0 68 68" fill="none" xmlns="http://www.w3.org/2000/svg">
<path d="M16.2773 16.2294C17.4869 11.9495 20.2043 8.25198 23.9277 5.81965C27.6511 3.38732 32.1289 2.38454 36.5341 2.99653C40.9392 3.60852 44.9741 5.79393 47.8935 9.14911C50.8128 12.5043 52.4194 16.8026 52.4165 21.25V25.5H58.0832V62.3334H9.9165V25.5H46.7498V21.25C46.7518 18.1714 45.6397 15.196 43.619 12.8734C41.5983 10.5507 38.8054 9.03767 35.7561 8.61361C32.7068 8.18954 29.6071 8.8831 27.0293 10.5662C24.4515 12.2494 22.5697 14.8084 21.7315 17.7707L20.958 20.4964L15.5067 18.955L16.2773 16.2294ZM15.5832 31.1667V56.6667H52.4165V31.1667H15.5832ZM25.4998 41.0834H42.4998V46.75H25.4998V41.0834Z" fill="white"/>
</svg>
