<svg width="140" height="140" viewBox="0 0 140 140" fill="none" xmlns="http://www.w3.org/2000/svg">
<path d="M5.8335 70C5.8335 34.5625 34.5627 5.83337 70.0002 5.83337C105.438 5.83337 134.167 34.5625 134.167 70C134.167 105.438 105.438 134.167 70.0002 134.167C34.5627 134.167 5.8335 105.438 5.8335 70ZM70.0002 14.5834C55.3027 14.5834 41.2073 20.4219 30.8147 30.8145C20.422 41.2072 14.5835 55.3026 14.5835 70C14.5835 84.6974 20.422 98.7929 30.8147 109.186C41.2073 119.578 55.3027 125.417 70.0002 125.417C84.6976 125.417 98.793 119.578 109.186 109.186C119.578 98.7929 125.417 84.6974 125.417 70C125.417 55.3026 119.578 41.2072 109.186 30.8145C98.793 20.4219 84.6976 14.5834 70.0002 14.5834Z" fill="white"/>
<rect x="57" y="51" width="8" height="38" fill="white"/>
<rect x="75" y="51" width="8" height="38" fill="white"/>
</svg>
