<svg width="88" height="88" viewBox="0 0 88 88" fill="none" xmlns="http://www.w3.org/2000/svg">
<path d="M67.5219 18.4782L39.5165 46.4891M18.6171 36.2633L66.6949 18.0635C66.8684 17.9971 67.0573 17.9824 67.2389 18.0211C67.4205 18.0599 67.5871 18.1504 67.7184 18.2817C67.8497 18.413 67.9401 18.5796 67.9789 18.7612C68.0176 18.9429 68.0029 19.1318 67.9365 19.3053L49.7403 67.3927C49.6679 67.5753 49.5414 67.7313 49.3777 67.8399C49.214 67.9484 49.021 68.0042 48.8246 67.9998C48.6283 67.9953 48.438 67.9308 48.2794 67.815C48.1208 67.6991 48.0014 67.5375 47.9374 67.3518L39.8363 47.3847C39.7418 47.1018 39.5829 46.8446 39.372 46.6337C39.1611 46.4228 38.904 46.2638 38.6211 46.1693L18.658 38.0738C18.4699 38.0112 18.3058 37.892 18.1881 37.7326C18.0703 37.5731 18.0047 37.3811 18.0002 37.183C17.9958 36.9848 18.0526 36.79 18.1631 36.6254C18.2735 36.4608 18.4321 36.3343 18.6171 36.2633Z" stroke="white" stroke-width="4.5" stroke-linecap="round" stroke-linejoin="round"/>
</svg>
