<svg width="68" height="68" viewBox="0 0 68 68" fill="none" xmlns="http://www.w3.org/2000/svg">
<path d="M8.5 14.1673C8.5 12.6025 9.76853 11.334 11.3333 11.334H56.6667C58.2315 11.334 59.5 12.6025 59.5 14.1673C59.5 15.7321 58.2315 17.0007 56.6667 17.0007H11.3333C9.76852 17.0007 8.5 15.7321 8.5 14.1673ZM8.5 34.0007C8.5 32.4358 9.76853 31.1673 11.3333 31.1673H56.6667C58.2315 31.1673 59.5 32.4358 59.5 34.0007C59.5 35.5655 58.2315 36.834 56.6667 36.834H11.3333C9.76852 36.834 8.5 35.5655 8.5 34.0007ZM8.5 53.834C8.5 52.2692 9.76853 51.0006 11.3333 51.0006H56.6667C58.2315 51.0006 59.5 52.2692 59.5 53.834C59.5 55.3988 58.2315 56.6673 56.6667 56.6673H11.3333C9.76852 56.6673 8.5 55.3988 8.5 53.834Z" fill="white"/>
</svg>
