<svg width="300" height="300" viewBox="0 0 300 300" fill="none" xmlns="http://www.w3.org/2000/svg">
<g clip-path="url(#clip0_3240_3180)">
<mask id="mask0_3240_3180" style="mask-type:luminance" maskUnits="userSpaceOnUse" x="0" y="0" width="300" height="300">
<path d="M300 0H0V300H300V0Z" fill="white"/>
</mask>
<g mask="url(#mask0_3240_3180)">
<path d="M256 0H44C19.6995 0 0 19.6995 0 44V256C0 280.301 19.6995 300 44 300H256C280.301 300 300 280.301 300 256V44C300 19.6995 280.301 0 256 0Z" fill="#7CB342"/>
<path d="M222.5 182.5H77.5C70.5964 182.5 65 188.096 65 195V225C65 231.904 70.5964 237.5 77.5 237.5H222.5C229.404 237.5 235 231.904 235 225V195C235 188.096 229.404 182.5 222.5 182.5Z" fill="black" fill-opacity="0.2"/>
<path d="M220 192.5H80C77.2386 192.5 75 194.739 75 197.5V222.5C75 225.261 77.2386 227.5 80 227.5H220C222.761 227.5 225 225.261 225 222.5V197.5C225 194.739 222.761 192.5 220 192.5Z" fill="black" fill-opacity="0.6"/>
<path fill-rule="evenodd" clip-rule="evenodd" d="M105 212.5L120 192.5H90L105 212.5ZM135 212.5L150 192.5H120L135 212.5ZM165 212.5L180 192.5H150L165 212.5ZM195 212.5L210 192.5H180L195 212.5Z" fill="#E1E6E8"/>
<path d="M82.5 118L96.25 131.75C97.5 132.75 99.25 132.75 100.25 131.75L104.25 127.75C105.25 126.5 105.25 124.75 104.25 123.75L90.5 110L104.25 96.25C105.25 95 105.25 93.25 104.25 92.25L100.25 88.25C99 87.25 97.25 87.25 96.25 88.25L82.5 102L68.75 88.25C67.5 87.25 65.75 87.25 64.75 88.25L60.75 92.25C59.75 93.25 59.75 95 60.75 96.25L74.5 110L60.75 123.75C59.75 125 59.75 126.75 60.75 127.75L64.75 131.75C66 132.75 67.75 132.75 68.75 131.75L82.5 118ZM217.5 118L231.25 131.75C232.5 132.75 234.25 132.75 235.25 131.75L239.25 127.75C240.25 126.5 240.25 124.75 239.25 123.75L225.5 110L239.25 96.25C240.25 95 240.25 93.25 239.25 92.25L235.25 88.25C234 87.25 232.25 87.25 231.25 88.25L217.5 102L203.75 88.25C202.5 87.25 200.75 87.25 199.75 88.25L195.75 92.25C194.75 93.25 194.75 95 195.75 96.25L209.5 110L195.75 123.75C194.75 125 194.75 126.75 195.75 127.75L199.75 131.75C201 132.75 202.75 132.75 203.75 131.75L217.5 118Z" fill="black" fill-opacity="0.8"/>
</g>
</g>
<defs>
<clipPath id="clip0_3240_3180">
<rect width="300" height="300" fill="white"/>
</clipPath>
</defs>
</svg>
