<svg width="72" height="38" viewBox="0 0 72 38" fill="none" xmlns="http://www.w3.org/2000/svg">
<path d="M64.5353 4.40282V9.52974C62.3905 9.52974 56.7832 10.4563 54.8874 11.6917C52.9917 12.9271 54.545 17.2201 57.0667 17.2201C63.0132 18.1775 71.2945 18.579 71.9761 26.0223C72.7628 34.6143 53.8567 36.6159 53.8567 36.6159V32.4464C53.8567 32.4464 63.682 29.6415 64.5353 26.7636C65.3136 24.1383 59.9899 23.5 56.7832 23.2736C54.0227 23.3868 48.1842 21.5255 46.914 13.1742C45.6438 4.82286 58.1323 3.84689 64.5353 4.40282Z" fill="#999999"/>
<path d="M26.7742 11.722L22.1042 1.77702L31.7244 0.757812L26.7742 11.722Z" fill="#999999"/>
<path d="M23.443 36.6462L22.1042 15.5517H31.7244L30.3856 36.6462H23.443Z" fill="#999999"/>
<path d="M8.09459 14.9289L16.7496 6.86786L22.5403 12.1492L10.8343 22.3104L24.9376 32.5642L18.7732 38L7.50306 29.2595L8.09459 37.475L0 37.0426C0.498133 20.0253 0.850638 1.88394 1.18306 1.55563C2.24158 0.510206 9.53709 -0.0915675 11.3636 0.0113826L8.09459 14.9289Z" fill="#999999"/>
<path fill-rule="evenodd" clip-rule="evenodd" d="M33.1257 9.16056L35.2739 36.7718C41.0854 37.6777 52.9699 36.6977 54.016 25.5296C55.0621 14.3616 48.6404 9.96357 45.2988 9.16056C43.794 8.61492 39.2527 7.85103 33.1257 9.16056ZM38.6674 13.9473L42.1232 30.1928C44.0119 29.8222 47.7271 27.6108 47.478 21.7303C47.229 15.8498 41.5005 14.0914 38.6674 13.9473Z" fill="#999999"/>
</svg>
