<svg width="60" height="60" viewBox="0 0 60 60" fill="none" xmlns="http://www.w3.org/2000/svg">
<g clip-path="url(#clip0_7097_2092)">
<path fill-rule="evenodd" clip-rule="evenodd" d="M42.65 4.75379C43.1291 5.23494 43.3982 5.88744 43.3982 6.56779C43.3982 7.24815 43.1291 7.90064 42.65 8.3818L34.9833 16.0791H47.8889C49.2444 16.0791 50.5445 16.6198 51.503 17.5821C52.4615 18.5445 53 19.8497 53 21.2107V46.8685C53 48.2294 52.4615 49.5347 51.503 50.497C50.5445 51.4594 49.2444 52 47.8889 52H12.1111C10.7556 52 9.45553 51.4594 8.49701 50.497C7.53849 49.5347 7 48.2294 7 46.8685V21.2107C7 19.8497 7.53849 18.5445 8.49701 17.5821C9.45553 16.6198 10.7556 16.0791 12.1111 16.0791H21.4031L17.35 12.0098C16.8708 11.5284 16.6017 10.8755 16.602 10.1949C16.6022 9.51427 16.8718 8.86162 17.3513 8.38052C17.8308 7.89941 18.481 7.62927 19.159 7.62951C19.8369 7.62975 20.4869 7.90035 20.9661 8.3818L27.2886 14.7321C27.5282 14.9726 27.8531 15.1077 28.1919 15.1077C28.5308 15.1077 28.8557 14.9726 29.0953 14.7321L39.0364 4.75123C39.5157 4.27022 40.1656 4 40.8432 4C41.5209 4 42.1708 4.27278 42.65 4.75379ZM47.8889 23.2107C47.8889 22.1061 46.9935 21.2107 45.8889 21.2107H14.1111C13.0065 21.2107 12.1111 22.1061 12.1111 23.2107V44.8685C12.1111 45.973 13.0065 46.8685 14.1111 46.8685H45.8889C46.9935 46.8685 47.8889 45.973 47.8889 44.8685V23.2107ZM22.2822 27.7457C22.336 27.2523 22.5048 26.7786 22.7748 26.3629C23.0448 25.9472 23.4086 25.6011 23.8366 25.3528C24.2646 25.1044 24.7449 24.9608 25.2385 24.9334C25.7321 24.9061 26.2251 24.9958 26.6778 25.1953C28.6041 26.0493 30.4811 27.0113 32.3 28.0767C34.1307 29.1271 35.9011 30.2801 37.6028 31.5302C39.3099 32.7977 39.315 35.3507 37.6028 36.6207C35.901 37.8691 34.1306 39.0204 32.3 40.0691C29.7521 41.547 27.7383 42.4887 26.6778 42.9531C26.2254 43.1537 25.7323 43.2444 25.2385 43.2177C24.7446 43.1911 24.2641 43.0478 23.8358 42.7995C23.4075 42.5513 23.0436 42.2051 22.7736 41.789C22.5037 41.373 22.3353 40.8989 22.2822 40.4053C22.0603 38.3027 21.9511 36.1898 21.9551 34.0755C21.9551 31.1505 22.1544 28.908 22.2822 27.7457Z" fill="#999999"/>
</g>
<defs>
<clipPath id="clip0_7097_2092">
<rect width="60" height="60" fill="white"/>
</clipPath>
</defs>
</svg>
