<svg width="66" height="96" viewBox="0 0 66 96" fill="none" xmlns="http://www.w3.org/2000/svg">
<g clip-path="url(#clip0_1723_1573)">
<path d="M17.4433 14.3295C17.699 14.5849 17.9018 14.8882 18.0402 15.222C18.1786 15.5559 18.2498 15.9137 18.2498 16.2751C18.2498 16.6365 18.1786 16.9944 18.0402 17.3282C17.9018 17.6621 17.699 17.9653 17.4433 18.2207C13.3167 22.348 10.9985 27.9453 10.9985 33.7816C10.9985 39.6179 13.3167 45.2153 17.4433 49.3425C17.7059 49.5962 17.9154 49.8996 18.0595 50.2351C18.2037 50.5706 18.2795 50.9315 18.2827 51.2966C18.2859 51.6618 18.2163 52.0239 18.078 52.3619C17.9398 52.6998 17.7356 53.0069 17.4774 53.2651C17.2192 53.5233 16.9121 53.7275 16.5741 53.8658C16.2362 54.004 15.8741 54.0736 15.5089 54.0704C15.1438 54.0673 14.7829 53.9914 14.4474 53.8473C14.1119 53.7031 13.8084 53.4936 13.5548 53.231C2.81052 42.4895 2.81052 25.071 13.5548 14.3295C14.0705 13.8139 14.7698 13.5243 15.499 13.5243C16.2282 13.5243 16.9276 13.8139 17.4433 14.3295ZM52.4563 14.3295C63.1978 25.0737 63.1978 42.4895 52.4563 53.231C51.9406 53.747 51.2411 54.037 50.5116 54.0373C49.7821 54.0376 49.0824 53.748 48.5664 53.2324C48.0504 52.7167 47.7603 52.0172 47.7601 51.2877C47.7598 50.5582 48.0494 49.8585 48.565 49.3425C52.6916 45.2153 55.0098 39.6179 55.0098 33.7816C55.0098 27.9453 52.6916 22.348 48.565 18.2207C48.049 17.7047 47.7591 17.0049 47.7591 16.2751C47.7591 15.5454 48.049 14.8455 48.565 14.3295C49.081 13.8135 49.7809 13.5236 50.5106 13.5236C51.2404 13.5236 51.9403 13.8135 52.4563 14.3295ZM25.6025 22.233C26.1181 22.7487 26.4077 23.448 26.4077 24.1772C26.4077 24.9064 26.1181 25.6058 25.6025 26.1215C24.6014 27.1225 23.8072 28.311 23.2654 29.6189C22.7236 30.9269 22.4447 32.3288 22.4447 33.7445C22.4447 35.1602 22.7236 36.5621 23.2654 37.8701C23.8072 39.178 24.6014 40.3665 25.6025 41.3675C25.8578 41.623 26.0603 41.9263 26.1984 42.26C26.3366 42.5938 26.4076 42.9515 26.4074 43.3127C26.4073 43.6739 26.3361 44.0316 26.1977 44.3652C26.0594 44.6989 25.8566 45.002 25.6011 45.2574C25.3456 45.5127 25.0423 45.7152 24.7086 45.8533C24.3748 45.9914 24.0171 46.0624 23.6559 46.0623C23.2947 46.0622 22.9371 45.9909 22.6034 45.8526C22.2697 45.7142 21.9666 45.5115 21.7113 45.256C18.6583 42.2029 16.9432 38.0621 16.9432 33.7445C16.9432 29.4269 18.6583 25.2861 21.7113 22.233C21.9667 21.9773 22.27 21.7745 22.6038 21.6361C22.9377 21.4977 23.2955 21.4265 23.6569 21.4265C24.0183 21.4265 24.3761 21.4977 24.71 21.6361C25.0438 21.7745 25.3471 21.9773 25.6025 22.233ZM44.737 22.233C47.79 25.2861 49.5051 29.4269 49.5051 33.7445C49.5051 38.0621 47.79 42.2029 44.737 45.256C44.2184 45.7569 43.5237 46.0341 42.8027 46.0278C42.0816 46.0216 41.3919 45.7324 40.882 45.2225C40.3721 44.7126 40.0829 44.0229 40.0767 43.3018C40.0704 42.5808 40.3476 41.8862 40.8485 41.3675C41.8497 40.3665 42.6438 39.178 43.1856 37.8701C43.7274 36.5621 44.0063 35.1602 44.0063 33.7445C44.0063 32.3288 43.7274 30.9269 43.1856 29.6189C42.6438 28.311 41.8497 27.1225 40.8485 26.1215C40.3476 25.6028 40.0704 24.9082 40.0767 24.1871C40.0829 23.4661 40.3721 22.7764 40.882 22.2665C41.3919 21.7566 42.0816 21.4674 42.8027 21.4611C43.5237 21.4549 44.2184 21.7321 44.737 22.233ZM33.2255 29.8505C34.3195 29.8505 35.3687 30.2851 36.1423 31.0587C36.9159 31.8323 37.3505 32.8815 37.3505 33.9755C37.3505 35.0695 36.9159 36.1187 36.1423 36.8923C35.3687 37.6659 34.3195 38.1005 33.2255 38.1005C32.1315 38.1005 31.0823 37.6659 30.3087 36.8923C29.5351 36.1187 29.1005 35.0695 29.1005 33.9755C29.1005 32.8815 29.5351 31.8323 30.3087 31.0587C31.0823 30.2851 32.1315 29.8505 33.2255 29.8505Z" fill="white"/>
<circle cx="33.4024" cy="34.1524" r="5.23171" fill="#EA2625"/>
<rect x="32.25" y="36" width="2.25" height="46.5" fill="#EA2625"/>
</g>
<rect y="66.75" width="66" height="28.5" rx="2" fill="white"/>
<path d="M45.266 89.7V72.2999H58.1677V75.2435H48.7792V79.1009H57.5149V82.0326H48.7792V86.7684H58.5V89.7H45.266Z" fill="#EA2625"/>
<path d="M33.4919 89.7L27.2725 72.2999H31.0824L35.4859 85.1779L39.7469 72.2999H43.4738L37.2425 89.7H33.4919Z" fill="#EA2625"/>
<path d="M22.1805 89.7V72.2999H25.6938V89.7H22.1805Z" fill="#EA2625"/>
<path d="M7.52222 89.7V72.4424H11.0355V86.7684H19.7711V89.7H7.52222Z" fill="#EA2625"/>
<defs>
<clipPath id="clip0_1723_1573">
<rect width="66" height="66" fill="white" transform="translate(0 0.75)"/>
</clipPath>
</defs>
</svg>
