<svg width="60" height="60" viewBox="0 0 60 60" fill="none" xmlns="http://www.w3.org/2000/svg">
<g clip-path="url(#clip0_7097_2100)">
<path d="M40.834 4.0001C41.504 4.00595 42.1453 4.276 42.6191 4.75205C43.0928 5.22799 43.3613 5.87199 43.3672 6.54502C43.373 7.21818 43.1158 7.86742 42.6504 8.35166L34.9834 16.0538H47.8887C49.2442 16.0538 50.5444 16.5957 51.5029 17.5587C52.4613 18.5217 53 19.8277 53 21.1896V46.8653C52.9999 48.2272 52.4614 49.5332 51.5029 50.4962C50.5444 51.4592 49.2442 52.0001 47.8887 52.0001H12.1113C10.7558 52.0001 9.45558 51.4592 8.49707 50.4962C7.53862 49.5332 7.00007 48.2272 7 46.8653V21.1896C7 19.8277 7.53867 18.5217 8.49707 17.5587C9.45559 16.5957 10.7558 16.0538 12.1113 16.0538H21.4033L17.3496 11.9825C17.1055 11.7457 16.9113 11.4618 16.7773 11.1485C16.6434 10.8353 16.5733 10.4982 16.5703 10.1573C16.5674 9.81658 16.6314 9.47858 16.7598 9.16318C16.8883 8.84764 17.0784 8.56051 17.3184 8.31943C17.5582 8.07852 17.8434 7.88796 18.1572 7.75889C18.4713 7.6298 18.8082 7.56453 19.1475 7.56748C19.4868 7.57044 19.822 7.64192 20.1338 7.77646C20.4456 7.91103 20.7281 8.10643 20.9639 8.35166L27.2881 14.7062C27.5277 14.9468 27.8536 15.0821 28.1924 15.0821C28.531 15.082 28.8562 14.9467 29.0957 14.7062L39.0361 4.7208C39.5181 4.25311 40.1639 3.99426 40.834 4.0001ZM25.2383 24.9337C24.7449 24.9611 24.2648 25.1045 23.8369 25.3526C23.4089 25.601 23.0445 25.9477 22.7744 26.3634C22.5045 26.779 22.336 27.253 22.2822 27.7462C22.1544 28.9085 21.9551 31.1514 21.9551 34.0763C21.9511 36.1903 22.0604 38.3031 22.2822 40.4054C22.3353 40.8989 22.5036 41.3732 22.7734 41.7892C23.0434 42.2052 23.4076 42.5517 23.8359 42.7999C24.2641 43.0481 24.7446 43.1912 25.2383 43.2179C25.7321 43.2446 26.2254 43.1539 26.6777 42.9532C27.7383 42.4888 29.752 41.5473 32.2998 40.0694C34.1303 39.0207 35.9008 37.8695 37.6025 36.6212C39.3148 35.3511 39.3097 32.7979 37.6025 31.5304C35.9009 30.2803 34.1304 29.1276 32.2998 28.0772C30.481 27.0119 28.604 26.0494 26.6777 25.1954C26.2251 24.9959 25.7318 24.9063 25.2383 24.9337Z" fill="white"/>
</g>
<defs>
<clipPath id="clip0_7097_2100">
<rect width="60" height="60" fill="white"/>
</clipPath>
</defs>
</svg>
