<svg width="140" height="140" viewBox="0 0 140 140" fill="none" xmlns="http://www.w3.org/2000/svg">
<g clip-path="url(#clip0_7558_3713)">
<path d="M2.9876 69.1624C2.98432 80.9251 6.08182 92.4105 11.9717 102.534L2.42432 137.123L38.0981 127.841C47.965 133.171 59.0201 135.964 70.2543 135.965H70.2838C107.37 135.965 137.559 106.02 137.575 69.215C137.582 51.3802 130.589 34.6095 117.883 21.9921C105.179 9.37586 88.2831 2.42416 70.2811 2.41602C33.1904 2.41602 3.00346 32.3586 2.98814 69.1624" fill="url(#paint0_linear_7558_3713)"/>
<path d="M0.585156 69.1405C0.581328 81.3264 3.78984 93.2226 9.88969 103.709L0 139.537L36.9529 129.923C47.1346 135.432 58.5982 138.336 70.263 138.34H70.2931C108.71 138.34 139.984 107.319 140 69.1958C140.007 50.7202 132.762 33.3466 119.602 20.2772C106.44 7.20946 88.9399 0.0075969 70.2931 0C31.8697 0 0.600469 31.0171 0.585156 69.1405ZM22.592 101.903L21.2122 99.7294C15.412 90.5784 12.3506 80.0035 12.355 69.1448C12.367 37.4576 38.3567 11.6775 70.315 11.6775C85.7916 11.684 100.336 17.6704 111.276 28.5318C122.215 39.3943 128.235 53.8338 128.231 69.1915C128.216 100.879 102.226 126.662 70.2931 126.662H70.2702C59.8724 126.657 49.6748 123.886 40.7816 118.65L38.6652 117.405L16.7366 123.109L22.592 101.903Z" fill="url(#paint1_linear_7558_3713)"/>
<path d="M52.8708 40.2353C51.5659 37.3577 50.1927 37.2997 48.9519 37.2492C47.9358 37.2058 46.7742 37.209 45.6137 37.209C44.4522 37.209 42.5649 37.6426 40.9697 39.3709C39.3728 41.1008 34.8731 45.2813 34.8731 53.7838C34.8731 62.2864 41.1146 70.5041 41.9847 71.6583C42.8558 72.8103 54.034 90.8171 71.7374 97.7444C86.4505 103.501 89.4447 102.356 92.6379 102.068C95.8316 101.78 102.943 97.8882 104.394 93.8526C105.846 89.8176 105.846 86.3588 105.411 85.636C104.975 84.9159 103.814 84.4835 102.072 83.6196C100.33 82.7557 91.7667 78.5742 90.1704 77.9973C88.5735 77.4211 87.4125 77.1335 86.2509 78.8639C85.0894 80.5917 81.754 84.4835 80.7373 85.636C79.7218 86.7913 78.7051 86.9351 76.9639 86.0707C75.221 85.2035 69.6117 83.3808 62.9568 77.4938C57.779 72.9128 54.2833 67.2559 53.2672 65.5254C52.2512 63.7976 53.1584 62.8611 54.0318 61.9999C54.8144 61.2256 55.7741 59.9818 56.6458 58.9731C57.5143 57.9638 57.8041 57.2437 58.3849 56.0911C58.9662 54.9375 58.6753 53.9282 58.2405 53.0638C57.8041 52.1994 54.4195 43.6523 52.8708 40.2353Z" fill="white"/>
</g>
<defs>
<linearGradient id="paint0_linear_7558_3713" x1="6759.97" y1="13473.1" x2="6759.97" y2="2.41602" gradientUnits="userSpaceOnUse">
<stop stop-color="#1FAF38"/>
<stop offset="1" stop-color="#60D669"/>
</linearGradient>
<linearGradient id="paint1_linear_7558_3713" x1="7000" y1="13953.7" x2="7000" y2="0" gradientUnits="userSpaceOnUse">
<stop stop-color="#F9F9F9"/>
<stop offset="1" stop-color="white"/>
</linearGradient>
<clipPath id="clip0_7558_3713">
<rect width="140" height="140" fill="white"/>
</clipPath>
</defs>
</svg>
