<svg width="140" height="140" viewBox="0 0 140 140" fill="none" xmlns="http://www.w3.org/2000/svg">
<path d="M70 12C54.6209 12 39.8581 18.1145 28.9922 28.9877C18.1151 39.8652 12.0031 54.6172 12 70C12 85.3763 18.1172 100.139 28.9922 111.012C39.8581 121.886 54.6209 128 70 128C85.3791 128 100.142 121.886 111.008 111.012C121.883 100.139 128 85.3763 128 70C128 54.6237 121.883 39.8608 111.008 28.9877C100.142 18.1145 85.3791 12 70 12Z" fill="url(#paint0_linear_7558_3710)"/>
<path d="M40.1241 69.5249C56.2332 62.4694 66.9727 57.8178 72.3424 55.5702C87.6919 49.1527 90.8774 48.0381 92.958 48.0003C93.4155 47.993 94.4342 48.1067 95.099 48.647C95.6515 49.1028 95.8069 49.7191 95.8846 50.1518C95.9536 50.5841 96.0486 51.5693 95.9709 52.3384C95.1421 61.1231 91.5422 82.4406 89.712 92.28C88.9437 96.4431 87.4156 97.8389 85.9394 97.9752C82.7279 98.2721 80.2934 95.8433 77.1855 93.7956C72.3251 90.5899 69.5799 88.5951 64.8576 85.4675C59.4016 81.8529 62.9411 79.866 66.049 76.6195C66.8605 75.7697 81.0013 62.8401 81.2689 61.6673C81.3035 61.5206 81.338 60.9738 81.0099 60.6856C80.6905 60.3965 80.2157 60.4955 79.8704 60.5736C79.3783 60.6847 71.6172 65.8479 56.5613 76.0622C54.3599 77.5847 52.3657 78.3269 50.57 78.2879C48.6017 78.2453 44.8032 77.1663 41.9802 76.2445C38.527 75.1134 35.7731 74.5153 36.0148 72.5943C36.1356 71.5943 37.5083 70.5709 40.1241 69.5249Z" fill="white"/>
<defs>
<linearGradient id="paint0_linear_7558_3710" x1="5812" y1="12" x2="5812" y2="11612" gradientUnits="userSpaceOnUse">
<stop stop-color="#2AABEE"/>
<stop offset="1" stop-color="#229ED9"/>
</linearGradient>
</defs>
</svg>
