<svg width="68" height="68" viewBox="0 0 68 68" fill="none" xmlns="http://www.w3.org/2000/svg">
<rect x="22" y="20" width="23" height="23" fill="white"/>
<path fill-rule="evenodd" clip-rule="evenodd" d="M36.5001 55.5924L37.7467 53.4856C38.7127 51.8526 39.1957 51.0338 39.9731 50.583C40.7505 50.1299 41.728 50.1138 43.683 50.0793C46.5718 50.031 48.3819 49.8539 49.8999 49.2237C51.2952 48.6458 52.5629 47.7987 53.6308 46.7308C54.6987 45.6629 55.5458 44.3952 56.1237 42.9999C57 40.8885 57 38.209 57 32.85V30.55C57 23.0221 57 19.257 55.3049 16.4924C54.3572 14.945 53.0568 13.6437 51.5099 12.6951C48.743 11 44.9779 11 37.45 11H30.55C23.0221 11 19.257 11 16.4924 12.6951C14.945 13.6428 13.6437 14.9432 12.6951 16.4901C11 19.257 11 23.0244 11 30.55V32.85C11 38.209 11 40.8885 11.874 42.9999C12.4522 44.3954 13.2996 45.6633 14.3679 46.7312C15.4362 47.799 16.7044 48.646 18.1001 49.2237C19.6181 49.8539 21.4282 50.0287 24.317 50.0793C26.272 50.1138 27.2495 50.1299 28.0269 50.583C28.802 51.0338 29.2873 51.8503 30.2533 53.4856L31.4999 55.5924C32.6108 57.4692 35.3869 57.4692 36.5001 55.5924ZM23.65 28.7445C23.65 32.7741 28.6249 37.059 31.677 39.3084C32.7212 40.0789 33.2433 40.463 34 40.463C34.7567 40.463 35.2788 40.0789 36.323 39.3084C39.3751 37.059 44.35 32.7764 44.35 28.7445C44.35 22.5874 38.6575 20.2874 34 25.0438C29.3425 20.2874 23.65 22.5874 23.65 28.7445Z" fill="#EA2625"/>
</svg>
