<svg width="68" height="68" viewBox="0 0 68 68" fill="none" xmlns="http://www.w3.org/2000/svg">
<path d="M45.2823 8.75509C45.766 8.27161 46.4218 8 47.1057 8C47.7895 8 48.4454 8.27161 48.929 8.75509L59.2449 19.071C59.7284 19.5546 60 20.2105 60 20.8943C60 21.5782 59.7284 22.234 59.2449 22.7177L25.7182 56.2444C25.2347 56.728 24.5788 56.9999 23.8949 57H13.579C12.895 57 12.239 56.7283 11.7554 56.2446C11.2717 55.761 11 55.105 11 54.421V44.1051C11.0001 43.4212 11.272 42.7653 11.7556 42.2818L37.5454 16.492L45.2823 8.75509ZM39.3687 21.962L16.158 45.1728V51.842H22.8272L46.038 28.6313L39.3687 21.962ZM49.6846 24.9846L53.7749 20.8943L47.1057 14.2251L43.0154 18.3154L49.6846 24.9846Z" fill="white"/>
</svg>
