<svg width="80" height="80" viewBox="0 0 80 80" fill="none" xmlns="http://www.w3.org/2000/svg">
<path d="M36.6666 6.66663C53.2266 6.66663 66.6666 20.1066 66.6666 36.6666C66.6666 53.2266 53.2266 66.6666 36.6666 66.6666C20.1066 66.6666 6.66663 53.2266 6.66663 36.6666C6.66663 20.1066 20.1066 6.66663 36.6666 6.66663ZM36.6666 60C49.5566 60 60 49.5566 60 36.6666C60 23.7766 49.5566 13.3333 36.6666 13.3333C23.7766 13.3333 13.3333 23.7766 13.3333 36.6666C13.3333 49.5566 23.7766 60 36.6666 60ZM62.5933 62.5933C63.8949 61.2917 66.0052 61.2915 67.307 62.5929L72.0212 67.3054C73.3238 68.6075 73.324 70.7192 72.0216 72.0216C70.7192 73.324 68.6075 73.3238 67.3054 72.0212L62.5929 67.307C61.2915 66.0052 61.2917 63.8949 62.5933 62.5933Z" fill="white"/>
</svg>
