<svg width="80" height="80" viewBox="0 0 80 80" fill="none" xmlns="http://www.w3.org/2000/svg">
<path fill-rule="evenodd" clip-rule="evenodd" d="M35.4237 11.0508C31.4501 11.0511 27.5343 12.0017 24.0028 13.8232C20.4713 15.6447 17.4266 18.2844 15.1228 21.5219C12.8189 24.7594 11.3227 28.5009 10.759 32.4343C10.1952 36.3676 10.5803 40.3788 11.882 44.1331C13.1837 47.8874 15.3644 51.2759 18.2421 54.016C21.1197 56.7562 24.6109 58.7684 28.4244 59.8848C32.2379 61.0013 36.2631 61.1895 40.1642 60.434C44.0653 59.6784 47.7291 58.0008 50.85 55.5413L61.5563 66.2476C62.1092 66.7817 62.8498 67.0772 63.6184 67.0705C64.3871 67.0638 65.1224 66.7555 65.6659 66.2119C66.2095 65.6684 66.5178 64.9331 66.5245 64.1644C66.5311 63.3958 66.2357 62.6552 65.7016 62.1023L54.9953 51.396C57.8917 47.7215 59.6952 43.3058 60.1992 38.6543C60.7033 34.0027 59.8876 29.3032 57.8455 25.0936C55.8034 20.884 52.6174 17.3343 48.6521 14.8509C44.6868 12.3674 40.1025 11.0505 35.4237 11.0508ZM16.368 35.9697C16.368 30.9158 18.3757 26.0689 21.9493 22.4953C25.5229 18.9217 30.3698 16.9141 35.4237 16.9141C40.4776 16.9141 45.3244 18.9217 48.8981 22.4953C52.4717 26.0689 54.4793 30.9158 54.4793 35.9697C54.4793 41.0236 52.4717 45.8704 48.8981 49.4441C45.3244 53.0177 40.4776 55.0253 35.4237 55.0253C30.3698 55.0253 25.5229 53.0177 21.9493 49.4441C18.3757 45.8704 16.368 41.0236 16.368 35.9697Z" fill="white"/>
</svg>
