<svg width="68" height="68" viewBox="0 0 68 68" fill="none" xmlns="http://www.w3.org/2000/svg">
<path d="M45.8029 26.6629H41.7143V16.5285C41.7143 15.1142 40.5571 13.957 39.1429 13.957H28.8571C27.4429 13.957 26.2857 15.1142 26.2857 16.5285V26.6629H22.1971C19.9086 26.6629 18.7514 29.4401 20.3714 31.0601L32.1743 42.8629C33.1771 43.8658 34.7971 43.8658 35.8 42.8629L47.6029 31.0601C49.2229 29.4401 48.0914 26.6629 45.8029 26.6629ZM16 51.4696C16 52.8839 17.1571 54.0411 18.5714 54.0411H49.4286C50.8429 54.0411 52 52.8839 52 51.4696C52 50.0553 50.8429 48.8982 49.4286 48.8982H18.5714C17.1571 48.8982 16 50.0553 16 51.4696Z" fill="white"/>
</svg>
