<svg width="60" height="60" viewBox="0 0 60 60" fill="none" xmlns="http://www.w3.org/2000/svg">
<path d="M30 55C43.8075 55 55 43.8075 55 30C55 16.1925 43.8075 5 30 5C16.1925 5 5 16.1925 5 30C5 43.8075 16.1925 55 30 55Z" stroke="#727272" stroke-width="4.5" stroke-linecap="round" stroke-linejoin="round"/>
<path d="M30 28.75C31.6576 28.75 33.2473 28.0915 34.4194 26.9194C35.5915 25.7473 36.25 24.1576 36.25 22.5C36.25 20.8424 35.5915 19.2527 34.4194 18.0806C33.2473 16.9085 31.6576 16.25 30 16.25C28.3424 16.25 26.7527 16.9085 25.5806 18.0806C24.4085 19.2527 23.75 20.8424 23.75 22.5C23.75 24.1576 24.4085 25.7473 25.5806 26.9194C26.7527 28.0915 28.3424 28.75 30 28.75Z" fill="#727272" stroke="#727272" stroke-width="4.5" stroke-linejoin="round"/>
<path d="M12.5275 47.915C12.9575 41.4013 18.3775 36.25 25 36.25H35C41.6137 36.25 47.0287 41.3875 47.4712 47.8888" stroke="#727272" stroke-width="4.5" stroke-linecap="round" stroke-linejoin="round"/>
</svg>
