<svg width="940" height="500" viewBox="0 0 940 500" fill="none" xmlns="http://www.w3.org/2000/svg">
<path d="M940 500H928.41C928.323 494.423 921.57 489.919 913.251 489.919C904.932 489.919 898.179 494.423 898.092 500H888.088C888.001 494.423 881.248 489.919 872.929 489.919C864.609 489.919 857.856 494.423 857.77 500H847.766C847.679 494.423 840.926 489.919 832.606 489.919C824.287 489.919 817.534 494.423 817.447 500H807.443C807.357 494.423 800.603 489.919 792.284 489.919C783.965 489.919 777.212 494.423 777.125 500H767.121C767.034 494.423 760.281 489.919 751.962 489.919C743.643 489.919 736.89 494.423 736.803 500H726.799C726.712 494.423 719.959 489.919 711.64 489.919C703.32 489.919 696.567 494.423 696.48 500H686.477C686.39 494.423 679.637 489.919 671.317 489.919C662.998 489.919 656.245 494.423 656.158 500H646.154C646.067 494.423 639.314 489.919 630.995 489.919C622.676 489.919 615.923 494.423 615.836 500H605.832C605.745 494.423 598.992 489.919 590.673 489.919C582.354 489.919 575.601 494.423 575.514 500H565.51C565.423 494.423 558.67 489.919 550.351 489.919C542.031 489.919 535.278 494.423 535.191 500H525.188C525.101 494.423 518.348 489.919 510.028 489.919C501.709 489.919 494.956 494.423 494.869 500H484.865C484.778 494.423 478.025 489.919 469.706 489.919C461.387 489.919 454.634 494.423 454.547 500H444.543C444.456 494.423 437.703 489.919 429.384 489.919C421.065 489.919 414.311 494.423 414.225 500H404.221C404.134 494.423 397.381 489.919 389.062 489.919C380.742 489.919 373.989 494.423 373.902 500H363.898C363.812 494.423 357.059 489.919 348.739 489.919C340.42 489.919 333.667 494.423 333.58 500H323.576C323.489 494.423 316.736 489.919 308.417 489.919C300.098 489.919 293.345 494.423 293.258 500H283.254C283.167 494.423 276.414 489.919 268.095 489.919C259.776 489.919 253.022 494.423 252.936 500H242.932C242.845 494.423 236.092 489.919 227.772 489.919C219.453 489.919 212.7 494.423 212.613 500H202.609C202.523 494.423 195.769 489.919 187.45 489.919C179.131 489.919 172.378 494.423 172.291 500H162.287C162.2 494.423 155.447 489.919 147.128 489.919C138.809 489.919 132.056 494.423 131.969 500H121.965C121.878 494.423 115.125 489.919 106.806 489.919C98.4864 489.919 91.7333 494.423 91.6465 500H81.6426C81.5557 494.423 74.8027 489.919 66.4834 489.919C58.1642 489.919 51.4111 494.423 51.3242 500H41.3203C41.2335 494.423 34.4804 489.919 26.1611 489.919C17.8419 489.919 11.0888 494.423 11.002 500H0V0H940V500Z" fill="url(#paint0_linear_9656_825)"/>
<defs>
<linearGradient id="paint0_linear_9656_825" x1="470" y1="6.84494e-06" x2="600.526" y2="534.201" gradientUnits="userSpaceOnUse">
<stop stop-color="#222222"/>
<stop offset="1" stop-color="#5D5B5B"/>
</linearGradient>
</defs>
</svg>
