<svg width="940" height="744" viewBox="0 0 940 744" fill="none" xmlns="http://www.w3.org/2000/svg">
<path d="M940 744H928.41C928.324 735.701 921.57 729 913.251 729C904.932 729 898.178 735.701 898.092 744H888.088C888.001 735.701 881.248 729 872.929 729C864.609 729 857.856 735.701 857.77 744H847.766C847.679 735.701 840.926 729 832.606 729C824.287 729 817.534 735.701 817.447 744H807.443C807.357 735.701 800.604 729 792.284 729C783.965 729 777.211 735.701 777.125 744H767.121C767.035 735.701 760.281 729 751.962 729C743.642 729 736.889 735.701 736.803 744H726.799C726.712 735.701 719.959 729 711.64 729C703.32 729 696.567 735.701 696.48 744H686.477C686.39 735.701 679.637 729 671.317 729C662.998 729 656.245 735.701 656.158 744H646.154C646.068 735.701 639.315 729 630.995 729C622.676 729 615.922 735.701 615.836 744H605.832C605.746 735.701 598.992 729 590.673 729C582.353 729 575.6 735.701 575.514 744H565.51C565.423 735.701 558.67 729 550.351 729C542.031 729 535.278 735.701 535.191 744H525.188C525.101 735.701 518.348 729 510.028 729C501.709 729 494.956 735.701 494.869 744H484.865C484.779 735.701 478.026 729 469.706 729C461.387 729 454.633 735.701 454.547 744H444.543C444.456 735.701 437.703 729 429.384 729C421.064 729 414.311 735.701 414.225 744H404.221C404.134 735.701 397.381 729 389.062 729C380.742 729 373.989 735.701 373.902 744H363.898C363.812 735.701 357.059 729 348.739 729C340.42 729 333.667 735.701 333.58 744H323.576C323.49 735.701 316.737 729 308.417 729C300.098 729 293.344 735.701 293.258 744H283.254C283.167 735.701 276.414 729 268.095 729C259.775 729 253.022 735.701 252.936 744H242.932C242.845 735.701 236.092 729 227.772 729C219.453 729 212.7 735.701 212.613 744H202.609C202.523 735.701 195.77 729 187.45 729C179.131 729 172.378 735.701 172.291 744H162.287C162.201 735.701 155.447 729 147.128 729C138.808 729 132.055 735.701 131.969 744H121.965C121.878 735.701 115.125 729 106.806 729C98.4862 729 91.733 735.701 91.6465 744H81.6426C81.5561 735.701 74.8029 729 66.4834 729C58.164 729 51.4107 735.701 51.3242 744H41.3203C41.2338 735.701 34.4806 729 26.1611 729C17.8417 729 11.0885 735.701 11.002 744H0V0H940V744Z" fill="url(#paint0_linear_9652_458)"/>
<defs>
<linearGradient id="paint0_linear_9652_458" x1="470" y1="1.01853e-05" x2="740.5" y2="744" gradientUnits="userSpaceOnUse">
<stop stop-color="#222222"/>
<stop offset="1" stop-color="#5D5B5B"/>
</linearGradient>
</defs>
</svg>
