<svg width="88" height="88" viewBox="0 0 88 88" fill="none" xmlns="http://www.w3.org/2000/svg">
<path d="M11 16.511C11 15.5023 11.2775 14.5131 11.8019 13.6515C12.3264 12.7899 13.0777 12.0891 13.9737 11.6257C14.8697 11.1624 15.8758 10.9544 16.882 11.0245C17.8883 11.0945 18.8559 11.44 19.679 12.023L58.179 39.3195C58.8942 39.8252 59.4782 40.4944 59.8825 41.2714C60.2869 42.0484 60.4998 42.9107 60.5035 43.7866C60.5073 44.6625 60.3018 45.5266 59.9042 46.307C59.5066 47.0875 58.9283 47.7617 58.2175 48.2735L19.7175 75.977C18.8962 76.5694 17.9272 76.9236 16.9174 77.0005C15.9076 77.0773 14.8963 76.8739 13.9947 76.4126C13.0932 75.9513 12.3365 75.2501 11.8081 74.3861C11.2797 73.5222 11 72.5292 11 71.5165V16.511ZM77 13.75C77 13.0207 76.7103 12.3212 76.1945 11.8055C75.6788 11.2897 74.9793 11 74.25 11C73.5207 11 72.8212 11.2897 72.3055 11.8055C71.7897 12.3212 71.5 13.0207 71.5 13.75V74.25C71.5 74.9794 71.7897 75.6788 72.3055 76.1945C72.8212 76.7103 73.5207 77 74.25 77C74.9793 77 75.6788 76.7103 76.1945 76.1945C76.7103 75.6788 77 74.9794 77 74.25V13.75Z" fill="white"/>
<rect x="70.3999" y="10.2656" width="8.8" height="67.4667" rx="3" fill="white"/>
</svg>
