<svg width="60" height="60" viewBox="0 0 60 60" fill="none" xmlns="http://www.w3.org/2000/svg">
<path d="M60 30C60 46.5685 46.5685 60 30 60C13.4315 60 0 46.5685 0 30C0 13.4315 13.4315 0 30 0C46.5685 0 60 13.4315 60 30Z" fill="#000002" fill-opacity="0.3"/>
<path fill-rule="evenodd" clip-rule="evenodd" d="M30 58C45.464 58 58 45.464 58 30C58 14.536 45.464 2 30 2C14.536 2 2 14.536 2 30C2 45.464 14.536 58 30 58ZM30 60C46.5685 60 60 46.5685 60 30C60 13.4315 46.5685 0 30 0C13.4315 0 0 13.4315 0 30C0 46.5685 13.4315 60 30 60Z" fill="white"/>
<path d="M21.5 20.1633C21.5 18.581 23.2505 17.6253 24.5815 18.481L39.883 28.3176C41.1076 29.1049 41.1076 30.8951 39.883 31.6824L24.5815 41.519C23.2505 42.3747 21.5 41.419 21.5 39.8367V20.1633Z" fill="white"/>
</svg>
