<svg width="88" height="88" viewBox="0 0 88 88" fill="none" xmlns="http://www.w3.org/2000/svg">
<path d="M77 16.511C77 15.5023 76.7225 14.5131 76.1981 13.6515C75.6736 12.7899 74.9223 12.0891 74.0263 11.6257C73.1303 11.1624 72.1242 10.9544 71.118 11.0245C70.1117 11.0945 69.1441 11.44 68.321 12.023L29.821 39.3195C29.1058 39.8252 28.5218 40.4944 28.1175 41.2714C27.7131 42.0484 27.5002 42.9107 27.4965 43.7866C27.4927 44.6625 27.6982 45.5266 28.0958 46.307C28.4934 47.0875 29.0717 47.7617 29.7825 48.2735L68.2825 75.977C69.1038 76.5694 70.0728 76.9236 71.0826 77.0005C72.0924 77.0773 73.1037 76.8739 74.0053 76.4126C74.9068 75.9513 75.6635 75.2501 76.1919 74.3861C76.7203 73.5222 77 72.5292 77 71.5165V16.511ZM11 13.75C11 13.0207 11.2897 12.3212 11.8055 11.8055C12.3212 11.2897 13.0207 11 13.75 11C14.4793 11 15.1788 11.2897 15.6945 11.8055C16.2103 12.3212 16.5 13.0207 16.5 13.75V74.25C16.5 74.9794 16.2103 75.6788 15.6945 76.1945C15.1788 76.7103 14.4793 77 13.75 77C13.0207 77 12.3212 76.7103 11.8055 76.1945C11.2897 75.6788 11 74.9794 11 74.25V13.75Z" fill="white"/>
<rect width="8.8" height="67.4667" rx="3" transform="matrix(-1 0 0 1 17.6 10.2656)" fill="white"/>
</svg>
