<svg width="280" height="280" viewBox="0 0 280 280" fill="none" xmlns="http://www.w3.org/2000/svg">
<rect width="280" height="280" rx="12" fill="white"/>
<rect width="266" height="266" transform="translate(8.3999 8.3999)" fill="white"/>
<g clip-path="url(#clip0_419_1651)">
<rect width="266" height="266" transform="translate(8.3999 8.3999)" fill="white"/>
<path d="M274.4 8.3999H8.3999V274.4H274.4V8.3999Z" fill="url(#paint0_linear_419_1651)"/>
<path d="M21.6999 83.7661H12.8333V92.6328H21.6999V83.7661Z" fill="black"/>
<path d="M21.6999 92.6328H12.8333V101.499H21.6999V92.6328Z" fill="black"/>
<path d="M21.6999 101.5H12.8333V110.366H21.6999V101.5Z" fill="black"/>
<path d="M21.6999 110.366H12.8333V119.233H21.6999V110.366Z" fill="black"/>
<path d="M21.6999 128.1H12.8333V136.966H21.6999V128.1Z" fill="black"/>
<path d="M21.6999 163.566H12.8333V172.433H21.6999V163.566Z" fill="black"/>
<path d="M21.6999 172.433H12.8333V181.3H21.6999V172.433Z" fill="black"/>
<path d="M30.5666 83.7661H21.7V92.6328H30.5666V83.7661Z" fill="black"/>
<path d="M30.5666 92.6328H21.7V101.499H30.5666V92.6328Z" fill="black"/>
<path d="M30.5666 110.366H21.7V119.233H30.5666V110.366Z" fill="black"/>
<path d="M30.5666 119.233H21.7V128.1H30.5666V119.233Z" fill="black"/>
<path d="M30.5666 128.1H21.7V136.966H30.5666V128.1Z" fill="black"/>
<path d="M30.5666 154.7H21.7V163.566H30.5666V154.7Z" fill="black"/>
<path d="M30.5666 163.566H21.7V172.433H30.5666V163.566Z" fill="black"/>
<path d="M30.5666 172.433H21.7V181.3H30.5666V172.433Z" fill="black"/>
<path d="M39.4333 83.7661H30.5667V92.6328H39.4333V83.7661Z" fill="black"/>
<path d="M39.4333 101.5H30.5667V110.366H39.4333V101.5Z" fill="black"/>
<path d="M39.4333 136.966H30.5667V145.833H39.4333V136.966Z" fill="black"/>
<path d="M39.4333 154.7H30.5667V163.566H39.4333V154.7Z" fill="black"/>
<path d="M39.4333 181.3H30.5667V190.166H39.4333V181.3Z" fill="black"/>
<path d="M48.3 83.7661H39.4333V92.6328H48.3V83.7661Z" fill="black"/>
<path d="M48.3 101.5H39.4333V110.366H48.3V101.5Z" fill="black"/>
<path d="M48.3 128.1H39.4333V136.966H48.3V128.1Z" fill="black"/>
<path d="M48.3 154.7H39.4333V163.566H48.3V154.7Z" fill="black"/>
<path d="M48.3 172.433H39.4333V181.3H48.3V172.433Z" fill="black"/>
<path d="M57.1665 83.7661H48.2998V92.6328H57.1665V83.7661Z" fill="black"/>
<path d="M57.1665 92.6328H48.2998V101.499H57.1665V92.6328Z" fill="black"/>
<path d="M57.1665 181.3H48.2998V190.166H57.1665V181.3Z" fill="black"/>
<path d="M57.1665 190.167H48.2998V199.033H57.1665V190.167Z" fill="black"/>
<path d="M66.0332 110.366H57.1665V119.233H66.0332V110.366Z" fill="black"/>
<path d="M66.0332 128.1H57.1665V136.966H66.0332V128.1Z" fill="black"/>
<path d="M66.0332 136.966H57.1665V145.833H66.0332V136.966Z" fill="black"/>
<path d="M66.0332 145.833H57.1665V154.7H66.0332V145.833Z" fill="black"/>
<path d="M66.0332 154.7H57.1665V163.566H66.0332V154.7Z" fill="black"/>
<path d="M66.0332 163.566H57.1665V172.433H66.0332V163.566Z" fill="black"/>
<path d="M66.0332 181.3H57.1665V190.166H66.0332V181.3Z" fill="black"/>
<path d="M66.0332 190.167H57.1665V199.033H66.0332V190.167Z" fill="black"/>
<path d="M74.8999 83.7661H66.0332V92.6328H74.8999V83.7661Z" fill="black"/>
<path d="M74.8999 101.5H66.0332V110.366H74.8999V101.5Z" fill="black"/>
<path d="M74.8999 119.233H66.0332V128.1H74.8999V119.233Z" fill="black"/>
<path d="M74.8999 136.966H66.0332V145.833H74.8999V136.966Z" fill="black"/>
<path d="M74.8999 154.7H66.0332V163.566H74.8999V154.7Z" fill="black"/>
<path d="M74.8999 172.433H66.0332V181.3H74.8999V172.433Z" fill="black"/>
<path d="M74.8999 190.167H66.0332V199.033H74.8999V190.167Z" fill="black"/>
<path d="M83.7666 83.7661H74.8999V92.6328H83.7666V83.7661Z" fill="black"/>
<path d="M83.7666 101.5H74.8999V110.366H83.7666V101.5Z" fill="black"/>
<path d="M83.7666 119.233H74.8999V128.1H83.7666V119.233Z" fill="black"/>
<path d="M83.7666 128.1H74.8999V136.966H83.7666V128.1Z" fill="black"/>
<path d="M83.7666 136.966H74.8999V145.833H83.7666V136.966Z" fill="black"/>
<path d="M83.7666 154.7H74.8999V163.566H83.7666V154.7Z" fill="black"/>
<path d="M83.7666 163.566H74.8999V172.433H83.7666V163.566Z" fill="black"/>
<path d="M83.7666 172.433H74.8999V181.3H83.7666V172.433Z" fill="black"/>
<path d="M83.7666 181.3H74.8999V190.166H83.7666V181.3Z" fill="black"/>
<path d="M83.7666 190.167H74.8999V199.033H83.7666V190.167Z" fill="black"/>
<path d="M92.6333 21.6997H83.7666V30.5664H92.6333V21.6997Z" fill="black"/>
<path d="M92.6333 30.5664H83.7666V39.4331H92.6333V30.5664Z" fill="black"/>
<path d="M92.6333 48.2998H83.7666V57.1665H92.6333V48.2998Z" fill="black"/>
<path d="M92.6333 66.0332H83.7666V74.8999H92.6333V66.0332Z" fill="black"/>
<path d="M92.6333 74.8999H83.7666V83.7666H92.6333V74.8999Z" fill="black"/>
<path d="M92.6333 92.6328H83.7666V101.499H92.6333V92.6328Z" fill="black"/>
<path d="M92.6333 119.233H83.7666V128.1H92.6333V119.233Z" fill="black"/>
<path d="M92.6333 136.966H83.7666V145.833H92.6333V136.966Z" fill="black"/>
<path d="M92.6333 154.7H83.7666V163.566H92.6333V154.7Z" fill="black"/>
<path d="M92.6333 172.433H83.7666V181.3H92.6333V172.433Z" fill="black"/>
<path d="M92.6333 190.167H83.7666V199.033H92.6333V190.167Z" fill="black"/>
<path d="M92.6333 207.9H83.7666V216.767H92.6333V207.9Z" fill="black"/>
<path d="M92.6333 225.633H83.7666V234.499H92.6333V225.633Z" fill="black"/>
<path d="M92.6333 234.5H83.7666V243.366H92.6333V234.5Z" fill="black"/>
<path d="M92.6333 243.366H83.7666V252.233H92.6333V243.366Z" fill="black"/>
<path d="M92.6333 252.233H83.7666V261.1H92.6333V252.233Z" fill="black"/>
<path d="M92.6333 261.1H83.7666V269.966H92.6333V261.1Z" fill="black"/>
<path d="M101.5 12.833H92.6333V21.6997H101.5V12.833Z" fill="black"/>
<path d="M101.5 39.4331H92.6333V48.2998H101.5V39.4331Z" fill="black"/>
<path d="M101.5 48.2998H92.6333V57.1665H101.5V48.2998Z" fill="black"/>
<path d="M101.5 57.1665H92.6333V66.0332H101.5V57.1665Z" fill="black"/>
<path d="M101.5 74.8999H92.6333V83.7666H101.5V74.8999Z" fill="black"/>
<path d="M101.5 83.7661H92.6333V92.6328H101.5V83.7661Z" fill="black"/>
<path d="M101.5 101.5H92.6333V110.366H101.5V101.5Z" fill="black"/>
<path d="M101.5 110.366H92.6333V119.233H101.5V110.366Z" fill="black"/>
<path d="M101.5 119.233H92.6333V128.1H101.5V119.233Z" fill="black"/>
<path d="M101.5 128.1H92.6333V136.966H101.5V128.1Z" fill="black"/>
<path d="M101.5 154.7H92.6333V163.566H101.5V154.7Z" fill="black"/>
<path d="M101.5 163.566H92.6333V172.433H101.5V163.566Z" fill="black"/>
<path d="M101.5 172.433H92.6333V181.3H101.5V172.433Z" fill="black"/>
<path d="M101.5 181.3H92.6333V190.166H101.5V181.3Z" fill="black"/>
<path d="M101.5 207.9H92.6333V216.767H101.5V207.9Z" fill="black"/>
<path d="M101.5 243.366H92.6333V252.233H101.5V243.366Z" fill="black"/>
<path d="M101.5 261.1H92.6333V269.966H101.5V261.1Z" fill="black"/>
<path d="M110.367 21.6997H101.5V30.5664H110.367V21.6997Z" fill="black"/>
<path d="M110.367 39.4331H101.5V48.2998H110.367V39.4331Z" fill="black"/>
<path d="M110.367 48.2998H101.5V57.1665H110.367V48.2998Z" fill="black"/>
<path d="M110.367 57.1665H101.5V66.0332H110.367V57.1665Z" fill="black"/>
<path d="M110.367 66.0332H101.5V74.8999H110.367V66.0332Z" fill="black"/>
<path d="M110.367 83.7661H101.5V92.6328H110.367V83.7661Z" fill="black"/>
<path d="M110.367 119.233H101.5V128.1H110.367V119.233Z" fill="black"/>
<path d="M110.367 128.1H101.5V136.966H110.367V128.1Z" fill="black"/>
<path d="M110.367 172.433H101.5V181.3H110.367V172.433Z" fill="black"/>
<path d="M110.367 216.766H101.5V225.633H110.367V216.766Z" fill="black"/>
<path d="M110.367 225.633H101.5V234.499H110.367V225.633Z" fill="black"/>
<path d="M110.367 234.5H101.5V243.366H110.367V234.5Z" fill="black"/>
<path d="M110.367 252.233H101.5V261.1H110.367V252.233Z" fill="black"/>
<path d="M110.367 261.1H101.5V269.966H110.367V261.1Z" fill="black"/>
<path d="M119.233 30.5664H110.367V39.4331H119.233V30.5664Z" fill="black"/>
<path d="M119.233 57.1665H110.367V66.0332H119.233V57.1665Z" fill="black"/>
<path d="M119.233 92.6328H110.367V101.499H119.233V92.6328Z" fill="black"/>
<path d="M119.233 101.5H110.367V110.366H119.233V101.5Z" fill="black"/>
<path d="M119.233 172.433H110.367V181.3H119.233V172.433Z" fill="black"/>
<path d="M119.233 181.3H110.367V190.166H119.233V181.3Z" fill="black"/>
<path d="M119.233 190.167H110.367V199.033H119.233V190.167Z" fill="black"/>
<path d="M119.233 199.033H110.367V207.9H119.233V199.033Z" fill="black"/>
<path d="M119.233 207.9H110.367V216.767H119.233V207.9Z" fill="black"/>
<path d="M119.233 252.233H110.367V261.1H119.233V252.233Z" fill="black"/>
<path d="M128.1 21.6997H119.233V30.5664H128.1V21.6997Z" fill="black"/>
<path d="M128.1 30.5664H119.233V39.4331H128.1V30.5664Z" fill="black"/>
<path d="M128.1 66.0332H119.233V74.8999H128.1V66.0332Z" fill="black"/>
<path d="M128.1 74.8999H119.233V83.7666H128.1V74.8999Z" fill="black"/>
<path d="M128.1 83.7661H119.233V92.6328H128.1V83.7661Z" fill="black"/>
<path d="M128.1 101.5H119.233V110.366H128.1V101.5Z" fill="black"/>
<path d="M128.1 190.167H119.233V199.033H128.1V190.167Z" fill="black"/>
<path d="M128.1 207.9H119.233V216.767H128.1V207.9Z" fill="black"/>
<path d="M128.1 216.766H119.233V225.633H128.1V216.766Z" fill="black"/>
<path d="M128.1 243.366H119.233V252.233H128.1V243.366Z" fill="black"/>
<path d="M136.967 12.833H128.1V21.6997H136.967V12.833Z" fill="black"/>
<path d="M136.967 21.6997H128.1V30.5664H136.967V21.6997Z" fill="black"/>
<path d="M136.967 30.5664H128.1V39.4331H136.967V30.5664Z" fill="black"/>
<path d="M136.967 39.4331H128.1V48.2998H136.967V39.4331Z" fill="black"/>
<path d="M136.967 48.2998H128.1V57.1665H136.967V48.2998Z" fill="black"/>
<path d="M136.967 74.8999H128.1V83.7666H136.967V74.8999Z" fill="black"/>
<path d="M136.967 92.6328H128.1V101.499H136.967V92.6328Z" fill="black"/>
<path d="M136.967 172.433H128.1V181.3H136.967V172.433Z" fill="black"/>
<path d="M136.967 190.167H128.1V199.033H136.967V190.167Z" fill="black"/>
<path d="M136.967 199.033H128.1V207.9H136.967V199.033Z" fill="black"/>
<path d="M136.967 207.9H128.1V216.767H136.967V207.9Z" fill="black"/>
<path d="M136.967 216.766H128.1V225.633H136.967V216.766Z" fill="black"/>
<path d="M136.967 252.233H128.1V261.1H136.967V252.233Z" fill="black"/>
<path d="M136.967 261.1H128.1V269.966H136.967V261.1Z" fill="black"/>
<path d="M145.833 21.6997H136.967V30.5664H145.833V21.6997Z" fill="black"/>
<path d="M145.833 39.4331H136.967V48.2998H145.833V39.4331Z" fill="black"/>
<path d="M145.833 66.0332H136.967V74.8999H145.833V66.0332Z" fill="black"/>
<path d="M145.833 74.8999H136.967V83.7666H145.833V74.8999Z" fill="black"/>
<path d="M145.833 199.033H136.967V207.9H145.833V199.033Z" fill="black"/>
<path d="M145.833 207.9H136.967V216.767H145.833V207.9Z" fill="black"/>
<path d="M145.833 216.766H136.967V225.633H145.833V216.766Z" fill="black"/>
<path d="M145.833 243.366H136.967V252.233H145.833V243.366Z" fill="black"/>
<path d="M145.833 261.1H136.967V269.966H145.833V261.1Z" fill="black"/>
<path d="M154.7 21.6997H145.833V30.5664H154.7V21.6997Z" fill="black"/>
<path d="M154.7 83.7661H145.833V92.6328H154.7V83.7661Z" fill="black"/>
<path d="M154.7 92.6328H145.833V101.499H154.7V92.6328Z" fill="black"/>
<path d="M154.7 101.5H145.833V110.366H154.7V101.5Z" fill="black"/>
<path d="M154.7 181.3H145.833V190.166H154.7V181.3Z" fill="black"/>
<path d="M154.7 190.167H145.833V199.033H154.7V190.167Z" fill="black"/>
<path d="M154.7 216.766H145.833V225.633H154.7V216.766Z" fill="black"/>
<path d="M163.567 30.5664H154.7V39.4331H163.567V30.5664Z" fill="black"/>
<path d="M163.567 39.4331H154.7V48.2998H163.567V39.4331Z" fill="black"/>
<path d="M163.567 48.2998H154.7V57.1665H163.567V48.2998Z" fill="black"/>
<path d="M163.567 66.0332H154.7V74.8999H163.567V66.0332Z" fill="black"/>
<path d="M163.567 74.8999H154.7V83.7666H163.567V74.8999Z" fill="black"/>
<path d="M163.567 83.7661H154.7V92.6328H163.567V83.7661Z" fill="black"/>
<path d="M163.567 101.5H154.7V110.366H163.567V101.5Z" fill="black"/>
<path d="M163.567 181.3H154.7V190.166H163.567V181.3Z" fill="black"/>
<path d="M163.567 190.167H154.7V199.033H163.567V190.167Z" fill="black"/>
<path d="M163.567 199.033H154.7V207.9H163.567V199.033Z" fill="black"/>
<path d="M163.567 207.9H154.7V216.767H163.567V207.9Z" fill="black"/>
<path d="M163.567 216.766H154.7V225.633H163.567V216.766Z" fill="black"/>
<path d="M163.567 234.5H154.7V243.366H163.567V234.5Z" fill="black"/>
<path d="M163.567 252.233H154.7V261.1H163.567V252.233Z" fill="black"/>
<path d="M172.433 30.5664H163.567V39.4331H172.433V30.5664Z" fill="black"/>
<path d="M172.433 39.4331H163.567V48.2998H172.433V39.4331Z" fill="black"/>
<path d="M172.433 48.2998H163.567V57.1665H172.433V48.2998Z" fill="black"/>
<path d="M172.433 57.1665H163.567V66.0332H172.433V57.1665Z" fill="black"/>
<path d="M172.433 74.8999H163.567V83.7666H172.433V74.8999Z" fill="black"/>
<path d="M172.433 92.6328H163.567V101.499H172.433V92.6328Z" fill="black"/>
<path d="M172.433 181.3H163.567V190.166H172.433V181.3Z" fill="black"/>
<path d="M172.433 190.167H163.567V199.033H172.433V190.167Z" fill="black"/>
<path d="M172.433 207.9H163.567V216.767H172.433V207.9Z" fill="black"/>
<path d="M172.433 243.366H163.567V252.233H172.433V243.366Z" fill="black"/>
<path d="M172.433 252.233H163.567V261.1H172.433V252.233Z" fill="black"/>
<path d="M172.433 261.1H163.567V269.966H172.433V261.1Z" fill="black"/>
<path d="M181.3 12.833H172.433V21.6997H181.3V12.833Z" fill="black"/>
<path d="M181.3 30.5664H172.433V39.4331H181.3V30.5664Z" fill="black"/>
<path d="M181.3 48.2998H172.433V57.1665H181.3V48.2998Z" fill="black"/>
<path d="M181.3 66.0332H172.433V74.8999H181.3V66.0332Z" fill="black"/>
<path d="M181.3 83.7661H172.433V92.6328H181.3V83.7661Z" fill="black"/>
<path d="M181.3 92.6328H172.433V101.499H181.3V92.6328Z" fill="black"/>
<path d="M181.3 128.1H172.433V136.966H181.3V128.1Z" fill="black"/>
<path d="M181.3 136.966H172.433V145.833H181.3V136.966Z" fill="black"/>
<path d="M181.3 163.566H172.433V172.433H181.3V163.566Z" fill="black"/>
<path d="M181.3 172.433H172.433V181.3H181.3V172.433Z" fill="black"/>
<path d="M181.3 199.033H172.433V207.9H181.3V199.033Z" fill="black"/>
<path d="M181.3 225.633H172.433V234.499H181.3V225.633Z" fill="black"/>
<path d="M181.3 234.5H172.433V243.366H181.3V234.5Z" fill="black"/>
<path d="M181.3 252.233H172.433V261.1H181.3V252.233Z" fill="black"/>
<path d="M181.3 261.1H172.433V269.966H181.3V261.1Z" fill="black"/>
<path d="M190.166 21.6997H181.3V30.5664H190.166V21.6997Z" fill="black"/>
<path d="M190.166 30.5664H181.3V39.4331H190.166V30.5664Z" fill="black"/>
<path d="M190.166 39.4331H181.3V48.2998H190.166V39.4331Z" fill="black"/>
<path d="M190.166 83.7661H181.3V92.6328H190.166V83.7661Z" fill="black"/>
<path d="M190.166 101.5H181.3V110.366H190.166V101.5Z" fill="black"/>
<path d="M190.166 119.233H181.3V128.1H190.166V119.233Z" fill="black"/>
<path d="M190.166 145.833H181.3V154.7H190.166V145.833Z" fill="black"/>
<path d="M190.166 163.566H181.3V172.433H190.166V163.566Z" fill="black"/>
<path d="M190.166 181.3H181.3V190.166H190.166V181.3Z" fill="black"/>
<path d="M190.166 207.9H181.3V216.767H190.166V207.9Z" fill="black"/>
<path d="M190.166 252.233H181.3V261.1H190.166V252.233Z" fill="black"/>
<path d="M190.166 261.1H181.3V269.966H190.166V261.1Z" fill="black"/>
<path d="M199.033 12.833H190.167V21.6997H199.033V12.833Z" fill="black"/>
<path d="M199.033 57.1665H190.167V66.0332H199.033V57.1665Z" fill="black"/>
<path d="M199.033 66.0332H190.167V74.8999H199.033V66.0332Z" fill="black"/>
<path d="M199.033 119.233H190.167V128.1H199.033V119.233Z" fill="black"/>
<path d="M199.033 154.7H190.167V163.566H199.033V154.7Z" fill="black"/>
<path d="M199.033 163.566H190.167V172.433H199.033V163.566Z" fill="black"/>
<path d="M199.033 172.433H190.167V181.3H199.033V172.433Z" fill="black"/>
<path d="M199.033 190.167H190.167V199.033H199.033V190.167Z" fill="black"/>
<path d="M199.033 199.033H190.167V207.9H199.033V199.033Z" fill="black"/>
<path d="M199.033 207.9H190.167V216.767H199.033V207.9Z" fill="black"/>
<path d="M199.033 216.766H190.167V225.633H199.033V216.766Z" fill="black"/>
<path d="M199.033 225.633H190.167V234.499H199.033V225.633Z" fill="black"/>
<path d="M199.033 234.5H190.167V243.366H199.033V234.5Z" fill="black"/>
<path d="M207.9 83.7661H199.033V92.6328H207.9V83.7661Z" fill="black"/>
<path d="M207.9 101.5H199.033V110.366H207.9V101.5Z" fill="black"/>
<path d="M207.9 110.366H199.033V119.233H207.9V110.366Z" fill="black"/>
<path d="M207.9 128.1H199.033V136.966H207.9V128.1Z" fill="black"/>
<path d="M207.9 154.7H199.033V163.566H207.9V154.7Z" fill="black"/>
<path d="M207.9 163.566H199.033V172.433H207.9V163.566Z" fill="black"/>
<path d="M207.9 181.3H199.033V190.166H207.9V181.3Z" fill="black"/>
<path d="M207.9 190.167H199.033V199.033H207.9V190.167Z" fill="black"/>
<path d="M207.9 225.633H199.033V234.499H207.9V225.633Z" fill="black"/>
<path d="M207.9 252.233H199.033V261.1H207.9V252.233Z" fill="black"/>
<path d="M207.9 261.1H199.033V269.966H207.9V261.1Z" fill="black"/>
<path d="M216.767 83.7661H207.9V92.6328H216.767V83.7661Z" fill="black"/>
<path d="M216.767 92.6328H207.9V101.499H216.767V92.6328Z" fill="black"/>
<path d="M216.767 101.5H207.9V110.366H216.767V101.5Z" fill="black"/>
<path d="M216.767 172.433H207.9V181.3H216.767V172.433Z" fill="black"/>
<path d="M216.767 181.3H207.9V190.166H216.767V181.3Z" fill="black"/>
<path d="M216.767 190.167H207.9V199.033H216.767V190.167Z" fill="black"/>
<path d="M216.767 207.9H207.9V216.767H216.767V207.9Z" fill="black"/>
<path d="M216.767 225.633H207.9V234.499H216.767V225.633Z" fill="black"/>
<path d="M216.767 243.366H207.9V252.233H216.767V243.366Z" fill="black"/>
<path d="M216.767 252.233H207.9V261.1H216.767V252.233Z" fill="black"/>
<path d="M216.767 261.1H207.9V269.966H216.767V261.1Z" fill="black"/>
<path d="M225.633 92.6328H216.767V101.499H225.633V92.6328Z" fill="black"/>
<path d="M225.633 101.5H216.767V110.366H225.633V101.5Z" fill="black"/>
<path d="M225.633 110.366H216.767V119.233H225.633V110.366Z" fill="black"/>
<path d="M225.633 119.233H216.767V128.1H225.633V119.233Z" fill="black"/>
<path d="M225.633 128.1H216.767V136.966H225.633V128.1Z" fill="black"/>
<path d="M225.633 163.566H216.767V172.433H225.633V163.566Z" fill="black"/>
<path d="M225.633 172.433H216.767V181.3H225.633V172.433Z" fill="black"/>
<path d="M225.633 190.167H216.767V199.033H225.633V190.167Z" fill="black"/>
<path d="M225.633 225.633H216.767V234.499H225.633V225.633Z" fill="black"/>
<path d="M225.633 261.1H216.767V269.966H225.633V261.1Z" fill="black"/>
<path d="M234.5 83.7661H225.633V92.6328H234.5V83.7661Z" fill="black"/>
<path d="M234.5 92.6328H225.633V101.499H234.5V92.6328Z" fill="black"/>
<path d="M234.5 101.5H225.633V110.366H234.5V101.5Z" fill="black"/>
<path d="M234.5 110.366H225.633V119.233H234.5V110.366Z" fill="black"/>
<path d="M234.5 136.966H225.633V145.833H234.5V136.966Z" fill="black"/>
<path d="M234.5 154.7H225.633V163.566H234.5V154.7Z" fill="black"/>
<path d="M234.5 172.433H225.633V181.3H234.5V172.433Z" fill="black"/>
<path d="M234.5 190.167H225.633V199.033H234.5V190.167Z" fill="black"/>
<path d="M234.5 199.033H225.633V207.9H234.5V199.033Z" fill="black"/>
<path d="M234.5 207.9H225.633V216.767H234.5V207.9Z" fill="black"/>
<path d="M234.5 216.766H225.633V225.633H234.5V216.766Z" fill="black"/>
<path d="M234.5 225.633H225.633V234.499H234.5V225.633Z" fill="black"/>
<path d="M234.5 234.5H225.633V243.366H234.5V234.5Z" fill="black"/>
<path d="M234.5 252.233H225.633V261.1H234.5V252.233Z" fill="black"/>
<path d="M243.367 92.6328H234.5V101.499H243.367V92.6328Z" fill="black"/>
<path d="M243.367 128.1H234.5V136.966H243.367V128.1Z" fill="black"/>
<path d="M243.367 136.966H234.5V145.833H243.367V136.966Z" fill="black"/>
<path d="M243.367 145.833H234.5V154.7H243.367V145.833Z" fill="black"/>
<path d="M243.367 154.7H234.5V163.566H243.367V154.7Z" fill="black"/>
<path d="M243.367 172.433H234.5V181.3H243.367V172.433Z" fill="black"/>
<path d="M243.367 190.167H234.5V199.033H243.367V190.167Z" fill="black"/>
<path d="M243.367 199.033H234.5V207.9H243.367V199.033Z" fill="black"/>
<path d="M243.367 225.633H234.5V234.499H243.367V225.633Z" fill="black"/>
<path d="M252.233 83.7661H243.367V92.6328H252.233V83.7661Z" fill="black"/>
<path d="M252.233 92.6328H243.367V101.499H252.233V92.6328Z" fill="black"/>
<path d="M252.233 101.5H243.367V110.366H252.233V101.5Z" fill="black"/>
<path d="M252.233 128.1H243.367V136.966H252.233V128.1Z" fill="black"/>
<path d="M252.233 145.833H243.367V154.7H252.233V145.833Z" fill="black"/>
<path d="M252.233 154.7H243.367V163.566H252.233V154.7Z" fill="black"/>
<path d="M252.233 163.566H243.367V172.433H252.233V163.566Z" fill="black"/>
<path d="M252.233 181.3H243.367V190.166H252.233V181.3Z" fill="black"/>
<path d="M252.233 216.766H243.367V225.633H252.233V216.766Z" fill="black"/>
<path d="M252.233 225.633H243.367V234.499H252.233V225.633Z" fill="black"/>
<path d="M252.233 234.5H243.367V243.366H252.233V234.5Z" fill="black"/>
<path d="M252.233 243.366H243.367V252.233H252.233V243.366Z" fill="black"/>
<path d="M252.233 261.1H243.367V269.966H252.233V261.1Z" fill="black"/>
<path d="M261.1 83.7661H252.233V92.6328H261.1V83.7661Z" fill="black"/>
<path d="M261.1 92.6328H252.233V101.499H261.1V92.6328Z" fill="black"/>
<path d="M261.1 101.5H252.233V110.366H261.1V101.5Z" fill="black"/>
<path d="M261.1 119.233H252.233V128.1H261.1V119.233Z" fill="black"/>
<path d="M261.1 128.1H252.233V136.966H261.1V128.1Z" fill="black"/>
<path d="M261.1 136.966H252.233V145.833H261.1V136.966Z" fill="black"/>
<path d="M261.1 154.7H252.233V163.566H261.1V154.7Z" fill="black"/>
<path d="M261.1 163.566H252.233V172.433H261.1V163.566Z" fill="black"/>
<path d="M261.1 190.167H252.233V199.033H261.1V190.167Z" fill="black"/>
<path d="M261.1 199.033H252.233V207.9H261.1V199.033Z" fill="black"/>
<path d="M261.1 207.9H252.233V216.767H261.1V207.9Z" fill="black"/>
<path d="M261.1 216.766H252.233V225.633H261.1V216.766Z" fill="black"/>
<path d="M261.1 252.233H252.233V261.1H261.1V252.233Z" fill="black"/>
<path d="M269.967 92.6328H261.1V101.499H269.967V92.6328Z" fill="black"/>
<path d="M269.967 110.366H261.1V119.233H269.967V110.366Z" fill="black"/>
<path d="M269.967 145.833H261.1V154.7H269.967V145.833Z" fill="black"/>
<path d="M269.967 154.7H261.1V163.566H269.967V154.7Z" fill="black"/>
<path d="M269.967 163.566H261.1V172.433H269.967V163.566Z" fill="black"/>
<path d="M269.967 181.3H261.1V190.166H269.967V181.3Z" fill="black"/>
<path d="M269.967 190.167H261.1V199.033H269.967V190.167Z" fill="black"/>
<path d="M269.967 207.9H261.1V216.767H269.967V207.9Z" fill="black"/>
<path d="M269.967 225.633H261.1V234.499H269.967V225.633Z" fill="black"/>
<path d="M269.967 234.5H261.1V243.366H269.967V234.5Z" fill="black"/>
<path d="M269.967 252.233H261.1V261.1H269.967V252.233Z" fill="black"/>
<path d="M269.967 261.1H261.1V269.966H269.967V261.1Z" fill="black"/>
<path d="M12.8333 34.9997V52.733C12.8333 58.612 15.1687 64.2502 19.3257 68.4072C23.4828 72.5643 29.121 74.8997 34.9999 74.8997H52.7332C58.6122 74.8997 64.2504 72.5643 68.4075 68.4072C72.5645 64.2502 74.8999 58.612 74.8999 52.733V34.9997C74.8999 29.1207 72.5645 23.4825 68.4075 19.3255C64.2504 15.1684 58.6122 12.833 52.7332 12.833H34.9999C29.121 12.833 23.4828 15.1684 19.3257 19.3255C15.1687 23.4825 12.8333 29.1207 12.8333 34.9997ZM34.9999 21.6997H52.7332C56.2606 21.6997 59.6435 23.1009 62.1378 25.5952C64.632 28.0894 66.0333 31.4723 66.0333 34.9997V52.733C66.0333 56.2604 64.632 59.6433 62.1378 62.1375C59.6435 64.6318 56.2606 66.033 52.7332 66.033H34.9999C31.4725 66.033 28.0896 64.6318 25.5954 62.1375C23.1012 59.6433 21.6999 56.2604 21.6999 52.733V34.9997C21.6999 31.4723 23.1012 28.0894 25.5954 25.5952C28.0896 23.1009 31.4725 21.6997 34.9999 21.6997Z" fill="black"/>
<path d="M57.1667 30.5664H30.5667V57.1664H57.1667V30.5664Z" fill="black"/>
<path d="M247.8 12.833H230.067C224.188 12.833 218.549 15.1684 214.392 19.3255C210.235 23.4825 207.9 29.1207 207.9 34.9997V52.733C207.9 58.612 210.235 64.2502 214.392 68.4072C218.549 72.5643 224.188 74.8997 230.067 74.8997H247.8C253.679 74.8997 259.317 72.5643 263.474 68.4072C267.631 64.2502 269.967 58.612 269.967 52.733V34.9997C269.967 29.1207 267.631 23.4825 263.474 19.3255C259.317 15.1684 253.679 12.833 247.8 12.833ZM261.1 34.9997V52.733C261.1 56.2604 259.699 59.6433 257.204 62.1375C254.71 64.6318 251.327 66.033 247.8 66.033H230.067C226.539 66.033 223.156 64.6318 220.662 62.1375C218.168 59.6433 216.767 56.2604 216.767 52.733V34.9997C216.767 31.4723 218.168 28.0894 220.662 25.5952C223.156 23.1009 226.539 21.6997 230.067 21.6997H247.8C251.327 21.6997 254.71 23.1009 257.204 25.5952C259.699 28.0894 261.1 31.4723 261.1 34.9997Z" fill="black"/>
<path d="M252.233 57.1664V30.5664H225.633V57.1664H252.233Z" fill="black"/>
<path d="M34.9999 269.967H52.7332C58.6122 269.967 64.2504 267.631 68.4075 263.474C72.5645 259.317 74.8999 253.679 74.8999 247.8V230.067C74.8999 224.188 72.5645 218.55 68.4075 214.393C64.2504 210.236 58.6122 207.9 52.7332 207.9H34.9999C29.121 207.9 23.4828 210.236 19.3257 214.393C15.1687 218.55 12.8333 224.188 12.8333 230.067V247.8C12.8333 253.679 15.1687 259.317 19.3257 263.474C23.4828 267.631 29.121 269.967 34.9999 269.967ZM21.6999 247.8V230.067C21.6999 226.539 23.1012 223.157 25.5954 220.662C28.0896 218.168 31.4725 216.767 34.9999 216.767H52.7332C56.2606 216.767 59.6435 218.168 62.1378 220.662C64.632 223.157 66.0333 226.539 66.0333 230.067V247.8C66.0333 251.328 64.632 254.71 62.1378 257.205C59.6435 259.699 56.2606 261.1 52.7332 261.1H34.9999C31.4725 261.1 28.0896 259.699 25.5954 257.205C23.1012 254.71 21.6999 251.328 21.6999 247.8Z" fill="black"/>
<path d="M30.5667 225.633V252.233H57.1667V225.633H30.5667Z" fill="black"/>
<g clip-path="url(#clip1_419_1651)">
<rect width="58.52" height="58.52" transform="translate(112.14 112.14)" fill="white"/>
<path d="M170.66 141.4C170.66 157.56 157.56 170.66 141.4 170.66C125.24 170.66 112.14 157.56 112.14 141.4C112.14 125.24 125.24 112.14 141.4 112.14C157.56 112.14 170.66 125.24 170.66 141.4ZM142.449 133.741C139.602 134.925 133.915 137.375 125.384 141.091C124 141.641 123.274 142.181 123.207 142.707C123.096 143.598 124.211 143.948 125.729 144.427C125.937 144.491 126.151 144.559 126.37 144.63C127.864 145.116 129.874 145.684 130.918 145.707C131.866 145.727 132.924 145.336 134.092 144.534C142.061 139.154 146.175 136.435 146.434 136.377C146.615 136.336 146.868 136.283 147.039 136.435C147.211 136.587 147.193 136.875 147.176 136.953C147.065 137.423 142.687 141.494 140.423 143.599C139.717 144.255 139.216 144.722 139.113 144.828C138.884 145.066 138.649 145.292 138.425 145.507C137.038 146.846 135.996 147.849 138.483 149.488C139.677 150.275 140.634 150.927 141.587 151.576C142.629 152.285 143.668 152.992 145.013 153.874C145.355 154.098 145.682 154.331 146.001 154.559C147.213 155.423 148.302 156.2 149.648 156.076C150.43 156.003 151.237 155.268 151.648 153.076C152.617 147.894 154.522 136.667 154.962 132.039C154.989 131.655 154.973 131.268 154.913 130.888C154.875 130.659 154.793 130.335 154.498 130.095C154.147 129.811 153.605 129.751 153.363 129.756C152.262 129.775 150.575 130.362 142.449 133.741Z" fill="#0088CC"/>
</g>
</g>
<defs>
<linearGradient id="paint0_linear_419_1651" x1="8.3999" y1="141.4" x2="274.4" y2="141.4" gradientUnits="userSpaceOnUse">
<stop stop-color="white"/>
<stop offset="1" stop-color="white"/>
</linearGradient>
<clipPath id="clip0_419_1651">
<rect width="266" height="266" fill="white" transform="translate(8.3999 8.3999)"/>
</clipPath>
<clipPath id="clip1_419_1651">
<rect width="58.52" height="58.52" fill="white" transform="translate(112.14 112.14)"/>
</clipPath>
</defs>
</svg>
