<svg width="302" height="148" viewBox="0 0 302 148" fill="none" xmlns="http://www.w3.org/2000/svg">
<path fill-rule="evenodd" clip-rule="evenodd" d="M129.221 1.94009C127.393 3.01033 124.801 4.45487 123.461 5.15081C122.121 5.84676 118.931 7.57135 116.373 8.9836C113.814 10.3958 110.525 12.1908 109.063 12.9726C106.214 14.4954 96.0979 20.0386 94.1513 21.1429C89.7684 23.6303 87.4709 24.6753 87.0048 24.3935C86.7102 24.2152 84.5992 22.5658 82.3141 20.7284C80.0285 18.8905 77.6362 16.992 76.9978 16.5089C76.359 16.0262 73.2476 13.5495 70.084 11.0055C65.185 7.0661 64.559 6.67145 65.8628 8.34428C66.7046 9.42426 67.6983 10.6073 68.0709 10.9723C68.443 11.3378 69.7544 12.831 70.9846 14.2906C72.2149 15.7506 74.8664 18.8883 76.8769 21.2637C79.784 24.6988 80.3843 25.6394 79.8101 25.8597C79.4127 26.0119 75.8641 25.8128 71.9243 25.4173C67.984 25.0217 62.0692 24.5032 58.7798 24.2647C44.4883 23.2281 39.0967 22.8007 32.6414 22.1924C19.733 20.9766 15.3049 20.6164 15.1636 20.7713C14.9403 21.0168 12.3548 43.0849 11.3611 53.2241C11.0989 55.9008 10.5881 59.98 10.2261 62.2891C9.8646 64.5981 9.17791 70.2723 8.70078 74.8984C7.28753 88.6018 6.95039 91.647 6.49097 94.8582C6.02801 98.0977 5.20399 105.016 4.07206 115.164C3.69195 118.571 2.9871 124.146 2.50553 127.553C1.20968 136.72 -0.145529 147.828 0.0126308 147.985C0.0888309 148.061 3.12532 147.833 6.76033 147.477C10.3958 147.121 18.2541 146.421 24.2239 145.92C30.1936 145.419 38.2678 144.706 42.1664 144.336C46.065 143.966 52.4445 143.375 56.3431 143.022C62.9119 142.428 65.6932 142.197 80.2664 141.03C83.1904 140.796 88.1744 140.311 91.342 139.953C94.5097 139.594 99.5934 139.1 102.639 138.856C105.685 138.611 110.632 138.209 113.633 137.961C116.633 137.714 121.916 137.303 125.373 137.048C128.829 136.793 132.355 136.395 133.208 136.163C134.061 135.932 135.855 135.711 137.195 135.674C138.548 135.636 137.366 135.458 134.537 135.273C131.735 135.09 126.352 134.724 122.575 134.46C118.798 134.196 107.435 133.58 97.3229 133.091C78.1585 132.165 64.5528 131.423 60.7734 131.1C59.0562 130.953 26.4829 129.139 24.9992 129.108C24.4782 129.097 24.6302 124.147 25.5698 110.519C26.6238 95.2352 27.4664 81.9994 28.655 62.0727C29.6279 45.7532 30.3372 37.4594 30.7975 37.0112C30.9587 36.8541 37.271 36.4957 44.8245 36.2148C64.3473 35.4892 77.9791 34.8893 81.7209 34.5911C85.1326 34.319 85.2859 34.2402 92.4057 29.1116C93.5877 28.2599 95.8006 26.6671 97.3229 25.5721C98.8451 24.4771 101.112 22.845 102.362 21.9451C103.611 21.0452 105.929 19.3993 107.512 18.2875C109.096 17.1757 111.421 15.5227 112.679 14.6144C113.938 13.7061 117.09 11.4696 119.684 9.64459C122.279 7.81956 124.838 5.95913 125.371 5.51007C125.905 5.061 127.694 3.78503 129.349 2.67408C131.003 1.56358 132.46 0.487585 132.587 0.28274C132.899 -0.220747 132.976 -0.258797 129.221 1.94009ZM100.867 29.3124C99.5269 30.4212 97.3357 32.252 95.9978 33.381L93.5651 35.4344L97.9914 35.1782C100.426 35.0379 106.505 34.6163 111.5 34.242C120.161 33.593 124.776 33.3213 146.499 32.1798C151.737 31.9046 157.519 31.5264 159.346 31.3392L162.669 30.999L159.742 30.9401C156.84 30.8817 149.866 30.3982 139.632 29.5456C128.518 28.6196 117.561 27.8967 109.506 27.5578L103.304 27.2967L100.867 29.3124ZM122.908 50.877L120.36 51.7375V54.1466C120.36 56.2724 120.182 56.7494 118.844 58.2081C117.425 59.7539 117.161 59.8606 114.746 59.8606C112.693 59.8606 111.867 59.638 110.712 58.7726L109.26 57.6847L107.191 59.7504L105.123 61.8165L106.148 63.8672C106.956 65.4825 107.127 66.4001 106.956 68.1862C106.768 70.1338 106.5 70.659 105.058 71.9044C103.627 73.1397 103.038 73.3547 101.087 73.3547H98.7973L98.0601 76.0027C97.1235 79.366 97.1266 79.4036 98.329 79.7049C99.8813 80.0943 102.14 82.5617 102.449 84.2058C102.874 86.4688 101.942 88.6248 99.8844 90.1357C98.8885 90.867 97.8975 91.5245 97.6826 91.5957C97.4677 91.6674 97.6441 93.0677 98.0747 94.7073L98.8579 97.6884H101.207C103.872 97.6884 105.454 98.5065 106.427 100.387C107.423 102.31 107.243 105.273 106.021 107.072L104.973 108.614L106.522 110.476C107.464 111.61 108.317 112.244 108.701 112.098C109.049 111.964 109.21 112.052 109.06 112.294C108.647 112.96 109.115 112.832 111.5 111.625C114.144 110.287 115.003 110.254 117.267 111.408C119.423 112.506 120.36 114.232 120.36 117.102V119.305L122.896 119.831C124.291 120.12 125.668 120.447 125.957 120.558C126.246 120.668 126.608 120.364 126.761 119.881C127.147 118.669 129.322 116.08 130.1 115.907C130.453 115.829 131.617 115.736 132.689 115.701C134.719 115.635 135.341 116.086 137.86 119.445L138.746 120.627L141.515 119.936L144.283 119.245V117.382C144.283 114.5 145.077 112.8 146.986 111.597C149.12 110.252 150.555 110.255 153.332 111.614C155.475 112.662 155.535 112.666 156.655 111.864C157.282 111.415 158.267 110.543 158.843 109.927L159.89 108.806L159.014 107.561C158.532 106.876 157.875 105.579 157.553 104.679C157.019 103.182 157.06 102.865 158.033 100.975C159.4 98.322 160.435 97.6783 163.462 97.5986L165.923 97.534L166.644 94.6649C167.231 92.3341 167.258 91.7293 166.789 91.4409C165.889 90.8865 164.632 90.0083 163.699 89.2822C162.746 88.5403 162.148 86.2401 162.359 84.1231C162.522 82.4821 164.586 80.1385 166.231 79.7262C167.454 79.4196 167.46 79.2377 166.381 75.0138C165.961 73.3711 165.935 73.3547 163.717 73.3547C161.008 73.3547 159.273 72.273 158.007 69.7958C156.863 67.5549 156.906 66.9346 158.392 64.2424L159.637 61.9878L158.717 60.9242C158.21 60.3393 157.264 59.3938 156.615 58.8235L155.435 57.7864L153.743 58.9341C149.476 61.8298 144.289 59.0314 144.285 53.8307C144.283 51.6189 144.329 51.6583 140.341 50.3863C138.299 49.7351 138.215 49.755 137.914 50.9553C137.768 51.5322 136.849 52.7268 135.87 53.6099C134.425 54.9142 133.745 55.215 132.245 55.215C130.633 55.215 130.154 54.9602 128.48 53.2161C127.425 52.1171 126.562 50.9226 126.562 50.5615C126.562 49.7528 126.123 49.7908 122.908 50.877ZM44.603 54.3302V57.4272H58.475H72.3469L73.3491 56.0733C75.4003 53.3033 78.3548 52.3361 80.8433 53.6214C84.5718 55.5468 85.3054 59.7929 82.428 62.7921C81.7798 63.4677 80.6776 64.146 79.9789 64.2995C79.2803 64.4526 78.4846 65.0096 78.2108 65.5374C77.7368 66.4515 75.9886 69.2065 71.8463 75.5669L69.9737 78.4427L70.4371 83.1625L70.9009 87.8824L68.5219 91.5687C67.2132 93.5964 65.2577 96.6487 64.1758 98.3521C63.0944 100.055 61.6727 102.245 61.017 103.219C57.8915 107.858 57.7834 108.138 58.5472 109.612L59.2454 110.961H73.4111H87.5763V108.086V105.21H76.7484C70.2696 105.21 65.8141 105.038 65.6564 104.783C65.5111 104.548 65.8704 103.602 66.4552 102.681C67.4311 101.143 75.3156 87.2249 78.528 81.3689C79.2772 80.0027 80.9514 76.9937 82.2485 74.682C83.5457 72.3703 85.2704 69.2843 86.0816 67.8243L87.5564 65.1697L87.5662 58.2014L87.5763 51.2331H66.0897H44.603V54.3302ZM178.396 85.5216V119.81H186.587H194.777L194.894 103.551C194.968 93.0496 195.166 87.3055 195.453 87.3311C195.876 87.3696 197.81 90.598 201.126 96.8036C201.971 98.3853 203.582 101.272 204.705 103.219C205.828 105.166 207.296 107.853 207.967 109.192C208.638 110.53 209.308 111.725 209.457 111.846C209.605 111.968 210.494 113.561 211.431 115.386C212.369 117.211 213.393 118.967 213.708 119.288C214.023 119.61 214.281 120.058 214.281 120.284C214.281 120.525 218.496 120.695 224.471 120.695C230.075 120.695 234.66 120.579 234.66 120.439C234.66 120.298 233.198 117.958 231.412 115.24C229.625 112.522 227.781 109.659 227.314 108.878C226.847 108.097 224.348 104.115 221.762 100.029C219.176 95.9435 216.806 92.1151 216.497 91.5223C216.187 90.9294 215.577 90.0623 215.142 89.5955C214.707 89.1287 214.105 88.1563 213.806 87.4342C213.178 85.9207 213.26 85.7193 217.135 79.3275C218.462 77.1375 220.29 74.0515 221.197 72.4699C224.293 67.0691 228.573 59.8637 229.999 57.6484C230.783 56.4317 231.846 54.6899 232.363 53.7771L233.302 52.118L224.123 52.1207L214.946 52.1238L214.077 53.5586C213.237 54.9469 212.41 56.3839 208.665 62.9576C207.694 64.6609 205.742 68.042 204.326 70.4714C201.719 74.947 200.591 76.9309 197.591 82.3188C196.675 83.9642 195.719 85.2415 195.468 85.1579C195.166 85.0575 194.97 79.2479 194.894 68.1194L194.778 51.2331H186.587H178.396V85.5216ZM246.031 51.5282C245.869 51.6902 245.736 62.2209 245.736 74.9293C245.736 96.4452 245.798 98.3508 246.645 102.618C247.777 108.328 249.403 111.871 252.203 114.726C255.381 117.968 256.707 118.851 259.913 119.864C263.993 121.155 271.821 121.159 275.862 119.874C279.166 118.823 280.056 118.246 283.24 115.096C284.508 113.842 285.659 112.929 285.798 113.068C285.937 113.207 286.051 114.781 286.051 116.566V119.81H294.026H302V85.5216V51.2331H293.601H285.202L285.073 74.5714C284.947 97.2876 284.918 97.9636 284.003 99.9404C282.777 102.588 281.797 103.717 279.591 105.021C274.395 108.096 266.961 105.917 264.526 100.605C262.833 96.9115 262.589 93.2867 262.58 71.6956L262.571 51.2331H254.449C249.981 51.2331 246.194 51.3659 246.031 51.5282ZM77.0408 56.7896C75.2319 58.055 76.2318 61.4091 78.4186 61.4091C79.4008 61.4091 80.931 59.8437 80.931 58.839C80.931 56.8843 78.6348 55.6747 77.0408 56.7896ZM44.603 62.9576V65.8334H56.317C62.7599 65.8334 68.1409 66.0108 68.2751 66.228C68.5019 66.5948 66.7954 69.8679 62.7129 76.8942C61.7941 78.4759 60.2209 81.2632 59.217 83.0882C58.2131 84.9132 56.5266 87.8997 55.4686 89.7247C52.3502 95.1055 50.6321 98.1225 48.4143 102.113C47.2647 104.181 45.9511 106.471 45.4957 107.201C44.8055 108.307 44.6624 109.466 44.6353 114.169L44.603 119.81H66.0897H87.5763V116.934V114.058H73.1781C61.5868 114.058 58.7798 114.172 58.7798 114.639C58.7798 115.52 56.4162 117.595 54.968 117.986C51.4654 118.932 47.7042 116.027 47.7042 112.378C47.7042 110.635 47.9323 110.175 49.6393 108.47C51.1589 106.953 51.897 106.537 53.0727 106.534C54.2729 106.532 54.7571 106.246 55.5072 105.096C56.022 104.307 57.343 102.268 58.4426 100.564C59.5427 98.8609 61.9784 95.098 63.8559 92.2023L67.269 86.9378L66.7347 82.433C66.3076 78.8364 66.313 77.7127 66.7595 76.8583C67.2677 75.8854 69.5293 72.3473 73.7854 65.8652C74.7814 64.349 75.1703 63.3996 74.8407 63.2898C74.5541 63.1943 73.8966 62.4333 73.3801 61.5989L72.4413 60.0818H58.5219H44.603V62.9576ZM135.608 67.0501C135.79 67.2324 136.073 67.3876 136.235 67.3943C136.398 67.4009 137.614 67.7991 138.937 68.2791C142.44 69.5485 145.559 72.5871 147.654 76.7707C149.372 80.2009 149.378 80.2301 149.37 85.5216C149.362 90.7763 149.345 90.8635 147.714 94.0171C146.807 95.7696 145.47 97.8814 144.741 98.7096C144.014 99.5378 143.563 100.376 143.74 100.571C143.917 100.767 143.814 100.785 143.511 100.611C143.202 100.433 142.326 100.771 141.517 101.379C138.303 103.797 131.887 104.625 127.18 103.23C119.262 100.881 114.077 91.5214 115.441 82.0396C116.358 75.6638 120.725 70.0236 126.341 67.9632C129.399 66.8408 134.859 66.3028 135.608 67.0501ZM51.4872 111.094C50.7274 112.252 50.96 113.483 52.1069 114.376C53.1777 115.21 54.0988 115.046 55.2582 113.813C56.2532 112.755 56.2785 112.607 55.6538 111.491C54.7195 109.82 52.4636 109.606 51.4872 111.094Z" fill="#0063ED"/>
</svg>
