<svg width="68" height="68" viewBox="0 0 68 68" fill="none" xmlns="http://www.w3.org/2000/svg">
<path d="M8.5 19.8333V14.1667C8.5 12.6638 9.09702 11.2224 10.1597 10.1597C11.2224 9.09702 12.6638 8.5 14.1667 8.5H19.8333M48.1667 8.5H53.8333C55.3362 8.5 56.7776 9.09702 57.8403 10.1597C58.903 11.2224 59.5 12.6638 59.5 14.1667V19.8333M59.5 48.1667V53.8333C59.5 55.3362 58.903 56.7776 57.8403 57.8403C56.7776 58.903 55.3362 59.5 53.8333 59.5H48.1667M19.8333 59.5H14.1667C12.6638 59.5 11.2224 58.903 10.1597 57.8403C9.09702 56.7776 8.5 55.3362 8.5 53.8333V48.1667M19.8333 34H48.1667" stroke="white" stroke-width="6" stroke-linecap="round" stroke-linejoin="round"/>
</svg>
