<svg width="68" height="68" viewBox="0 0 68 68" fill="none" xmlns="http://www.w3.org/2000/svg">
<path d="M31.1667 5.66602C45.2427 5.66602 56.6667 17.09 56.6667 31.166C56.6667 45.242 45.2427 56.666 31.1667 56.666C17.0907 56.666 5.66669 45.242 5.66669 31.166C5.66669 17.09 17.0907 5.66602 31.1667 5.66602ZM31.1667 50.9993C42.1232 50.9993 51 42.1225 51 31.166C51 20.2095 42.1232 11.3327 31.1667 11.3327C20.2102 11.3327 11.3334 20.2095 11.3334 31.166C11.3334 42.1225 20.2102 50.9993 31.1667 50.9993ZM53.2043 53.2037C54.3107 52.0973 56.1045 52.0971 57.211 53.2033L61.2181 57.209C62.3253 58.3158 62.3255 60.1107 61.2184 61.2178C60.1114 62.3248 58.3165 62.3246 57.2096 61.2174L53.204 57.2104C52.0978 56.1038 52.098 54.3101 53.2043 53.2037Z" fill="white"/>
</svg>
