<svg width="68" height="68" viewBox="0 0 68 68" fill="none" xmlns="http://www.w3.org/2000/svg">
<path d="M36.5 33.9988H59M59 33.9988L50.6675 24.0287M59 33.9988L50.6675 43.9688M39 21.5361V16.9848C39 16.2953 38.8565 15.6133 38.5786 14.9819C38.3007 14.3505 37.8945 13.7835 37.3855 13.3166C36.8766 12.8498 36.2761 12.4932 35.6219 12.2696C34.9678 12.0459 34.2742 11.96 33.585 12.0172L13.585 13.6772C12.3351 13.781 11.17 14.3493 10.3207 15.2695C9.47148 16.1896 9.00006 17.3944 9 18.6448V49.3527C9.00006 50.6031 9.47148 51.8079 10.3207 52.728C11.17 53.6482 12.3351 54.2165 13.585 54.3203L33.585 55.9828C34.2744 56.04 34.9682 55.954 35.6225 55.7302C36.2769 55.5064 36.8775 55.1497 37.3865 54.6825C37.8954 54.2154 38.3016 53.648 38.5793 53.0164C38.8571 52.3847 39.0003 51.7024 39 51.0127V46.4614" stroke="white" stroke-width="4" stroke-linecap="round" stroke-linejoin="round"/>
</svg>
