<svg width="28" height="28" viewBox="0 0 28 28" fill="none" xmlns="http://www.w3.org/2000/svg">
<path d="M13.1032 4.15C13.47 3.40684 14.5298 3.40684 14.8966 4.15L17.3725 9.1658C17.518 9.46064 17.7992 9.6651 18.1246 9.71266L23.6628 10.5222C24.4827 10.642 24.8095 11.6498 24.2159 12.228L20.21 16.1297C19.9742 16.3595 19.8665 16.6906 19.9222 17.0151L20.8673 22.526C21.0075 23.343 20.1499 23.9659 19.4163 23.5801L14.4654 20.9765C14.174 20.8232 13.8258 20.8232 13.5345 20.9765L8.58355 23.5801C7.84992 23.9659 6.99237 23.343 7.13249 22.526L8.07767 17.0151C8.13333 16.6906 8.02567 16.3595 7.7898 16.1297L3.78393 12.228C3.19034 11.6498 3.51712 10.642 4.33704 10.5222L9.87529 9.71266C10.2006 9.6651 10.4818 9.46064 10.6274 9.1658L13.1032 4.15Z" fill="#FEA800"/>
</svg>
