<svg width="30" height="30" viewBox="0 0 30 30" fill="none" xmlns="http://www.w3.org/2000/svg">
<path d="M14.1033 4.31663C14.4701 3.57346 15.5299 3.57346 15.8967 4.31663L18.6301 9.85409C18.7756 10.1489 19.0568 10.3534 19.3821 10.401L25.4962 11.2946C26.3161 11.4145 26.6429 12.4223 26.0493 13.0005L21.6268 17.308C21.3909 17.5377 21.2833 17.8689 21.3389 18.1934L22.3824 24.2776C22.5225 25.0946 21.665 25.7176 20.9314 25.3317L15.4655 22.4573C15.1741 22.304 14.8259 22.304 14.5345 22.4573L9.06863 25.3317C8.335 25.7176 7.47745 25.0946 7.61757 24.2776L8.66109 18.1934C8.71675 17.8689 8.60908 17.5377 8.37321 17.308L3.95068 13.0005C3.35709 12.4223 3.68387 11.4145 4.50378 11.2946L10.6179 10.401C10.9432 10.3534 11.2244 10.1489 11.3699 9.85409L14.1033 4.31663Z" fill="white"/>
</svg>
