<svg width="40" height="40" viewBox="0 0 40 40" fill="none" xmlns="http://www.w3.org/2000/svg">
<path fill-rule="evenodd" clip-rule="evenodd" d="M31.6667 7.65625H8.33333C6.95262 7.65625 5.83333 8.84549 5.83333 10.3125V28.0208C5.83333 29.4878 6.95262 30.6771 8.33333 30.6771H31.6667C33.0474 30.6771 34.1667 29.4878 34.1667 28.0208V10.3125C34.1667 8.84549 33.0474 7.65625 31.6667 7.65625ZM8.33333 5C5.5719 5 3.33333 7.37849 3.33333 10.3125V28.0208C3.33333 30.9548 5.5719 33.3333 8.33333 33.3333H31.6667C34.4281 33.3333 36.6667 30.9548 36.6667 28.0208V10.3125C36.6667 7.37849 34.4281 5 31.6667 5H8.33333Z" fill="#999999"/>
<rect x="10" y="19.166" width="1.66667" height="2.36111" fill="#999999"/>
<rect x="13.3334" y="19.166" width="16.6667" height="2.36111" fill="#999999"/>
<rect x="10" y="23.8877" width="13.3333" height="2.36111" fill="#999999"/>
<rect x="25" y="23.8877" width="5" height="2.36111" fill="#999999"/>
</svg>
