<svg width="28" height="28" viewBox="0 0 28 28" fill="none" xmlns="http://www.w3.org/2000/svg">
<path fill-rule="evenodd" clip-rule="evenodd" d="M22.1668 5.35938H5.8335C4.867 5.35938 4.0835 6.19185 4.0835 7.21875V19.6146C4.0835 20.6415 4.867 21.474 5.8335 21.474H22.1668C23.1333 21.474 23.9168 20.6415 23.9168 19.6146V7.21875C23.9168 6.19185 23.1333 5.35938 22.1668 5.35938ZM5.8335 3.5C3.9005 3.5 2.3335 5.16494 2.3335 7.21875V19.6146C2.3335 21.6684 3.9005 23.3333 5.8335 23.3333H22.1668C24.0998 23.3333 25.6668 21.6684 25.6668 19.6146V7.21875C25.6668 5.16494 24.0998 3.5 22.1668 3.5H5.8335Z" fill="#FEA800"/>
<rect x="7" y="13.4166" width="1.16667" height="1.65278" fill="#FEA800"/>
<rect x="9.3335" y="13.4166" width="11.6667" height="1.65278" fill="#FEA800"/>
<rect x="7" y="16.7223" width="9.33333" height="1.65278" fill="#FEA800"/>
<rect x="17.5" y="16.7223" width="3.5" height="1.65278" fill="#FEA800"/>
</svg>
