<svg width="55" height="40" viewBox="0 0 55 40" fill="none" xmlns="http://www.w3.org/2000/svg">
<g clip-path="url(#clip0_6811_4043)">
<path d="M15.1767 20C15.1755 19.3035 15.3105 18.6135 15.5739 17.9696C15.8374 17.3258 16.2241 16.7406 16.7119 16.2477C17.1997 15.7547 17.7791 15.3637 18.4169 15.0968C19.0547 14.83 19.7384 14.6927 20.4288 14.6927H20.3991C21.0896 14.6927 21.7733 14.83 22.4111 15.0968C23.0489 15.3637 23.6282 15.7547 24.1161 16.2477C24.6039 16.7406 24.9906 17.3258 25.254 17.9696C25.5174 18.6135 25.6524 19.3035 25.6512 20C25.6512 21.4052 25.0979 22.7529 24.1129 23.7465C23.1279 24.7401 21.792 25.2984 20.3991 25.2984H20.4288C19.0359 25.2984 17.7 24.7401 16.715 23.7465C15.7301 22.7529 15.1767 21.4052 15.1767 20ZM39.749 10.6057H49.5279C50.9209 10.6057 52.2568 10.0475 53.2417 9.05385C54.2267 8.06021 54.7801 6.71256 54.7801 5.30735C54.7812 4.6108 54.6462 3.92086 54.3828 3.27699C54.1194 2.63313 53.7327 2.04798 53.2449 1.55503C52.7571 1.06208 52.1777 0.671001 51.5399 0.404172C50.9021 0.137342 50.2184 -1.00389e-06 49.5279 0L39.749 0C39.0585 -1.00389e-06 38.3748 0.137342 37.737 0.404172C37.0992 0.671001 36.5198 1.06208 36.032 1.55503C35.5442 2.04798 35.1575 2.63313 34.8941 3.27699C34.6307 3.92086 34.4957 4.6108 34.4969 5.30735C34.4969 6.71256 35.0502 8.06021 36.0352 9.05385C37.0201 10.0475 38.356 10.6057 39.749 10.6057ZM6.16164 39.991H25.1548C26.5478 39.991 27.8837 39.4328 28.8686 38.4392C29.8536 37.4455 30.4069 36.0979 30.4069 34.6927C30.4081 33.9961 30.2731 33.3062 30.0097 32.6623C29.7463 32.0184 29.3596 31.4333 28.8718 30.9403C28.384 30.4474 27.8046 30.0563 27.1668 29.7895C26.529 29.5226 25.8453 29.3853 25.1548 29.3853H6.16164C5.47117 29.3853 4.78748 29.5226 4.14968 29.7895C3.51189 30.0563 2.9325 30.4474 2.44468 30.9403C1.95686 31.4333 1.57018 32.0184 1.30676 32.6623C1.04335 33.3062 0.908361 33.9961 0.909533 34.6927C0.909533 36.0979 1.46288 37.4455 2.44784 38.4392C3.4328 39.4328 4.7687 39.991 6.16164 39.991ZM31.1054 25.2984H32.9631L37.3027 14.6927H34.8209L32.1755 21.6492H32.1458L29.545 14.6927H26.8996L31.1054 25.2984ZM40.7507 25.2984H43.0691V14.6927H40.7507V25.2984ZM47.3492 25.2984H54.7652V23.1484H49.6676V20.9895H54.2302V18.8306H49.6676V16.8516H54.4977V14.6927H47.3641L47.3492 25.2984ZM3.00205 10.6147H5.32047V2.06897H8.32253V0H0V2.06897H3.00205V10.6147ZM11.5921 10.6147H13.9105V6.02699H18.3987V10.6147H20.7171V0H18.3987V3.95802H13.8956V0H11.5921V10.6147ZM23.853 10.6147H31.2838V8.45577H26.1565V6.29685H30.719V4.13793H26.1565V2.15892H30.9865V0H23.853V10.6147ZM0.371541 25.3073H2.6751V17.1664H2.70482L5.37992 25.3073H7.13359L9.89786 17.1664H9.92758V25.3073H12.246V14.6927H8.75351L6.3162 21.6192H6.28648L3.86403 14.6927H0.35668L0.371541 25.3073ZM33.6884 40H37.4514C38.2136 40.004 38.9718 39.8876 39.6984 39.6552C40.3842 39.4391 41.0242 39.0965 41.5859 38.6447C42.132 38.1963 42.5752 37.6336 42.8848 36.9955C43.2278 36.2882 43.4029 35.51 43.396 34.7226C43.4203 33.8703 43.2494 33.0238 42.8967 32.2489C42.5867 31.5957 42.126 31.0271 41.5532 30.5907C40.9532 30.1568 40.273 29.8489 39.5528 29.6852C38.7683 29.4874 37.9628 29.3867 37.1541 29.3853H33.6735L33.6884 40ZM36.0098 31.5442H37.3771C37.846 31.5425 38.3129 31.6051 38.7651 31.7301C39.1809 31.8442 39.572 32.0354 39.9184 32.2939C40.2476 32.5467 40.5141 32.8731 40.6971 33.2474C40.9013 33.669 41.0032 34.1335 40.9944 34.6027C41.0071 35.1263 40.9057 35.6463 40.6971 36.1259C40.5194 36.5212 40.2466 36.8655 39.9035 37.1274C39.5484 37.3902 39.1438 37.5769 38.7146 37.6762C38.2273 37.7894 37.7285 37.8448 37.2284 37.8411H35.9949L36.0098 31.5442ZM46.7518 40H51.0617C51.5342 39.9989 52.0053 39.9487 52.4676 39.8501C52.9157 39.7599 53.345 39.5926 53.7368 39.3553C54.1087 39.1314 54.4242 38.8235 54.6582 38.4558C54.9088 38.0325 55.0327 37.5452 55.0149 37.0525C55.0174 36.7254 54.9621 36.4004 54.8514 36.093C54.7487 35.8026 54.5901 35.5356 54.3847 35.3073C54.1779 35.0788 53.931 34.8907 53.6565 34.7526C53.3603 34.6 53.0408 34.4987 52.7113 34.4528V34.4228C53.2218 34.2747 53.679 33.9811 54.0281 33.5772C54.3698 33.1556 54.5465 32.6222 54.5244 32.078C54.5481 31.5895 54.4292 31.1047 54.1826 30.6837C53.9613 30.337 53.6539 30.0548 53.2909 29.8651C52.9027 29.665 52.4836 29.5332 52.0514 29.4753C51.5954 29.4121 51.1356 29.38 50.6753 29.3793H46.7518V40ZM49.0702 31.3643H50.6455C50.8299 31.3653 51.0139 31.3824 51.1954 31.4153C51.3718 31.4463 51.5423 31.505 51.7007 31.5892C51.8491 31.669 51.975 31.7856 52.0663 31.928C52.1656 32.0919 52.2143 32.2819 52.206 32.4738C52.2113 32.6615 52.1683 32.8475 52.0812 33.0135C52.0008 33.1599 51.8853 33.2836 51.7453 33.3733C51.6025 33.4659 51.4445 33.5319 51.2786 33.5682C51.105 33.6077 50.9276 33.6278 50.7496 33.6282H49.0435L49.0702 31.3643ZM49.0702 35.6072H50.8239C51.0278 35.6082 51.2313 35.6233 51.4332 35.6522C51.6377 35.6803 51.8376 35.7358 52.0277 35.8171C52.2107 35.8928 52.3721 36.0134 52.4973 36.1679C52.6252 36.3405 52.6902 36.5523 52.6816 36.7676C52.6891 36.9718 52.6408 37.1741 52.5419 37.3523C52.4508 37.5084 52.3258 37.6417 52.1763 37.7421C52.0256 37.8434 51.8571 37.9146 51.6799 37.952C51.5011 37.9909 51.3188 38.011 51.136 38.012H49.0553L49.0702 35.6072Z" fill="url(#paint0_linear_6811_4043)"/>
</g>
<defs>
<linearGradient id="paint0_linear_6811_4043" x1="0" y1="20" x2="55" y2="20" gradientUnits="userSpaceOnUse">
<stop stop-color="#90CEA1"/>
<stop offset="0.56" stop-color="#3CBEC9"/>
<stop offset="1" stop-color="#00B3E5"/>
</linearGradient>
<clipPath id="clip0_6811_4043">
<rect width="55" height="40" fill="white"/>
</clipPath>
</defs>
</svg>
