<svg width="44" height="44" viewBox="0 0 44 44" fill="none" xmlns="http://www.w3.org/2000/svg">
<path d="M16.8115 7.33327C17.1903 6.25979 17.8927 5.33023 18.8219 4.67272C19.7512 4.0152 20.8615 3.66211 21.9998 3.66211C23.1382 3.66211 24.2485 4.0152 25.1777 4.67272C26.107 5.33023 26.8094 6.25979 27.1882 7.33327M37.5832 10.9999H6.4165M34.527 16.5833L33.6837 28.2333C33.3592 33.0989 33.1978 35.5318 31.612 37.0149C30.0262 38.4999 27.586 38.4999 22.7093 38.4999H21.2903C16.4137 38.4999 13.9735 38.4999 12.3877 37.0149C10.8018 35.5318 10.6387 33.0989 10.316 28.2333L9.47267 16.5833M17.4165 20.1666L18.3332 29.3333M26.5832 20.1666L25.6665 29.3333" stroke="#666666" stroke-width="2.5" stroke-linecap="round"/>
</svg>
