<svg width="68" height="68" viewBox="0 0 68 68" fill="none" xmlns="http://www.w3.org/2000/svg">
<path d="M34.0001 59.0013H16.501C15.838 59.0013 15.2021 58.7379 14.7333 58.2691C14.2645 57.8003 14.0011 57.1644 14.0011 56.5014V11.5038C14.0011 10.8408 14.2645 10.2049 14.7333 9.7361C15.2021 9.26728 15.838 9.00391 16.501 9.00391H51.4991C52.1621 9.00391 52.798 9.26728 53.2668 9.7361C53.7356 10.2049 53.999 10.8408 53.999 11.5038V34.0026M48.3743 59.0013V42.7521" stroke="white" stroke-width="4" stroke-linecap="round" stroke-linejoin="round"/>
<path d="M42.7496 47.1247L44.6245 45.2498L48.3743 41.5L52.1241 45.2498L53.999 47.1247" stroke="white" stroke-width="4" stroke-linecap="round" stroke-linejoin="round"/>
<path d="M24.0006 24H43.9996M24.0006 33.9995H34.0001" stroke="white" stroke-width="4" stroke-linecap="round"/>
</svg>
