<svg width="88" height="88" viewBox="0 0 88 88" fill="none" xmlns="http://www.w3.org/2000/svg">
<path d="M62.3334 14.668H73.3334C77.3667 14.668 80.6667 17.968 80.6667 22.0013V29.3346H73.3334V22.0013H62.3334V14.668ZM14.6667 29.3346V22.0013H25.6667V14.668H14.6667C10.6334 14.668 7.33337 17.968 7.33337 22.0013V29.3346H14.6667ZM73.3334 58.668V66.0013H62.3334V73.3346H73.3334C77.3667 73.3346 80.6667 70.0346 80.6667 66.0013V58.668H73.3334ZM25.6667 66.0013H14.6667V58.668H7.33337V66.0013C7.33337 70.0346 10.6334 73.3346 14.6667 73.3346H25.6667V66.0013ZM58.6667 36.668V51.3346H29.3334V36.668H58.6667ZM66 29.3346H22V58.668H66V29.3346Z" fill="white"/>
</svg>
